CommissionerLoud-Medium.ufo
<glyph name="numbersign" format="2">
  <advance width="688.6526315789474"/>
  <unicode hex="0023"/>
  <outline>
    <contour>
      <point x="15.894736842105264" y="140.67368421052632" type="line"/>
      <point x="80.87368421052632" y="142.49473684210525"/>
      <point x="151.56842105263158" y="144.31578947368422"/>
      <point x="195.6" y="145.13684210526316" type="curve"/>
      <point x="439.0315789473684" y="145.13684210526316" type="line"/>
      <point x="483.06315789473683" y="144.31578947368422"/>
      <point x="553.7578947368421" y="142.49473684210525"/>
      <point x="618.7368421052631" y="140.67368421052632" type="curve"/>
      <point x="618.7368421052631" y="231.78947368421052" type="line"/>
      <point x="553.7578947368421" y="229.96842105263158"/>
      <point x="483.06315789473683" y="228.14736842105262"/>
      <point x="439.0315789473684" y="227.32631578947368" type="curve"/>
      <point x="195.6" y="227.32631578947368" type="line"/>
      <point x="151.56842105263158" y="228.14736842105262"/>
      <point x="80.87368421052632" y="229.96842105263158"/>
      <point x="15.894736842105264" y="231.78947368421052" type="curve"/>
    </contour>
    <contour>
      <point x="106.65263157894738" y="0.0" type="curve"/>
      <point x="206.9263157894737" y="0.0" type="line"/>
      <point x="217.6421052631579" y="67.82105263157894"/>
      <point x="227.17894736842106" y="128.69473684210527"/>
      <point x="240.4842105263158" y="213.10526315789474" type="curve"/>
      <point x="284.5578947368421" y="440.9789473684211" type="line"/>
      <point x="303.9684210526316" y="529.621052631579"/>
      <point x="317.5578947368421" y="588.2105263157896"/>
      <point x="333.5578947368421" y="661.2105263157895" type="curve"/>
      <point x="234.1052631578947" y="661.2105263157895" type="line"/>
      <point x="222.97894736842105" y="587.9263157894737"/>
      <point x="214.26315789473685" y="530.5684210526315"/>
      <point x="199.77894736842106" y="442.1578947368421" type="curve"/>
      <point x="155.70526315789473" y="213.10526315789474" type="line"/>
      <point x="135.8842105263158" y="127.87368421052632"/>
      <point x="121.65263157894738" y="66.17894736842103"/>
    </contour>
    <contour>
      <point x="69.91578947368421" y="426.4210526315789" type="line"/>
      <point x="134.89473684210526" y="428.2421052631579"/>
      <point x="205.58947368421053" y="430.06315789473683"/>
      <point x="249.62105263157895" y="430.88421052631577" type="curve"/>
      <point x="493.05263157894734" y="430.88421052631577" type="line"/>
      <point x="537.0842105263158" y="430.06315789473683"/>
      <point x="607.7789473684211" y="428.2421052631579"/>
      <point x="672.7578947368421" y="426.4210526315789" type="curve"/>
      <point x="672.7578947368421" y="517.5368421052631" type="line"/>
      <point x="607.7789473684211" y="515.7157894736843"/>
      <point x="537.0842105263158" y="513.8947368421052"/>
      <point x="493.05263157894734" y="513.0736842105263" type="curve"/>
      <point x="249.62105263157895" y="513.0736842105263" type="line"/>
      <point x="205.58947368421053" y="513.8947368421052"/>
      <point x="134.89473684210526" y="515.7157894736843"/>
      <point x="69.91578947368421" y="517.5368421052631" type="curve"/>
    </contour>
    <contour>
      <point x="348.9684210526316" y="0.0" type="curve"/>
      <point x="449.2421052631579" y="0.0" type="line"/>
      <point x="459.9578947368421" y="67.82105263157894"/>
      <point x="469.4947368421052" y="128.69473684210527"/>
      <point x="482.8" y="213.10526315789474" type="curve"/>
      <point x="526.8736842105263" y="440.9789473684211" type="line"/>
      <point x="546.2842105263157" y="529.621052631579"/>
      <point x="559.8736842105263" y="588.2105263157896"/>
      <point x="575.8736842105263" y="661.2105263157895" type="curve"/>
      <point x="476.42105263157896" y="661.2105263157895" type="line"/>
      <point x="465.29473684210524" y="587.9263157894737"/>
      <point x="456.57894736842104" y="530.5684210526315"/>
      <point x="442.09473684210525" y="442.1578947368421" type="curve"/>
      <point x="398.0210526315789" y="213.10526315789474" type="line"/>
      <point x="378.2" y="127.87368421052632"/>
      <point x="363.9684210526316" y="66.17894736842103"/>
    </contour>
  </outline>
</glyph>
<glyph name="dollar" format="2">
  <advance width="566.7789473684211"/>
  <unicode hex="0024"/>
  <outline>
    <contour>
      <point x="286.30526315789473" y="-11.463157894736842" type="curve" smooth="yes"/>
      <point x="456.06315789473683" y="-11.463157894736842"/>
      <point x="530.6842105263158" y="72.07368421052631"/>
      <point x="530.6842105263158" y="189.31578947368422" type="curve" smooth="yes"/>
      <point x="530.6842105263158" y="292.09473684210525"/>
      <point x="478.86315789473684" y="340.9157894736842"/>
      <point x="316.09473684210525" y="391.8105263157895" type="curve" smooth="yes"/>
      <point x="202.21052631578948" y="428.1894736842105"/>
      <point x="153.0105263157895" y="447.10526315789474"/>
      <point x="153.0105263157895" y="504.93684210526317" type="curve" smooth="yes"/>
      <point x="153.0105263157895" y="573.7368421052631"/>
      <point x="219.58947368421053" y="601.6526315789473"/>
      <point x="291.93684210526317" y="602.8315789473684" type="curve"/>
      <point x="311.88421052631577" y="602.8315789473684"/>
      <point x="399.7578947368421" y="576.6526315789474"/>
      <point x="480.4526315789474" y="546.6526315789474" type="curve"/>
      <point x="490.7368421052632" y="650.8" type="line"/>
      <point x="430.65263157894736" y="666.978947368421"/>
      <point x="323.31578947368416" y="697.6421052631579"/>
      <point x="277.2842105263158" y="697.6421052631579" type="curve" smooth="yes"/>
      <point x="125.22105263157894" y="697.6421052631579"/>
      <point x="49.16842105263158" y="616.1263157894737"/>
      <point x="49.16842105263158" y="504.5263157894737" type="curve" smooth="yes"/>
      <point x="49.16842105263158" y="392.1578947368421"/>
      <point x="122.29473684210527" y="347.46315789473687"/>
      <point x="249.7263157894737" y="308.38947368421054" type="curve" smooth="yes"/>
      <point x="359.82105263157894" y="274.5473684210526"/>
      <point x="427.2526315789474" y="252.45263157894738"/>
      <point x="427.2526315789474" y="188.26315789473685" type="curve" smooth="yes"/>
      <point x="427.2526315789474" y="111.62105263157895"/>
      <point x="366.1894736842105" y="82.88421052631578"/>
      <point x="282.2" y="81.70526315789473" type="curve"/>
      <point x="246.92631578947368" y="81.70526315789473"/>
      <point x="159.8421052631579" y="107.11578947368422"/>
      <point x="68.32631578947368" y="139.29473684210527" type="curve"/>
      <point x="58.810526315789474" y="32.915789473684214" type="line"/>
      <point x="141.09473684210528" y="10.431578947368418"/>
      <point x="238.7157894736842" y="-11.463157894736842"/>
    </contour>
    <contour>
      <point x="241.83157894736843" y="-137.0" type="curve"/>
      <point x="337.41052631578947" y="-137.0" type="line"/>
      <point x="334.76842105263154" y="0.9999999999999982"/>
      <point x="331.7157894736842" y="154.0"/>
      <point x="331.30526315789473" y="192.0" type="curve"/>
      <point x="331.30526315789473" y="474.0" type="line"/>
      <point x="331.7157894736842" y="512.0"/>
      <point x="334.76842105263154" y="665.0"/>
      <point x="337.41052631578947" y="803.0" type="curve"/>
      <point x="241.83157894736843" y="803.0" type="line"/>
      <point x="244.47368421052633" y="665.0"/>
      <point x="247.5263157894737" y="512.0"/>
      <point x="247.93684210526317" y="474.0" type="curve"/>
      <point x="247.93684210526317" y="192.0" type="line"/>
      <point x="247.5263157894737" y="154.0"/>
      <point x="244.47368421052633" y="1.0"/>
    </contour>
  </outline>
</glyph>
<glyph name="ampersand" format="2">
  <advance width="747.6551724137931"/>
  <unicode hex="0026"/>
  <outline>
    <contour>
      <point x="588.0" y="0.0" type="curve"/>
      <point x="743.7931034482759" y="0.0" type="line"/>
      <point x="678.9310344827586" y="64.55172413793103"/>
      <point x="614.0689655172414" y="129.20689655172413"/>
      <point x="548.2068965517242" y="193.86206896551724" type="curve"/>
      <point x="327.9310344827586" y="420.58620689655174" type="line" smooth="yes"/>
      <point x="274.17241379310343" y="475.0344827586207"/>
      <point x="252.0344827586207" y="512.8620689655172"/>
      <point x="252.0344827586207" y="556.9310344827586" type="curve" smooth="yes"/>
      <point x="252.0344827586207" y="608.3103448275862"/>
      <point x="284.3793103448276" y="641.7931034482759"/>
      <point x="336.2758620689655" y="644.6896551724138" type="curve"/>
      <point x="384.44827586206895" y="641.7931034482759"/>
      <point x="421.58620689655174" y="609.551724137931"/>
      <point x="421.58620689655174" y="562.448275862069" type="curve" smooth="yes"/>
      <point x="421.58620689655174" y="529.9310344827586"/>
      <point x="363.7241379310345" y="478.1379310344828"/>
      <point x="306.0344827586207" y="430.3103448275862" type="curve"/>
      <point x="366.27586206896547" y="369.65517241379314" type="line"/>
      <point x="446.0689655172414" y="437.0"/>
      <point x="522.5172413793103" y="501.37931034482756"/>
      <point x="522.5172413793103" y="565.1379310344828" type="curve" smooth="yes"/>
      <point x="522.5172413793103" y="668.0"/>
      <point x="437.6896551724138" y="726.7931034482758"/>
      <point x="330.8965517241379" y="726.7931034482758" type="curve" smooth="yes"/>
      <point x="226.27586206896552" y="726.7931034482758"/>
      <point x="142.13793103448276" y="664.5862068965517"/>
      <point x="142.13793103448276" y="556.0344827586207" type="curve" smooth="yes"/>
      <point x="142.13793103448276" y="485.41379310344826"/>
      <point x="179.6551724137931" y="430.51724137931035"/>
      <point x="238.68965517241378" y="369.0" type="curve" smooth="yes"/>
      <point x="464.3448275862069" y="136.0" type="line"/>
      <point x="505.8620689655172" y="91.0"/>
      <point x="547.4827586206897" y="44.0"/>
    </contour>
    <contour>
      <point x="265.2413793103448" y="-10.793103448275861" type="curve" smooth="yes"/>
      <point x="335.1034482758621" y="-10.793103448275861"/>
      <point x="394.9310344827586" y="31.724137931034484"/>
      <point x="491.7586206896551" y="97.31034482758619" type="curve"/>
      <point x="504.6551724137931" y="97.31034482758619" type="line"/>
      <point x="499.0689655172414" y="119.06896551724138" type="line"/>
      <point x="449.86206896551727" y="180.0" type="line"/>
      <point x="367.96551724137936" y="121.06896551724137"/>
      <point x="305.0689655172414" y="80.27586206896552"/>
      <point x="280.48275862068965" y="80.27586206896552" type="curve"/>
      <point x="200.0344827586207" y="83.17241379310346"/>
      <point x="150.17241379310346" y="128.82758620689654"/>
      <point x="150.17241379310346" y="198.0344827586207" type="curve" smooth="yes"/>
      <point x="150.17241379310346" y="267.55172413793105"/>
      <point x="198.3793103448276" y="316.6896551724138"/>
      <point x="270.17241379310343" y="349.0344827586207" type="curve"/>
      <point x="222.89655172413794" y="417.17241379310343" type="line"/>
      <point x="132.31034482758622" y="377.17241379310343"/>
      <point x="43.86206896551724" y="308.37931034482756"/>
      <point x="43.86206896551724" y="186.3793103448276" type="curve" smooth="yes"/>
      <point x="43.86206896551724" y="75.3103448275862"/>
      <point x="117.65517241379311" y="-10.793103448275861"/>
    </contour>
    <contour>
      <point x="561.1724137931035" y="173.10344827586206" type="line"/>
      <point x="610.2413793103448" y="232.51724137931035"/>
      <point x="657.4137931034483" y="289.93103448275866"/>
      <point x="705.5862068965517" y="350.2413793103448" type="curve"/>
      <point x="606.3448275862069" y="413.9655172413793" type="line"/>
      <point x="570.1379310344828" y="352.7586206896552"/>
      <point x="535.9310344827587" y="294.7586206896552"/>
      <point x="499.51724137931035" y="232.34482758620692" type="curve"/>
    </contour>
  </outline>
</glyph>
<glyph name="quotesingle" format="2">
  <advance width="211.32631578947368"/>
  <unicode hex="0027"/>
  <outline>
    <contour>
      <point x="55.96842105263158" y="422.0736842105263" type="curve"/>
      <point x="136.97894736842105" y="423.0736842105263" type="line"/>
      <point x="141.49473684210525" y="531.2631578947369"/>
      <point x="149.9578947368421" y="638.6315789473684"/>
      <point x="157.60000000000002" y="744.4105263157895" type="curve"/>
      <point x="34.347368421052636" y="741.7684210526315" type="line"/>
      <point x="42.98947368421053" y="636.4"/>
      <point x="51.45263157894737" y="530.0315789473684"/>
    </contour>
  </outline>
</glyph>
<glyph name="parenleft" format="2">
  <advance width="395.61052631578946"/>
  <unicode hex="0028"/>
  <outline>
    <contour>
      <point x="273.37894736842105" y="-125.54736842105262" type="curve"/>
      <point x="364.67368421052635" y="-91.25263157894737" type="line"/>
      <point x="263.0842105263157" y="37.01052631578948"/>
      <point x="164.4" y="168.10526315789474"/>
      <point x="164.4" y="323.58947368421053" type="curve" smooth="yes"/>
      <point x="164.4" y="479.6631578947368"/>
      <point x="263.0842105263157" y="610.1684210526316"/>
      <point x="364.67368421052635" y="738.4315789473684" type="curve"/>
      <point x="273.37894736842105" y="772.7263157894737" type="line"/>
      <point x="180.71578947368423" y="654.2421052631579"/>
      <point x="53.578947368421055" y="509.4210526315789"/>
      <point x="53.578947368421055" y="323.58947368421053" type="curve" smooth="yes"/>
      <point x="53.578947368421055" y="138.34736842105264"/>
      <point x="180.71578947368423" y="-7.063157894736838"/>
    </contour>
  </outline>
</glyph>
<glyph name="asterisk" format="2">
  <advance width="480.57894736842104"/>
  <unicode hex="002A"/>
  <outline>
    <contour>
      <point x="415.33684210526314" y="364.47368421052636" type="curve"/>
      <point x="456.5052631578947" y="433.88421052631577" type="line"/>
      <point x="388.81052631578945" y="468.59999999999997"/>
      <point x="320.11578947368423" y="502.4947368421053"/>
      <point x="252.42105263157896" y="537.2105263157895" type="curve"/>
      <point x="189.83157894736843" y="581.6736842105263"/>
      <point x="127.2421052631579" y="626.3684210526316"/>
      <point x="65.2421052631579" y="670.2421052631579" type="curve"/>
      <point x="24.073684210526316" y="600.421052631579" type="line"/>
      <point x="91.76842105263158" y="565.7052631578947"/>
      <point x="160.05263157894737" y="531.8105263157894"/>
      <point x="228.74736842105264" y="496.5052631578947" type="curve"/>
      <point x="290.7473684210526" y="452.63157894736844"/>
      <point x="353.33684210526314" y="408.34736842105264"/>
    </contour>
    <contour>
      <point x="65.65263157894738" y="364.0631578947369" type="line"/>
      <point x="127.65263157894738" y="408.34736842105264"/>
      <point x="189.83157894736843" y="452.63157894736844"/>
      <point x="252.42105263157896" y="497.5052631578947" type="curve"/>
      <point x="320.11578947368423" y="531.8105263157894"/>
      <point x="388.4" y="566.5263157894736"/>
      <point x="456.09473684210525" y="600.8315789473685" type="curve"/>
      <point x="414.9263157894737" y="670.6526315789474" type="line"/>
      <point x="352.9263157894737" y="626.3684210526316"/>
      <point x="290.7473684210526" y="582.0842105263158"/>
      <point x="228.74736842105264" y="537.8" type="curve"/>
      <point x="160.46315789473684" y="502.90526315789475"/>
      <point x="91.76842105263158" y="468.59999999999997"/>
      <point x="24.073684210526316" y="434.29473684210524" type="curve"/>
    </contour>
    <contour>
      <point x="199.50526315789472" y="288.66315789473686" type="curve"/>
      <point x="281.0736842105263" y="288.66315789473686" type="line"/>
      <point x="275.37894736842105" y="364.89473684210526"/>
      <point x="269.2736842105263" y="441.12631578947367"/>
      <point x="263.57894736842104" y="517.9473684210526" type="curve"/>
      <point x="269.2736842105263" y="593.5894736842105"/>
      <point x="274.9684210526316" y="669.8210526315789"/>
      <point x="280.66315789473686" y="746.0526315789474" type="curve"/>
      <point x="199.50526315789472" y="746.0526315789474" type="line"/>
      <point x="205.20000000000002" y="669.8210526315789"/>
      <point x="211.30526315789473" y="593.5894736842105"/>
      <point x="217.0" y="517.9473684210526" type="curve"/>
      <point x="211.30526315789473" y="441.12631578947367"/>
      <point x="205.20000000000002" y="364.89473684210526"/>
    </contour>
  </outline>
</glyph>
<glyph name="plus" format="2">
  <advance width="592.3157894736842"/>
  <unicode hex="002B"/>
  <outline>
    <contour>
      <point x="242.62105263157895" y="56.37894736842105" type="curve"/>
      <point x="349.69473684210527" y="56.37894736842105" type="line"/>
      <point x="347.8736842105263" y="121.3578947368421"/>
      <point x="346.05263157894734" y="192.05263157894737"/>
      <point x="345.2315789473684" y="236.0842105263158" type="curve"/>
      <point x="345.2315789473684" y="365.41052631578947" type="line"/>
      <point x="346.05263157894734" y="409.44210526315794"/>
      <point x="347.8736842105263" y="480.13684210526316"/>
      <point x="349.69473684210527" y="545.1157894736842" type="curve"/>
      <point x="242.62105263157895" y="545.1157894736842" type="line"/>
      <point x="244.44210526315788" y="480.13684210526316"/>
      <point x="246.26315789473685" y="409.44210526315794"/>
      <point x="247.0842105263158" y="365.41052631578947" type="curve"/>
      <point x="247.0842105263158" y="236.0842105263158" type="line"/>
      <point x="246.26315789473685" y="192.05263157894737"/>
      <point x="244.44210526315788" y="121.3578947368421"/>
    </contour>
    <contour>
      <point x="57.68421052631579" y="248.4421052631579" type="line"/>
      <point x="122.66315789473684" y="250.26315789473685"/>
      <point x="193.35789473684213" y="252.08421052631581"/>
      <point x="237.38947368421051" y="252.90526315789475" type="curve"/>
      <point x="354.9263157894737" y="252.90526315789475" type="line"/>
      <point x="398.95789473684215" y="252.08421052631581"/>
      <point x="469.65263157894736" y="250.26315789473685"/>
      <point x="534.6315789473684" y="248.4421052631579" type="curve"/>
      <point x="534.6315789473684" y="353.0526315789474" type="line"/>
      <point x="469.65263157894736" y="351.2315789473684"/>
      <point x="398.95789473684215" y="349.41052631578947"/>
      <point x="354.9263157894737" y="348.58947368421053" type="curve"/>
      <point x="237.38947368421051" y="348.58947368421053" type="line"/>
      <point x="193.35789473684213" y="349.41052631578947"/>
      <point x="122.66315789473684" y="351.2315789473684"/>
      <point x="57.68421052631579" y="353.0526315789474" type="curve"/>
    </contour>
  </outline>
</glyph>
<glyph name="comma" format="2">
  <advance width="239.0421052631579"/>
  <unicode hex="002C"/>
  <outline>
    <contour>
      <point x="38.294736842105266" y="-157.0" type="curve"/>
      <point x="94.13684210526316" y="-155.58947368421053" type="line"/>
      <point x="125.83157894736841" y="-97.21052631578948"/>
      <point x="192.2315789473684" y="15.157894736842106"/>
      <point x="192.2315789473684" y="61.652631578947364" type="curve" smooth="yes"/>
      <point x="192.2315789473684" y="104.1263157894737"/>
      <point x="173.02105263157895" y="136.31578947368422"/>
      <point x="129.26315789473685" y="141.0105263157895" type="curve"/>
      <point x="66.72631578947369" y="136.7263157894737" type="line"/>
      <point x="70.60000000000001" y="100.0"/>
      <point x="74.65263157894738" y="63.27368421052631"/>
      <point x="77.29473684210527" y="29.010526315789473" type="curve"/>
      <point x="66.11578947368422" y="-30.452631578947365"/>
      <point x="52.06315789473684" y="-98.41052631578948"/>
    </contour>
  </outline>
</glyph>
<glyph name="hyphen" format="2">
  <advance width="424.10526315789474"/>
  <unicode hex="002D"/>
  <outline>
    <contour>
      <point x="57.68421052631579" y="246.38947368421051" type="line"/>
      <point x="113.61052631578947" y="248.21052631578945"/>
      <point x="174.07368421052632" y="250.03157894736842"/>
      <point x="212.05263157894737" y="250.85263157894735" type="curve"/>
      <point x="250.03157894736844" y="250.03157894736842"/>
      <point x="310.4947368421053" y="248.21052631578945"/>
      <point x="366.42105263157896" y="246.38947368421051" type="curve"/>
      <point x="366.42105263157896" y="351.0" type="line"/>
      <point x="310.4947368421053" y="349.178947368421"/>
      <point x="250.03157894736844" y="347.35789473684207"/>
      <point x="212.05263157894737" y="346.53684210526313" type="curve"/>
      <point x="174.07368421052632" y="347.35789473684207"/>
      <point x="113.61052631578947" y="349.178947368421"/>
      <point x="57.68421052631579" y="351.0" type="curve"/>
    </contour>
  </outline>
</glyph>
<glyph name="period" format="2">
  <advance width="246.66315789473683"/>
  <unicode hex="002E"/>
  <outline>
    <contour>
      <point x="123.42105263157895" y="-11.873684210526315" type="curve" smooth="yes"/>
      <point x="171.53684210526316" y="-11.873684210526315"/>
      <point x="200.44210526315788" y="14.031578947368422"/>
      <point x="200.44210526315788" y="69.37894736842107" type="curve" smooth="yes"/>
      <point x="200.44210526315788" y="113.56842105263159"/>
      <point x="171.53684210526316" y="137.65263157894736"/>
      <point x="123.83157894736843" y="137.65263157894736" type="curve" smooth="yes"/>
      <point x="76.30526315789474" y="137.65263157894736"/>
      <point x="46.810526315789474" y="113.56842105263159"/>
      <point x="46.810526315789474" y="69.37894736842107" type="curve" smooth="yes"/>
      <point x="46.810526315789474" y="14.031578947368422"/>
      <point x="76.30526315789474" y="-11.873684210526315"/>
    </contour>
  </outline>
</glyph>
<glyph name="slash" format="2">
  <advance width="457.29473684210524"/>
  <unicode hex="002F"/>
  <outline>
    <contour>
      <point x="20.757894736842104" y="0.0" type="curve"/>
      <point x="142.73684210526315" y="0.0" type="line"/>
      <point x="170.81052631578947" y="74.0"/>
      <point x="194.29473684210527" y="136.0"/>
      <point x="229.13684210526316" y="228.0" type="curve"/>
      <point x="330.4631578947368" y="474.0" type="line"/>
      <point x="372.41052631578947" y="569.0"/>
      <point x="400.7684210526316" y="632.5894736842105"/>
      <point x="436.53684210526313" y="713.0" type="curve"/>
      <point x="314.9684210526316" y="713.0" type="line"/>
      <point x="285.89473684210526" y="636.5894736842105"/>
      <point x="261.41052631578947" y="571.5894736842105"/>
      <point x="224.97894736842105" y="476.0" type="curve"/>
      <point x="122.65263157894736" y="228.0" type="line"/>
      <point x="81.70526315789473" y="137.23157894736843"/>
      <point x="53.93684210526315" y="74.23157894736842"/>
    </contour>
  </outline>
</glyph>
<glyph name="one" format="2">
  <advance width="441.66315789473686"/>
  <unicode hex="0031"/>
  <outline>
    <contour>
      <point x="56.97894736842105" y="462.2421052631579" type="line"/>
      <point x="131.4421052631579" y="504.01052631578943"/>
      <point x="205.67368421052632" y="545.3684210526316"/>
      <point x="280.9578947368421" y="587.5473684210526" type="curve"/>
      <point x="284.65263157894736" y="690.1052631578947" type="line"/>
      <point x="197.97894736842107" y="648.3368421052631"/>
      <point x="112.1263157894737" y="607.5684210526316"/>
      <point x="25.452631578947365" y="565.8" type="curve"/>
    </contour>
    <contour>
      <point x="218.56842105263158" y="0.0" type="curve"/>
      <point x="348.4" y="0.0" type="line"/>
      <point x="345.34736842105264" y="72.94736842105263"/>
      <point x="342.70526315789476" y="135.4842105263158"/>
      <point x="339.2421052631579" y="217.7157894736842" type="curve"/>
      <point x="339.2421052631579" y="447.82105263157894" type="line"/>
      <point x="342.29473684210524" y="530.3578947368421"/>
      <point x="345.34736842105264" y="609.9473684210526"/>
      <point x="348.4" y="686.4631578947368" type="curve"/>
      <point x="284.65263157894736" y="690.1052631578947" type="line"/>
      <point x="222.44210526315788" y="638.8526315789474" type="line"/>
      <point x="223.67368421052632" y="568.1368421052632"/>
      <point x="225.90526315789472" y="491.93684210526317"/>
      <point x="227.13684210526316" y="427.70526315789476" type="curve"/>
      <point x="227.13684210526316" y="217.7157894736842" type="line"/>
      <point x="223.67368421052632" y="135.4842105263158"/>
      <point x="221.62105263157895" y="72.94736842105263"/>
    </contour>
  </outline>
</glyph>
<glyph name="two" format="2">
  <advance width="560.2421052631579"/>
  <unicode hex="0032"/>
  <outline>
    <contour>
      <point x="46.43157894736842" y="0.0" type="line"/>
      <point x="510.5052631578947" y="0.0" type="line"/>
      <point x="510.5052631578947" y="108.12631578947368" type="line"/>
      <point x="438.35789473684207" y="104.66315789473684"/>
      <point x="366.0315789473684" y="101.2"/>
      <point x="292.2421052631579" y="97.32631578947368" type="curve"/>
      <point x="158.89473684210526" y="97.32631578947368" type="line"/>
      <point x="174.2842105263158" y="74.9578947368421" type="line"/>
      <point x="280.5052631578947" y="162.8421052631579" type="line"/>
      <point x="425.6736842105263" y="282.8"/>
      <point x="499.2526315789474" y="389.0"/>
      <point x="499.2526315789474" y="499.7894736842105" type="curve" smooth="yes"/>
      <point x="499.2526315789474" y="623.8210526315789"/>
      <point x="419.2736842105263" y="700.1052631578947"/>
      <point x="275.4421052631579" y="700.1052631578947" type="curve" smooth="yes"/>
      <point x="232.0842105263158" y="700.1052631578947"/>
      <point x="101.76842105263158" y="663.2105263157895"/>
      <point x="43.02105263157895" y="644.8526315789474" type="curve"/>
      <point x="53.94736842105263" y="533.5473684210526" type="line"/>
      <point x="132.45263157894735" y="566.8526315789474"/>
      <point x="234.66315789473683" y="603.2421052631579"/>
      <point x="254.9157894736842" y="603.2421052631579" type="curve"/>
      <point x="340.82105263157894" y="601.421052631579"/>
      <point x="383.6842105263158" y="563.7894736842105"/>
      <point x="383.6842105263158" y="486.06315789473683" type="curve" smooth="yes"/>
      <point x="383.6842105263158" y="389.30526315789473"/>
      <point x="299.4842105263158" y="298.9578947368421"/>
      <point x="163.83157894736843" y="179.07368421052632" type="curve"/>
      <point x="124.7578947368421" y="148.05263157894737"/>
      <point x="85.50526315789473" y="116.85263157894737"/>
      <point x="46.43157894736842" y="85.83157894736843" type="curve"/>
    </contour>
  </outline>
</glyph>
<glyph name="three" format="2">
  <advance width="575.3448275862069"/>
  <unicode hex="0033"/>
  <outline>
    <contour>
      <point x="277.58620689655174" y="-11.689655172413794" type="curve" smooth="yes"/>
      <point x="448.3103448275862" y="-11.689655172413794"/>
      <point x="528.7931034482758" y="73.20689655172414"/>
      <point x="528.7931034482758" y="185.27586206896552" type="curve" smooth="yes"/>
      <point x="528.7931034482758" y="294.6896551724138"/>
      <point x="449.6551724137931" y="348.1034482758621"/>
      <point x="377.55172413793105" y="361.0" type="curve"/>
      <point x="377.55172413793105" y="370.58620689655174" type="line"/>
      <point x="448.7586206896552" y="386.7931034482759"/>
      <point x="507.2758620689655" y="442.7241379310345"/>
      <point x="507.2758620689655" y="528.7241379310345" type="curve" smooth="yes"/>
      <point x="507.2758620689655" y="634.1034482758621"/>
      <point x="420.37931034482756" y="700.4827586206897"/>
      <point x="282.58620689655174" y="700.4827586206897" type="curve" smooth="yes"/>
      <point x="240.3793103448276" y="700.4827586206897"/>
      <point x="112.62068965517241" y="660.8620689655173"/>
      <point x="55.241379310344826" y="641.551724137931" type="curve"/>
      <point x="65.72413793103448" y="534.6206896551724" type="line"/>
      <point x="143.9655172413793" y="568.3448275862069"/>
      <point x="245.0344827586207" y="603.0344827586207"/>
      <point x="265.6551724137931" y="603.0344827586207" type="curve"/>
      <point x="338.93103448275866" y="601.1379310344828"/>
      <point x="392.0" y="572.8965517241379"/>
      <point x="392.0" y="508.1034482758621" type="curve" smooth="yes"/>
      <point x="392.0" y="445.3103448275862"/>
      <point x="344.0344827586207" y="401.3103448275862"/>
      <point x="232.06896551724137" y="399.51724137931035" type="curve"/>
      <point x="209.79310344827587" y="401.3103448275862"/>
      <point x="186.6206896551724" y="403.2068965517241"/>
      <point x="166.13793103448276" y="404.1034482758621" type="curve"/>
      <point x="166.13793103448276" y="304.86206896551727" type="line"/>
      <point x="190.20689655172413" y="305.75862068965523"/>
      <point x="213.3793103448276" y="307.65517241379314"/>
      <point x="238.3448275862069" y="308.55172413793105" type="curve"/>
      <point x="349.3103448275862" y="306.7586206896552"/>
      <point x="413.51724137931035" y="268.2758620689655"/>
      <point x="413.51724137931035" y="193.3448275862069" type="curve" smooth="yes"/>
      <point x="413.51724137931035" y="130.24137931034483"/>
      <point x="370.6551724137931" y="86.75862068965517"/>
      <point x="266.7241379310345" y="84.86206896551724" type="curve"/>
      <point x="231.06896551724137" y="84.86206896551724"/>
      <point x="133.34482758620692" y="116.3448275862069"/>
      <point x="51.51724137931035" y="145.96551724137933" type="curve"/>
      <point x="41.03448275862069" y="38.24137931034483" type="line"/>
      <point x="117.6551724137931" y="15.517241379310345"/>
      <point x="232.0689655172414" y="-11.689655172413794"/>
    </contour>
  </outline>
</glyph>
<glyph name="four" format="2">
  <advance width="605.1379310344828"/>
  <unicode hex="0034"/>
  <outline>
    <contour>
      <point x="341.448275862069" y="0.0" type="curve"/>
      <point x="471.48275862068965" y="0.0" type="line"/>
      <point x="468.6896551724138" y="64.58620689655173"/>
      <point x="465.8965517241379" y="116.06896551724137"/>
      <point x="462.2068965517241" y="194.55172413793105" type="curve"/>
      <point x="462.2068965517241" y="445.6896551724138" type="line"/>
      <point x="465.8965517241379" y="523.6896551724138"/>
      <point x="468.6896551724138" y="603.6896551724138"/>
      <point x="471.48275862068965" y="686.6896551724138" type="curve"/>
      <point x="343.9310344827586" y="686.6896551724138" type="line"/>
      <point x="315.51724137931035" y="643.2758620689655"/>
      <point x="286.10344827586204" y="597.9655172413793"/>
      <point x="257.6896551724138" y="554.551724137931" type="curve"/>
      <point x="171.9655172413793" y="432.62068965517244" type="line"/>
      <point x="127.55172413793105" y="372.7931034482758"/>
      <point x="69.0344827586207" y="293.7586206896551"/>
      <point x="27.82758620689655" y="238.24137931034483" type="curve"/>
      <point x="27.82758620689655" y="152.86206896551724" type="line"/>
      <point x="394.13793103448273" y="152.86206896551724" type="line"/>
      <point x="449.2068965517241" y="151.06896551724137"/>
      <point x="528.9655172413793" y="149.17241379310343"/>
      <point x="579.1379310344828" y="147.27586206896552" type="curve"/>
      <point x="579.1379310344828" y="256.58620689655174" type="line"/>
      <point x="528.9655172413793" y="254.68965517241378"/>
      <point x="449.2068965517241" y="251.89655172413794"/>
      <point x="394.13793103448273" y="250.10344827586206" type="curve"/>
      <point x="379.3448275862069" y="250.10344827586206" type="line"/>
      <point x="117.6896551724138" y="250.10344827586206" type="line"/>
      <point x="127.17241379310344" y="211.0" type="line"/>
      <point x="156.58620689655174" y="254.51724137931035"/>
      <point x="184.10344827586206" y="297.0344827586207"/>
      <point x="213.51724137931035" y="341.44827586206895" type="curve"/>
      <point x="329.7586206896552" y="506.2068965517241" type="line"/>
      <point x="365.17241379310343" y="554.0344827586207"/>
      <point x="400.58620689655174" y="601.9655172413793"/>
      <point x="436.8965517241379" y="650.6896551724137" type="curve"/>
      <point x="346.9310344827586" y="635.1034482758621" type="line"/>
      <point x="349.62068965517244" y="564.7931034482758"/>
      <point x="352.41379310344826" y="493.5862068965517"/>
      <point x="354.2068965517241" y="425.0689655172414" type="curve"/>
      <point x="354.2068965517241" y="212.72413793103448" type="line"/>
      <point x="350.62068965517244" y="194.55172413793105" type="line"/>
      <point x="346.93103448275866" y="116.06896551724137"/>
      <point x="344.2413793103449" y="64.58620689655173"/>
    </contour>
  </outline>
</glyph>
<glyph name="five" format="2">
  <advance width="577.8620689655172"/>
  <unicode hex="0035"/>
  <outline>
    <contour>
      <point x="274.6896551724138" y="-11.689655172413794" type="curve" smooth="yes"/>
      <point x="445.3103448275862" y="-11.689655172413794"/>
      <point x="531.3103448275862" y="81.89655172413794"/>
      <point x="531.3103448275862" y="219.68965517241378" type="curve" smooth="yes"/>
      <point x="531.3103448275862" y="363.2068965517241"/>
      <point x="436.48275862068965" y="446.44827586206895"/>
      <point x="319.9655172413793" y="446.44827586206895" type="curve" smooth="yes"/>
      <point x="282.0" y="446.44827586206895"/>
      <point x="235.96551724137933" y="431.51724137931035"/>
      <point x="199.24137931034483" y="417.8965517241379" type="curve"/>
      <point x="189.6551724137931" y="417.8965517241379" type="line"/>
      <point x="189.6551724137931" y="458.6551724137931" type="line"/>
      <point x="192.34482758620692" y="510.00000000000006"/>
      <point x="195.13793103448276" y="568.0"/>
      <point x="197.82758620689654" y="625.8620689655172" type="curve"/>
      <point x="152.44827586206895" y="589.448275862069" type="line"/>
      <point x="252.86206896551724" y="589.448275862069" type="line"/>
      <point x="332.0689655172414" y="585.7586206896551"/>
      <point x="413.2758620689655" y="582.0689655172414"/>
      <point x="492.58620689655174" y="578.3793103448276" type="curve"/>
      <point x="492.58620689655174" y="686.6896551724138" type="line"/>
      <point x="74.17241379310344" y="686.6896551724138" type="line"/>
      <point x="76.9655172413793" y="607.5172413793103"/>
      <point x="79.75862068965517" y="520.3448275862069"/>
      <point x="82.55172413793103" y="427.2758620689655" type="curve"/>
      <point x="82.55172413793103" y="317.3103448275862" type="line"/>
      <point x="131.72413793103448" y="313.51724137931035" type="line"/>
      <point x="175.58620689655172" y="337.9655172413793"/>
      <point x="232.13793103448276" y="354.37931034482756"/>
      <point x="269.7586206896552" y="354.37931034482756" type="curve"/>
      <point x="353.1379310344828" y="352.48275862068965"/>
      <point x="416.0344827586207" y="317.1379310344828"/>
      <point x="416.0344827586207" y="222.3793103448276" type="curve" smooth="yes"/>
      <point x="416.0344827586207" y="135.3448275862069"/>
      <point x="366.7586206896552" y="86.75862068965517"/>
      <point x="264.82758620689657" y="84.86206896551724" type="curve"/>
      <point x="230.06896551724137" y="84.86206896551724"/>
      <point x="132.44827586206898" y="116.3448275862069"/>
      <point x="51.51724137931035" y="145.96551724137933" type="curve"/>
      <point x="41.03448275862069" y="38.24137931034483" type="line"/>
      <point x="116.6551724137931" y="15.517241379310345"/>
      <point x="229.17241379310346" y="-11.689655172413794"/>
    </contour>
  </outline>
</glyph>
<glyph name="six" format="2">
  <advance width="610.6551724137931"/>
  <unicode hex="0036"/>
  <outline>
    <contour>
      <point x="320.0689655172414" y="-11.689655172413794" type="curve" smooth="yes"/>
      <point x="485.1034482758621" y="-11.689655172413794"/>
      <point x="564.1034482758621" y="106.48275862068965"/>
      <point x="564.1034482758621" y="232.6551724137931" type="curve" smooth="yes"/>
      <point x="564.1034482758621" y="361.9310344827586"/>
      <point x="480.3103448275862" y="448.44827586206895"/>
      <point x="351.17241379310343" y="448.44827586206895" type="curve" smooth="yes"/>
      <point x="285.72413793103453" y="448.44827586206895"/>
      <point x="223.27586206896552" y="412.10344827586204"/>
      <point x="172.13793103448276" y="374.6896551724138" type="curve"/>
      <point x="156.55172413793105" y="375.6896551724138" type="line"/>
      <point x="133.9310344827586" y="334.7931034482759"/>
      <point x="133.0344827586207" y="318.58620689655174"/>
      <point x="157.44827586206895" y="281.44827586206895" type="curve"/>
      <point x="210.3448275862069" y="330.0344827586207"/>
      <point x="274.44827586206895" y="356.2758620689655"/>
      <point x="318.8965517241379" y="357.2758620689655" type="curve"/>
      <point x="410.65517241379314" y="354.48275862068965"/>
      <point x="452.41379310344826" y="299.48275862068965"/>
      <point x="452.41379310344826" y="226.3793103448276" type="curve" smooth="yes"/>
      <point x="452.41379310344826" y="152.3793103448276"/>
      <point x="409.65517241379314" y="87.75862068965517"/>
      <point x="315.58620689655174" y="84.86206896551724" type="curve"/>
      <point x="216.6206896551724" y="90.44827586206897"/>
      <point x="160.55172413793105" y="162.9655172413793"/>
      <point x="160.55172413793105" y="329.0689655172414" type="curve" smooth="yes"/>
      <point x="160.55172413793105" y="510.51724137931035"/>
      <point x="211.82758620689654" y="599.2413793103449"/>
      <point x="337.82758620689657" y="603.0344827586207" type="curve"/>
      <point x="355.3448275862069" y="603.0344827586207"/>
      <point x="444.10344827586204" y="575.3448275862069"/>
      <point x="511.82758620689657" y="548.7241379310345" type="curve"/>
      <point x="523.3103448275862" y="654.6551724137931" type="line"/>
      <point x="474.82758620689657" y="669.9655172413793"/>
      <point x="366.7586206896552" y="700.4827586206897"/>
      <point x="330.6551724137931" y="700.4827586206897" type="curve" smooth="yes"/>
      <point x="157.86206896551724" y="700.4827586206897"/>
      <point x="50.6551724137931" y="579.1034482758621"/>
      <point x="50.6551724137931" y="331.86206896551727" type="curve" smooth="yes"/>
      <point x="50.6551724137931" y="107.20689655172414"/>
      <point x="144.3448275862069" y="-11.689655172413794"/>
    </contour>
  </outline>
</glyph>
<glyph name="seven" format="2">
  <advance width="536.4526315789474"/>
  <unicode hex="0037"/>
  <outline>
    <contour>
      <point x="98.36842105263158" y="0.0" type="curve"/>
      <point x="237.7157894736842" y="0.0" type="line"/>
      <point x="269.7368421052632" y="79.84210526315789"/>
      <point x="300.93684210526317" y="159.0421052631579"/>
      <point x="332.36842105263156" y="237.70526315789473" type="curve"/>
      <point x="393.38947368421054" y="373.4421052631579" type="line"/>
      <point x="429.87368421052633" y="452.17894736842106"/>
      <point x="463.7684210526316" y="524.1473684210526"/>
      <point x="499.66315789473686" y="600.5263157894738" type="curve"/>
      <point x="499.66315789473686" y="686.4631578947368" type="line"/>
      <point x="25.0" y="686.4631578947368" type="line"/>
      <point x="25.0" y="577.1052631578948" type="line"/>
      <point x="105.78947368421053" y="580.9789473684211"/>
      <point x="186.98947368421054" y="585.2631578947369"/>
      <point x="267.1894736842105" y="589.1368421052632" type="curve"/>
      <point x="403.0526315789474" y="589.1368421052632" type="line"/>
      <point x="373.70526315789476" y="612.6842105263158" type="line"/>
      <point x="353.2210526315789" y="563.2"/>
      <point x="333.3263157894737" y="513.8947368421052"/>
      <point x="313.4315789473684" y="464.41052631578947" type="curve"/>
      <point x="221.2842105263158" y="262.2421052631579" type="line"/>
      <point x="180.97894736842105" y="176.22105263157894"/>
      <point x="139.67368421052635" y="87.61052631578947"/>
    </contour>
  </outline>
</glyph>
<glyph name="eight" format="2">
  <advance width="611.448275862069"/>
  <unicode hex="0038"/>
  <outline>
    <contour>
      <point x="306.17241379310343" y="-11.689655172413794" type="curve" smooth="yes"/>
      <point x="482.41379310344826" y="-11.689655172413794"/>
      <point x="564.8965517241379" y="76.51724137931035"/>
      <point x="564.8965517241379" y="192.79310344827587" type="curve" smooth="yes"/>
      <point x="564.8965517241379" y="303.3103448275862"/>
      <point x="486.8620689655172" y="354.51724137931035"/>
      <point x="424.37931034482756" y="368.3103448275862" type="curve"/>
      <point x="424.37931034482756" y="377.8965517241379" type="line"/>
      <point x="486.9655172413793" y="394.0"/>
      <point x="543.3793103448276" y="445.41379310344826"/>
      <point x="543.3793103448276" y="526.5172413793103" type="curve" smooth="yes"/>
      <point x="543.3793103448276" y="630.8965517241379"/>
      <point x="452.8965517241379" y="700.4827586206897"/>
      <point x="306.17241379310343" y="700.4827586206897" type="curve" smooth="yes"/>
      <point x="158.55172413793105" y="700.4827586206897"/>
      <point x="68.06896551724138" y="630.8965517241379"/>
      <point x="68.06896551724138" y="526.5172413793103" type="curve" smooth="yes"/>
      <point x="68.06896551724138" y="445.41379310344826"/>
      <point x="124.48275862068965" y="394.0"/>
      <point x="186.9655172413793" y="377.8965517241379" type="curve"/>
      <point x="186.9655172413793" y="368.3103448275862" type="line"/>
      <point x="124.58620689655172" y="354.51724137931035"/>
      <point x="46.55172413793103" y="304.2068965517241"/>
      <point x="46.55172413793103" y="192.79310344827587" type="curve" smooth="yes"/>
      <point x="46.55172413793103" y="76.51724137931035"/>
      <point x="129.0344827586207" y="-11.689655172413794"/>
    </contour>
    <contour>
      <point x="306.17241379310343" y="85.75862068965517" type="curve"/>
      <point x="202.20689655172413" y="88.55172413793103"/>
      <point x="158.24137931034483" y="136.24137931034483"/>
      <point x="158.24137931034483" y="203.55172413793105" type="curve" smooth="yes"/>
      <point x="158.24137931034483" y="281.6896551724138"/>
      <point x="221.55172413793105" y="317.55172413793105"/>
      <point x="305.2758620689655" y="321.2413793103448" type="curve"/>
      <point x="389.8965517241379" y="317.55172413793105"/>
      <point x="453.2068965517241" y="281.6896551724138"/>
      <point x="453.2068965517241" y="203.55172413793105" type="curve" smooth="yes"/>
      <point x="453.2068965517241" y="136.24137931034483"/>
      <point x="409.2413793103448" y="88.55172413793103"/>
    </contour>
    <contour>
      <point x="306.17241379310343" y="408.62068965517244" type="curve"/>
      <point x="224.13793103448276" y="412.3103448275862"/>
      <point x="177.9655172413793" y="450.6896551724138"/>
      <point x="177.9655172413793" y="510.48275862068965" type="curve" smooth="yes"/>
      <point x="177.9655172413793" y="572.1724137931035"/>
      <point x="228.3448275862069" y="602.9310344827587"/>
      <point x="306.17241379310343" y="605.7241379310345" type="curve"/>
      <point x="383.0" y="602.9310344827587"/>
      <point x="434.37931034482756" y="572.1724137931035"/>
      <point x="434.37931034482756" y="510.48275862068965" type="curve" smooth="yes"/>
      <point x="434.37931034482756" y="450.6896551724138"/>
      <point x="387.2068965517241" y="412.3103448275862"/>
    </contour>
  </outline>
</glyph>
<glyph name="less" format="2">
  <advance width="572.3157894736842"/>
  <unicode hex="003C"/>
  <outline>
    <contour>
      <point x="514.6315789473684" y="60.136842105263156" type="curve"/>
      <point x="514.6315789473684" y="173.03157894736842" type="line"/>
      <point x="448.7684210526316" y="198.0"/>
      <point x="378.1894736842105" y="225.32631578947368"/>
      <point x="311.14736842105265" y="250.8842105263158" type="curve"/>
      <point x="203.54736842105262" y="295.10526315789474" type="line"/>
      <point x="203.54736842105262" y="305.2105263157895" type="line"/>
      <point x="311.14736842105265" y="349.4315789473684" type="line"/>
      <point x="378.1894736842105" y="374.9894736842105"/>
      <point x="448.7684210526316" y="402.3157894736842"/>
      <point x="514.6315789473684" y="427.2842105263158" type="curve"/>
      <point x="514.6315789473684" y="540.178947368421" type="line"/>
      <point x="448.8315789473684" y="511.53684210526313"/>
      <point x="386.3157894736842" y="484.12631578947367"/>
      <point x="334.33684210526314" y="461.4842105263158" type="curve"/>
      <point x="236.8" y="421.41052631578947" type="line"/>
      <point x="183.05263157894737" y="401.2315789473684"/>
      <point x="122.07368421052631" y="378.05263157894734"/>
      <point x="57.68421052631579" y="353.87368421052633" type="curve"/>
      <point x="57.68421052631579" y="246.44210526315788" type="line"/>
      <point x="122.07368421052631" y="222.85263157894738"/>
      <point x="184.23157894736843" y="199.0842105263158"/>
      <point x="236.8" y="178.90526315789475" type="curve"/>
      <point x="334.33684210526314" y="138.83157894736843" type="line"/>
      <point x="387.4947368421053" y="115.60000000000001"/>
      <point x="450.0105263157895" y="88.18947368421051"/>
    </contour>
  </outline>
</glyph>
<glyph name="equal" format="2">
  <advance width="572.3157894736842"/>
  <unicode hex="003D"/>
  <outline>
    <contour>
      <point x="61.78947368421053" y="133.17894736842106" type="line"/>
      <point x="126.76842105263158" y="135.0"/>
      <point x="197.46315789473684" y="136.82105263157897"/>
      <point x="241.49473684210525" y="137.6421052631579" type="curve"/>
      <point x="330.82105263157894" y="137.6421052631579" type="line"/>
      <point x="374.8526315789474" y="136.82105263157897"/>
      <point x="445.5473684210526" y="135.0"/>
      <point x="510.5263157894737" y="133.17894736842106" type="curve"/>
      <point x="510.5263157894737" y="237.78947368421052" type="line"/>
      <point x="445.5473684210526" y="235.96842105263158"/>
      <point x="374.8526315789474" y="234.14736842105262"/>
      <point x="330.82105263157894" y="233.32631578947368" type="curve"/>
      <point x="241.49473684210525" y="233.32631578947368" type="line"/>
      <point x="197.46315789473684" y="234.14736842105262"/>
      <point x="126.76842105263158" y="235.96842105263158"/>
      <point x="61.78947368421053" y="237.78947368421052" type="curve"/>
    </contour>
    <contour>
      <point x="61.78947368421053" y="363.7052631578947" type="line"/>
      <point x="126.76842105263158" y="365.5263157894737"/>
      <point x="197.46315789473684" y="367.34736842105264"/>
      <point x="241.49473684210525" y="368.1684210526316" type="curve"/>
      <point x="330.82105263157894" y="368.1684210526316" type="line"/>
      <point x="374.8526315789474" y="367.34736842105264"/>
      <point x="445.5473684210526" y="365.5263157894737"/>
      <point x="510.5263157894737" y="363.7052631578947" type="curve"/>
      <point x="510.5263157894737" y="468.3157894736842" type="line"/>
      <point x="445.5473684210526" y="466.4947368421052"/>
      <point x="374.8526315789474" y="464.6736842105263"/>
      <point x="330.82105263157894" y="463.85263157894735" type="curve"/>
      <point x="241.49473684210525" y="463.85263157894735" type="line"/>
      <point x="197.46315789473684" y="464.6736842105263"/>
      <point x="126.76842105263158" y="466.4947368421052"/>
      <point x="61.78947368421053" y="468.3157894736842" type="curve"/>
    </contour>
  </outline>
</glyph>
<glyph name="greater" format="2">
  <advance width="572.3157894736842"/>
  <unicode hex="003E"/>
  <outline>
    <contour>
      <point x="57.68421052631579" y="60.136842105263156" type="line"/>
      <point x="123.48421052631578" y="88.77894736842104"/>
      <point x="186.0" y="116.18947368421053"/>
      <point x="237.97894736842105" y="138.83157894736843" type="curve"/>
      <point x="335.5157894736842" y="178.90526315789475" type="line"/>
      <point x="389.2631578947369" y="199.0842105263158"/>
      <point x="450.2421052631579" y="222.26315789473685"/>
      <point x="514.6315789473684" y="246.44210526315788" type="curve"/>
      <point x="514.6315789473684" y="353.87368421052633" type="line"/>
      <point x="450.2421052631579" y="377.46315789473687"/>
      <point x="388.0842105263158" y="401.2315789473684"/>
      <point x="335.5157894736842" y="421.41052631578947" type="curve"/>
      <point x="237.97894736842105" y="461.4842105263158" type="line"/>
      <point x="184.82105263157897" y="484.7157894736842"/>
      <point x="122.30526315789473" y="512.1263157894737"/>
      <point x="57.68421052631579" y="540.178947368421" type="curve"/>
      <point x="57.68421052631579" y="427.2842105263158" type="line"/>
      <point x="123.54736842105262" y="402.3157894736842"/>
      <point x="194.1263157894737" y="374.9894736842105"/>
      <point x="261.1684210526316" y="349.4315789473684" type="curve"/>
      <point x="368.7684210526316" y="305.2105263157895" type="line"/>
      <point x="368.7684210526316" y="295.10526315789474" type="line"/>
      <point x="261.1684210526316" y="250.8842105263158" type="line"/>
      <point x="194.1263157894737" y="225.32631578947368"/>
      <point x="123.54736842105262" y="198.0"/>
      <point x="57.68421052631579" y="173.03157894736842" type="curve"/>
    </contour>
  </outline>
</glyph>
<glyph name="at" format="2">
  <advance width="886.0842105263158"/>
  <unicode hex="0040"/>
  <outline>
    <contour>
      <point x="474.10526315789474" y="-136.3684210526316" type="curve" smooth="yes"/>
      <point x="538.9263157894737" y="-136.3684210526316"/>
      <point x="664.6947368421054" y="-94.2421052631579"/>
      <point x="756.9263157894737" y="-66.1157894736842" type="curve"/>
      <point x="756.9263157894737" y="13.168421052631578" type="line"/>
      <point x="641.0" y="-30.88421052631579"/>
      <point x="518.5368421052632" y="-66.42105263157895"/>
      <point x="474.10526315789474" y="-68.83157894736843" type="curve"/>
      <point x="201.8842105263158" y="-65.01052631578948"/>
      <point x="79.63157894736842" y="117.82105263157895"/>
      <point x="126.27368421052631" y="335.05263157894734" type="curve" smooth="yes"/>
      <point x="165.34736842105264" y="517.9578947368421"/>
      <point x="291.0" y="612.0421052631579"/>
      <point x="469.10526315789474" y="615.8631578947368" type="curve"/>
      <point x="680.1473684210526" y="612.0421052631579"/>
      <point x="798.7578947368421" y="466.90526315789475"/>
      <point x="761.4" y="264.0105263157895" type="curve" smooth="yes"/>
      <point x="755.4526315789474" y="232.2736842105263"/>
      <point x="677.3894736842105" y="139.8"/>
      <point x="645.4421052631579" y="134.05263157894737" type="curve"/>
      <point x="598.8842105263159" y="137.46315789473684"/>
      <point x="581.4526315789474" y="168.5157894736842"/>
      <point x="593.2210526315789" y="225.7157894736842" type="curve"/>
      <point x="617.6" y="342.8421052631579" type="line"/>
      <point x="630.8842105263159" y="386.82105263157894"/>
      <point x="645.9368421052632" y="436.87368421052633"/>
      <point x="660.4000000000001" y="482.9263157894737" type="curve"/>
      <point x="571.7473684210527" y="477.87368421052633" type="line"/>
      <point x="555.5157894736842" y="425.38947368421054" type="line"/>
      <point x="547.2315789473683" y="425.38947368421054" type="line"/>
      <point x="512.6421052631579" y="457.6736842105263"/>
      <point x="460.0842105263158" y="488.5157894736842"/>
      <point x="423.70526315789476" y="488.5157894736842" type="curve" smooth="yes"/>
      <point x="330.5263157894737" y="488.5157894736842"/>
      <point x="261.86315789473684" y="412.53684210526313"/>
      <point x="239.9157894736842" y="305.7473684210526" type="curve" smooth="yes"/>
      <point x="214.50526315789475" y="182.41052631578947"/>
      <point x="265.4315789473684" y="70.53684210526316"/>
      <point x="380.6842105263158" y="70.53684210526316" type="curve" smooth="yes"/>
      <point x="408.93684210526317" y="70.53684210526316"/>
      <point x="459.9578947368421" y="99.66315789473684"/>
      <point x="506.1894736842105" y="136.78947368421052" type="curve"/>
      <point x="514.063157894737" y="136.78947368421052" type="line"/>
      <point x="528.4526315789474" y="97.8421052631579"/>
      <point x="570.0526315789474" y="61.357894736842105"/>
      <point x="651.2105263157894" y="61.357894736842105" type="curve" smooth="yes"/>
      <point x="690.7263157894737" y="61.357894736842105"/>
      <point x="817.578947368421" y="176.76842105263157"/>
      <point x="831.6315789473684" y="249.8" type="curve" smooth="yes"/>
      <point x="877.5052631578948" y="487.88421052631577"/>
      <point x="722.0631578947368" y="683.4"/>
      <point x="470.5157894736842" y="683.4" type="curve" smooth="yes"/>
      <point x="277.2315789473684" y="683.4"/>
      <point x="103.73684210526315" y="579.9368421052632"/>
      <point x="55.863157894736844" y="349.3157894736842" type="curve" smooth="yes"/>
      <point x="3.1157894736842096" y="97.14736842105263"/>
      <point x="156.37894736842105" y="-136.3684210526316"/>
    </contour>
    <contour>
      <point x="405.62105263157895" y="150.21052631578948" type="curve"/>
      <point x="337.4631578947368" y="152.21052631578948"/>
      <point x="311.13684210526316" y="214.2736842105263"/>
      <point x="327.1578947368421" y="290.8421052631579" type="curve" smooth="yes"/>
      <point x="341.2315789473684" y="357.2631578947368"/>
      <point x="380.2736842105263" y="404.61052631578946"/>
      <point x="444.17894736842106" y="407.0210526315789" type="curve"/>
      <point x="471.5052631578947" y="405.2"/>
      <point x="507.978947368421" y="385.28421052631575"/>
      <point x="533.6105263157895" y="363.36842105263156" type="curve"/>
      <point x="501.0526315789474" y="212.4736842105263" type="line"/>
      <point x="469.65263157894736" y="175.30526315789473"/>
      <point x="429.82105263157894" y="153.4421052631579"/>
    </contour>
  </outline>
</glyph>
<glyph name="A" format="2">
  <advance width="702.8947368421052"/>
  <unicode hex="0041"/>
  <anchor x="351.65263157894736" y="0.0" name="bottom"/>
  <anchor x="684.0315789473684" y="0.0" name="ogonek"/>
  <anchor x="351.65263157894736" y="713.0" name="top"/>
  <outline>
    <contour>
      <point x="16.63157894736842" y="0.0" type="curve"/>
      <point x="158.8" y="0.0" type="line"/>
      <point x="181.71578947368423" y="81.37894736842105"/>
      <point x="206.39999999999998" y="167.29473684210527"/>
      <point x="228.7263157894737" y="247.49473684210525" type="curve"/>
      <point x="346.9578947368421" y="608.4421052631579" type="line"/>
      <point x="357.06315789473683" y="608.4421052631579" type="line"/>
      <point x="474.29473684210524" y="244.0842105263158" type="line"/>
      <point x="495.4421052631579" y="167.8842105263158"/>
      <point x="519.9473684210527" y="79.14736842105263"/>
      <point x="542.2736842105263" y="0.0" type="curve"/>
      <point x="686.4947368421053" y="0.0" type="line"/>
      <point x="657.3157894736842" y="76.41052631578947"/>
      <point x="624.5473684210526" y="161.41052631578947"/>
      <point x="593.7789473684211" y="241.0" type="curve"/>
      <point x="509.2210526315789" y="486.58947368421053" type="line"/>
      <point x="483.37894736842105" y="572.7684210526315"/>
      <point x="463.3052631578948" y="640.3578947368421"/>
      <point x="441.821052631579" y="713.0" type="curve"/>
      <point x="264.66315789473686" y="713.0" type="line"/>
      <point x="242.58947368421056" y="639.1789473684211"/>
      <point x="222.69473684210524" y="573.9473684210526"/>
      <point x="196.26315789473682" y="486.58947368421053" type="curve"/>
      <point x="111.11578947368422" y="241.58947368421053" type="line"/>
      <point x="81.34736842105264" y="165.17894736842106"/>
      <point x="46.98947368421052" y="77.58947368421053"/>
    </contour>
    <contour>
      <point x="174.76842105263157" y="167.2842105263158" type="line"/>
      <point x="540.2105263157895" y="167.2842105263158" type="line"/>
      <point x="530.7684210526315" y="258.86315789473684" type="line"/>
      <point x="186.26315789473682" y="258.86315789473684" type="line"/>
    </contour>
  </outline>
</glyph>
<glyph name="C" format="2">
  <advance width="683.9473684210526"/>
  <unicode hex="0043"/>
  <anchor x="397.7157894736842" y="0.0" name="bottom"/>
  <anchor x="391.82105263157894" y="713.0" name="top"/>
  <outline>
    <contour>
      <point x="414.94736842105266" y="-11.873684210526315" type="curve" smooth="yes"/>
      <point x="458.84210526315786" y="-11.873684210526315"/>
      <point x="570.8000000000001" y="13.021052631578947"/>
      <point x="631.978947368421" y="33.5578947368421" type="curve"/>
      <point x="623.9263157894737" y="149.73684210526318" type="line"/>
      <point x="554.8526315789475" y="118.61052631578947"/>
      <point x="456.621052631579" y="88.86315789473684"/>
      <point x="427.7263157894737" y="88.86315789473684" type="curve"/>
      <point x="256.5473684210526" y="92.27368421052631"/>
      <point x="169.7684210526316" y="210.3578947368421"/>
      <point x="169.7684210526316" y="356.7684210526316" type="curve" smooth="yes"/>
      <point x="169.7684210526316" y="523.4631578947368"/>
      <point x="271.90526315789475" y="619.6210526315789"/>
      <point x="400.3578947368421" y="623.0315789473684" type="curve"/>
      <point x="424.66315789473686" y="623.0315789473684"/>
      <point x="529.5894736842105" y="594.3894736842105"/>
      <point x="626.8210526315789" y="559.1578947368422" type="curve"/>
      <point x="636.7473684210526" y="674.7473684210527" type="line"/>
      <point x="567.2526315789474" y="695.2105263157894"/>
      <point x="445.4842105263158" y="726.6421052631579"/>
      <point x="401.7684210526316" y="726.6421052631579" type="curve" smooth="yes"/>
      <point x="184.83157894736843" y="726.6421052631579"/>
      <point x="45.22105263157895" y="572.3052631578947"/>
      <point x="45.22105263157895" y="356.94736842105266" type="curve" smooth="yes"/>
      <point x="45.22105263157895" y="141.50526315789475"/>
      <point x="186.37894736842105" y="-11.873684210526315"/>
    </contour>
  </outline>
</glyph>
<glyph name="E" format="2">
  <advance width="596.3793103448276"/>
  <unicode hex="0045"/>
  <anchor x="312.82758620689657" y="0.0" name="bottom"/>
  <anchor x="540.551724137931" y="0.0" name="ogonek"/>
  <anchor x="312.82758620689657" y="713.0" name="top"/>
  <anchor x="37.0" y="713.0" name="topleft"/>
  <outline>
    <contour>
      <point x="76.62068965517241" y="0.0" type="curve"/>
      <point x="213.13793103448276" y="0.0" type="line"/>
      <point x="213.13793103448276" y="18.24137931034483" type="line"/>
      <point x="209.44827586206898" y="96.55172413793105"/>
      <point x="206.6551724137931" y="164.86206896551724"/>
      <point x="202.96551724137933" y="252.75862068965517" type="curve"/>
      <point x="202.96551724137933" y="456.7586206896552" type="line"/>
      <point x="206.6551724137931" y="546.448275862069"/>
      <point x="209.44827586206898" y="615.551724137931"/>
      <point x="213.13793103448276" y="694.7586206896551" type="curve"/>
      <point x="213.13793103448276" y="713.0" type="line"/>
      <point x="76.62068965517241" y="713.0" type="line"/>
      <point x="79.41379310344827" y="633.7931034482758"/>
      <point x="82.10344827586206" y="566.4827586206897"/>
      <point x="85.79310344827586" y="475.0" type="curve"/>
      <point x="85.79310344827586" y="234.41379310344828" type="line"/>
      <point x="82.10344827586206" y="145.6206896551724"/>
      <point x="79.41379310344827" y="77.41379310344827"/>
    </contour>
    <contour>
      <point x="188.89655172413794" y="0.0" type="line"/>
      <point x="543.2413793103448" y="0.0" type="line"/>
      <point x="543.2413793103448" y="111.20689655172414" type="line"/>
      <point x="473.4137931034483" y="107.51724137931035"/>
      <point x="399.48275862068965" y="104.62068965517241"/>
      <point x="315.44827586206895" y="100.93103448275862" type="curve"/>
      <point x="188.89655172413794" y="100.93103448275862" type="line"/>
    </contour>
    <contour>
      <point x="176.34482758620692" y="312.0344827586207" type="line"/>
      <point x="311.3793103448276" y="312.0344827586207" type="line"/>
      <point x="399.1034482758621" y="310.2413793103448"/>
      <point x="458.51724137931035" y="308.3448275862069"/>
      <point x="523.0344827586207" y="307.44827586206895" type="curve"/>
      <point x="523.0344827586207" y="415.9655172413793" type="line"/>
      <point x="461.62068965517244" y="414.06896551724134"/>
      <point x="402.0" y="412.17241379310343"/>
      <point x="311.48275862068965" y="409.37931034482756" type="curve"/>
      <point x="176.34482758620692" y="409.37931034482756" type="line"/>
    </contour>
    <contour>
      <point x="182.62068965517238" y="612.0689655172414" type="line"/>
      <point x="306.0689655172414" y="612.0689655172414" type="line"/>
      <point x="406.2068965517241" y="607.4827586206897"/>
      <point x="475.9310344827586" y="605.4827586206898"/>
      <point x="540.655172413793" y="601.7931034482759" type="curve"/>
      <point x="540.655172413793" y="713.0" type="line"/>
      <point x="182.62068965517238" y="713.0" type="line"/>
    </contour>
  </outline>
</glyph>
<glyph name="G" format="2">
  <advance width="730.8421052631579"/>
  <unicode hex="0047"/>
  <anchor x="397.7157894736842" y="0.0" name="bottom"/>
  <anchor x="397.7157894736842" y="713.0" name="top"/>
  <outline>
    <contour>
      <point x="426.9684210526316" y="-11.463157894736842" type="curve" smooth="yes"/>
      <point x="473.2210526315789" y="-11.463157894736842"/>
      <point x="606.1368421052631" y="9.842105263157896"/>
      <point x="672.3157894736843" y="25.968421052631577" type="curve"/>
      <point x="652.3578947368421" y="138.45263157894738" type="line"/>
      <point x="576.2315789473685" y="111.32631578947367"/>
      <point x="469.3578947368421" y="86.81052631578947"/>
      <point x="436.41052631578947" y="86.81052631578947" type="curve"/>
      <point x="252.0105263157895" y="90.22105263157894"/>
      <point x="168.94736842105263" y="206.94736842105263"/>
      <point x="168.94736842105263" y="356.94736842105266" type="curve" smooth="yes"/>
      <point x="168.94736842105263" y="525.4631578947368"/>
      <point x="273.77894736842103" y="620.0315789473684"/>
      <point x="403.89473684210526" y="623.0315789473684" type="curve"/>
      <point x="429.6105263157895" y="623.0315789473684"/>
      <point x="541.2315789473685" y="594.8"/>
      <point x="644.9263157894737" y="559.5684210526316" type="curve"/>
      <point x="654.8526315789474" y="673.5157894736843" type="line"/>
      <point x="580.8947368421052" y="694.8"/>
      <point x="451.25263157894733" y="726.6421052631579"/>
      <point x="404.7157894736842" y="726.6421052631579" type="curve" smooth="yes"/>
      <point x="185.57894736842104" y="726.6421052631579"/>
      <point x="45.22105263157895" y="573.6421052631579"/>
      <point x="45.22105263157895" y="357.3578947368421" type="curve" smooth="yes"/>
      <point x="45.22105263157895" y="145.61052631578949"/>
      <point x="180.43157894736842" y="-11.463157894736842"/>
    </contour>
    <contour>
      <point x="548.8736842105263" y="25.96842105263158" type="curve"/>
      <point x="672.3157894736843" y="25.968421052631577" type="line"/>
      <point x="670.0842105263158" y="97.25263157894737"/>
      <point x="668.4421052631579" y="148.76842105263157"/>
      <point x="666.621052631579" y="202.8736842105263" type="curve"/>
      <point x="670.0842105263158" y="266.15789473684214"/>
      <point x="672.5473684210526" y="311.4421052631579"/>
      <point x="675.6" y="362.13684210526316" type="curve"/>
      <point x="544.1789473684211" y="362.13684210526316" type="line"/>
      <point x="547.2315789473685" y="311.4421052631579"/>
      <point x="550.2842105263159" y="266.15789473684214"/>
      <point x="553.7473684210527" y="202.8736842105263" type="curve"/>
      <point x="551.9263157894737" y="148.76842105263157"/>
      <point x="551.1052631578947" y="98.07368421052632"/>
    </contour>
  </outline>
</glyph>
<glyph name="J" format="2">
  <advance width="306.30526315789473"/>
  <unicode hex="004A"/>
  <anchor x="156.13684210526316" y="0.0" name="bottom"/>
  <anchor x="156.13684210526316" y="713.0" name="top"/>
  <outline>
    <contour>
      <point x="23.378947368421052" y="-156.7157894736842" type="curve"/>
      <point x="134.8105263157895" y="-156.7157894736842" type="line"/>
      <point x="162.86315789473682" y="-106.76842105263158"/>
      <point x="224.22105263157894" y="12.43157894736842"/>
      <point x="224.22105263157894" y="53.06315789473683" type="curve" smooth="yes"/>
      <point x="224.22105263157894" y="135.81052631578947"/>
      <point x="217.88421052631577" y="222.78947368421052"/>
      <point x="217.88421052631577" y="309.2315789473684" type="curve"/>
      <point x="217.88421052631577" y="474.58947368421053" type="line"/>
      <point x="221.16842105263157" y="566.1052631578948"/>
      <point x="223.2210526315789" y="633.6421052631579"/>
      <point x="227.45263157894735" y="713.0" type="curve"/>
      <point x="89.05263157894737" y="713.0" type="line"/>
      <point x="92.69473684210527" y="633.6421052631579"/>
      <point x="94.74736842105263" y="566.1052631578948"/>
      <point x="98.03157894736842" y="474.58947368421053" type="curve"/>
      <point x="98.03157894736842" y="290.9578947368421" type="line"/>
      <point x="95.21052631578948" y="50.34736842105263" type="line"/>
      <point x="69.42105263157893" y="-23.989473684210527"/>
      <point x="46.4" y="-90.55789473684212"/>
    </contour>
  </outline>
</glyph>
<glyph name="K" format="2">
  <advance width="682.7157894736843"/>
  <unicode hex="004B"/>
  <anchor x="350.06315789473683" y="0.0" name="bottom"/>
  <anchor x="350.06315789473683" y="713.0" name="top"/>
  <outline>
    <contour>
      <point x="501.4736842105263" y="0.0" type="curve"/>
      <point x="668.5473684210526" y="0.0" type="line"/>
      <point x="610.9894736842106" y="63.92631578947368"/>
      <point x="520.3578947368421" y="165.54736842105262"/>
      <point x="452.85263157894735" y="241.29473684210527" type="curve"/>
      <point x="311.9473684210526" y="407.66315789473686" type="line"/>
      <point x="313.99999999999994" y="355.0736842105263" type="line"/>
      <point x="440.1894736842105" y="492.94736842105266" type="line"/>
      <point x="509.1052631578947" y="565.5894736842105"/>
      <point x="577.7894736842104" y="637.0"/>
      <point x="651.0631578947368" y="713.0" type="curve"/>
      <point x="489.9157894736842" y="713.0" type="line"/>
      <point x="429.83157894736837" y="642.0315789473685"/>
      <point x="388.12631578947367" y="591.9578947368421"/>
      <point x="341.06315789473683" y="535.2947368421053" type="curve"/>
      <point x="234.70526315789473" y="417.4842105263158" type="line"/>
      <point x="193.93684210526317" y="417.4842105263158" type="line"/>
      <point x="193.93684210526317" y="321.62105263157895" type="line"/>
      <point x="235.7578947368421" y="321.62105263157895" type="line"/>
      <point x="357.2631578947368" y="179.57894736842104" type="line"/>
      <point x="401.9157894736842" y="124.09473684210526"/>
      <point x="447.1578947368421" y="67.43157894736844"/>
    </contour>
    <contour>
      <point x="76.8" y="0.0" type="curve"/>
      <point x="214.78947368421052" y="0.0" type="line"/>
      <point x="211.73684210526315" y="78.12631578947368"/>
      <point x="208.68421052631578" y="145.66315789473686"/>
      <point x="205.22105263157894" y="234.30526315789473" type="curve"/>
      <point x="205.22105263157894" y="474.58947368421053" type="line"/>
      <point x="209.09473684210525" y="566.1052631578948"/>
      <point x="211.73684210526315" y="633.6421052631579"/>
      <point x="214.78947368421052" y="713.0" type="curve"/>
      <point x="76.8" y="713.0" type="line"/>
      <point x="79.85263157894737" y="633.6421052631579"/>
      <point x="81.90526315789474" y="566.1052631578948"/>
      <point x="85.77894736842106" y="474.58947368421053" type="curve"/>
      <point x="85.77894736842106" y="234.30526315789473" type="line"/>
      <point x="82.31578947368422" y="145.2526315789474"/>
      <point x="79.85263157894737" y="77.71578947368421"/>
    </contour>
  </outline>
</glyph>
<glyph name="L" format="2">
  <advance width="571.3368421052631"/>
  <unicode hex="004C"/>
  <anchor x="310.37894736842105" y="0.0" name="bottom"/>
  <anchor x="429.65263157894736" y="358.2315789473684" name="center"/>
  <anchor x="212.78947368421052" y="713.0" name="top"/>
  <anchor x="291.8105263157895" y="497.2842105263158" name="topright"/>
  <outline>
    <contour>
      <point x="76.8" y="0.0" type="curve"/>
      <point x="215.2" y="0.0" type="line"/>
      <point x="215.2" y="18.189473684210526" type="line"/>
      <point x="212.14736842105262" y="96.3157894736842"/>
      <point x="209.09473684210525" y="163.85263157894735"/>
      <point x="205.6315789473684" y="252.49473684210525" type="curve"/>
      <point x="205.6315789473684" y="474.58947368421053" type="line"/>
      <point x="209.50526315789472" y="566.1052631578948"/>
      <point x="212.14736842105262" y="633.6421052631579"/>
      <point x="215.2" y="713.0" type="curve"/>
      <point x="76.8" y="713.0" type="line"/>
      <point x="79.85263157894737" y="633.6421052631579"/>
      <point x="81.90526315789474" y="566.1052631578948"/>
      <point x="85.77894736842106" y="474.58947368421053" type="curve"/>
      <point x="85.77894736842106" y="234.30526315789473" type="line"/>
      <point x="82.31578947368422" y="145.2526315789474"/>
      <point x="79.85263157894737" y="77.71578947368421"/>
    </contour>
    <contour>
      <point x="188.95789473684212" y="0.0" type="line"/>
      <point x="539.0842105263158" y="0.0" type="line"/>
      <point x="539.0842105263158" y="117.92631578947369" type="line"/>
      <point x="463.7052631578947" y="114.05263157894738"/>
      <point x="400.09473684210525" y="111.0"/>
      <point x="290.6421052631579" y="105.30526315789474" type="curve"/>
      <point x="188.95789473684212" y="105.30526315789474" type="line"/>
    </contour>
  </outline>
</glyph>
<glyph name="M" format="2">
  <advance width="958.6210526315789"/>
  <unicode hex="004D"/>
  <anchor x="479.10526315789474" y="0.0" name="bottom"/>
  <anchor x="479.10526315789474" y="713.0" name="top"/>
  <outline>
    <contour>
      <point x="50.95789473684211" y="0.0" type="curve"/>
      <point x="184.37894736842105" y="0.0" type="line"/>
      <point x="193.98947368421054" y="116.97894736842105"/>
      <point x="202.42105263157893" y="221.06315789473683"/>
      <point x="209.6736842105263" y="311.8421052631579" type="curve"/>
      <point x="233.5157894736842" y="507.7052631578947" type="line"/>
      <point x="241.85263157894735" y="507.7052631578947" type="line"/>
      <point x="325.7052631578947" y="295.58947368421053" type="line"/>
      <point x="361.6947368421052" y="195.86315789473684"/>
      <point x="401.8105263157895" y="84.70526315789473"/>
      <point x="432.08421052631576" y="0.0" type="curve"/>
      <point x="531.2315789473685" y="0.0" type="line"/>
      <point x="562.0421052631579" y="89.42105263157895"/>
      <point x="598.978947368421" y="194.09473684210525"/>
      <point x="634.9157894736842" y="296.7684210526316" type="curve"/>
      <point x="714.2526315789473" y="507.7052631578947" type="line"/>
      <point x="722.5894736842105" y="507.7052631578947" type="line"/>
      <point x="746.4315789473684" y="311.8421052631579" type="line"/>
      <point x="753.6842105263157" y="220.4736842105263"/>
      <point x="762.5263157894738" y="114.8"/>
      <point x="771.5473684210526" y="0.0" type="curve"/>
      <point x="907.6631578947369" y="0.0" type="line"/>
      <point x="895.6105263157895" y="77.71578947368421"/>
      <point x="883.5578947368422" y="147.89473684210526"/>
      <point x="869.6842105263157" y="234.30526315789473" type="curve"/>
      <point x="840.0421052631579" y="472.58947368421053" type="line"/>
      <point x="831.6842105263157" y="559.7684210526315"/>
      <point x="824.9157894736842" y="633.2315789473683"/>
      <point x="817.5578947368422" y="713.0" type="curve"/>
      <point x="679.6210526315789" y="713.0" type="line"/>
      <point x="646.578947368421" y="618.3473684210526"/>
      <point x="616.3578947368421" y="533.2105263157896"/>
      <point x="585.9052631578948" y="448.61052631578946" type="curve"/>
      <point x="485.8" y="195.4" type="line"/>
      <point x="477.2842105263158" y="195.4" type="line"/>
      <point x="375.12631578947367" y="448.61052631578946" type="line"/>
      <point x="344.2631578947368" y="533.8000000000001"/>
      <point x="313.22105263157897" y="618.7578947368421"/>
      <point x="279.7684210526316" y="713.0" type="curve"/>
      <point x="139.18947368421053" y="713.0" type="line"/>
      <point x="131.83157894736843" y="631.6421052631579"/>
      <point x="125.4736842105263" y="556.8210526315789"/>
      <point x="118.11578947368422" y="472.58947368421053" type="curve"/>
      <point x="88.70526315789475" y="234.30526315789473" type="line"/>
      <point x="74.65263157894738" y="148.12631578947367"/>
      <point x="63.18947368421053" y="76.89473684210526"/>
    </contour>
  </outline>
</glyph>
<glyph name="N" format="2">
  <advance width="757.1789473684211"/>
  <unicode hex="004E"/>
  <anchor x="379.0" y="0.0" name="bottom"/>
  <anchor x="379.0" y="713.0" name="top"/>
  <outline>
    <contour>
      <point x="76.8" y="0.0" type="curve"/>
      <point x="208.22105263157894" y="0.0" type="line"/>
      <point x="205.16842105263157" y="78.12631578947368"/>
      <point x="202.1157894736842" y="145.66315789473686"/>
      <point x="198.65263157894736" y="234.30526315789473" type="curve"/>
      <point x="198.65263157894736" y="510.90526315789475" type="line"/>
      <point x="207.57894736842107" y="510.90526315789475" type="line"/>
      <point x="348.24210526315784" y="310.61052631578946" type="line"/>
      <point x="428.6842105263158" y="190.50526315789472"/>
      <point x="493.87368421052633" y="93.01052631578946"/>
      <point x="555.9368421052632" y="0.0" type="curve"/>
      <point x="680.378947368421" y="0.0" type="line"/>
      <point x="677.3263157894737" y="78.12631578947368"/>
      <point x="674.2736842105263" y="145.66315789473686"/>
      <point x="670.8105263157895" y="234.30526315789473" type="curve"/>
      <point x="670.8105263157895" y="474.58947368421053" type="line"/>
      <point x="674.6842105263158" y="566.1052631578948"/>
      <point x="677.3263157894737" y="633.6421052631579"/>
      <point x="680.378947368421" y="713.0" type="curve"/>
      <point x="548.957894736842" y="713.0" type="line"/>
      <point x="552.0105263157894" y="633.6421052631579"/>
      <point x="554.0631578947368" y="566.1052631578948"/>
      <point x="557.9368421052632" y="474.58947368421053" type="curve"/>
      <point x="557.9368421052632" y="204.45263157894738" type="line"/>
      <point x="548.6" y="204.45263157894738" type="line"/>
      <point x="409.1684210526316" y="403.1578947368421" type="line"/>
      <point x="344.2105263157895" y="501.4210526315789"/>
      <point x="277.66315789473686" y="602.0947368421052"/>
      <point x="205.11578947368423" y="713.0" type="curve"/>
      <point x="76.8" y="713.0" type="line"/>
      <point x="79.85263157894737" y="633.6421052631579"/>
      <point x="81.90526315789474" y="566.1052631578948"/>
      <point x="85.77894736842106" y="474.58947368421053" type="curve"/>
      <point x="85.77894736842106" y="234.30526315789473" type="line"/>
      <point x="82.31578947368422" y="145.2526315789474"/>
      <point x="79.85263157894737" y="77.71578947368421"/>
    </contour>
  </outline>
</glyph>
<glyph name="O" format="2">
  <advance width="815.7157894736843"/>
  <unicode hex="004F"/>
  <anchor x="407.7684210526316" y="0.0" name="bottom"/>
  <anchor x="407.7684210526316" y="357.0" name="center"/>
  <anchor x="508.36842105263156" y="0.0" name="ogonek"/>
  <anchor x="407.7684210526316" y="713.0" name="top"/>
  <anchor x="25.768421052631577" y="713.0" name="topleft"/>
  <anchor x="711.3263157894737" y="713.0" name="topright"/>
  <outline>
    <contour>
      <point x="411.3578947368421" y="-11.873684210526315" type="curve" smooth="yes"/>
      <point x="639.7789473684211" y="-11.873684210526315"/>
      <point x="770.4947368421052" y="145.53684210526316"/>
      <point x="770.4947368421052" y="357.17894736842106" type="curve" smooth="yes"/>
      <point x="770.4947368421052" y="562.0"/>
      <point x="646.1894736842105" y="726.6421052631579"/>
      <point x="407.7157894736842" y="726.6421052631579" type="curve" smooth="yes"/>
      <point x="172.83157894736843" y="726.6421052631579"/>
      <point x="45.22105263157895" y="564.1789473684211"/>
      <point x="45.22105263157895" y="356.7684210526316" type="curve" smooth="yes"/>
      <point x="45.22105263157895" y="159.23157894736843"/>
      <point x="162.8842105263158" y="-11.873684210526315"/>
    </contour>
    <contour>
      <point x="408.94736842105266" y="88.86315789473684" type="curve"/>
      <point x="244.18947368421053" y="94.50526315789475"/>
      <point x="169.7684210526316" y="212.8421052631579"/>
      <point x="169.7684210526316" y="357.17894736842106" type="curve" smooth="yes"/>
      <point x="169.7684210526316" y="502.15789473684214"/>
      <point x="247.77894736842106" y="620.2631578947369"/>
      <point x="408.94736842105266" y="625.9052631578948" type="curve"/>
      <point x="564.7578947368421" y="620.2631578947369"/>
      <point x="645.9473684210526" y="509.23157894736846"/>
      <point x="645.9473684210526" y="357.17894736842106" type="curve" smooth="yes"/>
      <point x="645.9473684210526" y="215.2"/>
      <point x="573.2947368421053" y="94.50526315789475"/>
    </contour>
  </outline>
</glyph>
<glyph name="P" format="2">
  <advance width="637.7931034482758"/>
  <unicode hex="0050"/>
  <outline>
    <contour>
      <point x="342.62068965517244" y="268.7586206896552" type="curve"/>
      <point x="534.1724137931034" y="268.7586206896552"/>
      <point x="600.3448275862069" y="366.2413793103448"/>
      <point x="600.3448275862069" y="500.7931034482759" type="curve" smooth="yes"/>
      <point x="600.3448275862069" y="652.3793103448276"/>
      <point x="517.7931034482758" y="716.6896551724138"/>
      <point x="351.2413793103448" y="716.6896551724138" type="curve"/>
      <point x="234.51724137931032" y="716.5862068965517"/>
      <point x="141.3793103448276" y="713.0"/>
      <point x="76.62068965517241" y="713.0" type="curve"/>
      <point x="191.0689655172414" y="615.6551724137931" type="line"/>
      <point x="342.9655172413793" y="615.6551724137931" type="line" smooth="yes"/>
      <point x="404.2413793103448" y="615.6551724137931"/>
      <point x="478.58620689655174" y="602.1724137931035"/>
      <point x="478.58620689655174" y="499.8965517241379" type="curve" smooth="yes"/>
      <point x="478.58620689655174" y="406.44827586206895"/>
      <point x="430.0" y="367.8965517241379"/>
      <point x="317.4137931034483" y="367.8965517241379" type="curve" smooth="yes"/>
      <point x="188.1034482758621" y="367.8965517241379" type="line"/>
      <point x="188.1034482758621" y="270.6551724137931" type="line"/>
      <point x="226.31034482758622" y="270.6551724137931"/>
      <point x="293.4137931034483" y="268.7586206896552"/>
    </contour>
    <contour>
      <point x="76.62068965517241" y="0.0" type="curve"/>
      <point x="213.13793103448276" y="0.0" type="line"/>
      <point x="210.3448275862069" y="78.3103448275862"/>
      <point x="206.65517241379314" y="145.6206896551724"/>
      <point x="203.86206896551727" y="234.41379310344828" type="curve"/>
      <point x="203.86206896551727" y="456.7586206896552" type="line"/>
      <point x="206.65517241379314" y="546.448275862069"/>
      <point x="210.3448275862069" y="615.551724137931"/>
      <point x="213.13793103448276" y="694.7586206896551" type="curve"/>
      <point x="76.62068965517241" y="713.0" type="line"/>
      <point x="79.41379310344827" y="633.7931034482758"/>
      <point x="82.10344827586206" y="566.4827586206897"/>
      <point x="85.79310344827586" y="475.0" type="curve"/>
      <point x="85.79310344827586" y="234.41379310344828" type="line"/>
      <point x="82.10344827586206" y="145.6206896551724"/>
      <point x="79.41379310344827" y="77.41379310344827"/>
    </contour>
  </outline>
</glyph>
<glyph name="R" format="2">
  <advance width="683.0"/>
  <unicode hex="0052"/>
  <anchor x="342.44827586206895" y="0.0" name="bottom"/>
  <anchor x="340.48275862068965" y="713.0" name="top"/>
  <outline>
    <contour>
      <point x="507.1379310344828" y="0.0" type="curve"/>
      <point x="664.7241379310345" y="0.0" type="line"/>
      <point x="619.0" y="57.0"/>
      <point x="553.0689655172413" y="140.68965517241378"/>
      <point x="501.3448275862069" y="205.48275862068965" type="curve"/>
      <point x="395.17241379310343" y="347.2758620689655" type="line"/>
      <point x="352.93103448275866" y="297.0" type="line"/>
      <point x="529.9655172413793" y="298.0"/>
      <point x="593.9310344827586" y="395.6896551724138"/>
      <point x="593.9310344827586" y="514.7586206896551" type="curve" smooth="yes"/>
      <point x="593.9310344827586" y="660.5862068965517"/>
      <point x="507.7931034482759" y="716.6896551724138"/>
      <point x="340.34482758620686" y="716.6896551724138" type="curve"/>
      <point x="239.75862068965517" y="715.7931034482759"/>
      <point x="144.96551724137933" y="713.8965517241379"/>
      <point x="76.62068965517241" y="713.0" type="curve"/>
      <point x="165.0689655172414" y="615.6551724137931" type="line"/>
      <point x="335.65517241379314" y="615.6551724137931" type="line" smooth="yes"/>
      <point x="396.9310344827586" y="615.6551724137931"/>
      <point x="471.2758620689655" y="604.7931034482758"/>
      <point x="471.2758620689655" y="501.3103448275862" type="curve" smooth="yes"/>
      <point x="471.2758620689655" y="404.7931034482759"/>
      <point x="418.2068965517241" y="370.7241379310345"/>
      <point x="311.0" y="370.7241379310345" type="curve" smooth="yes"/>
      <point x="181.82758620689657" y="370.7241379310345" type="line"/>
      <point x="181.82758620689657" y="273.48275862068965" type="line"/>
      <point x="346.51724137931035" y="273.48275862068965" type="line"/>
      <point x="274.3103448275862" y="335.48275862068965" type="line"/>
      <point x="399.44827586206895" y="163.86206896551724" type="line"/>
      <point x="433.5172413793103" y="111.93103448275862"/>
      <point x="469.2758620689655" y="58.413793103448285"/>
    </contour>
    <contour>
      <point x="76.62068965517241" y="0.0" type="curve"/>
      <point x="213.13793103448276" y="0.0" type="line"/>
      <point x="210.3448275862069" y="78.3103448275862"/>
      <point x="206.6551724137931" y="145.6206896551724"/>
      <point x="203.86206896551724" y="234.41379310344828" type="curve"/>
      <point x="203.86206896551724" y="456.7586206896552" type="line"/>
      <point x="206.6551724137931" y="546.448275862069"/>
      <point x="210.3448275862069" y="615.551724137931"/>
      <point x="213.13793103448276" y="694.7586206896551" type="curve"/>
      <point x="76.62068965517241" y="713.0" type="line"/>
      <point x="79.41379310344827" y="633.7931034482758"/>
      <point x="82.10344827586206" y="566.4827586206897"/>
      <point x="85.79310344827586" y="475.0" type="curve"/>
      <point x="85.79310344827586" y="234.41379310344828" type="line"/>
      <point x="82.10344827586206" y="145.6206896551724"/>
      <point x="79.41379310344827" y="77.41379310344827"/>
    </contour>
  </outline>
</glyph>
<glyph name="S" format="2">
  <advance width="592.0344827586207"/>
  <unicode hex="0053"/>
  <anchor x="299.2758620689655" y="0.0" name="bottom"/>
  <anchor x="299.2758620689655" y="713.0" name="top"/>
  <outline>
    <contour>
      <point x="298.41379310344826" y="-11.689655172413794" type="curve" smooth="yes"/>
      <point x="477.7241379310345" y="-11.689655172413794"/>
      <point x="555.6896551724138" y="75.51724137931035"/>
      <point x="555.6896551724138" y="197.55172413793105" type="curve" smooth="yes"/>
      <point x="555.6896551724138" y="310.2758620689655"/>
      <point x="500.7931034482759" y="358.2758620689655"/>
      <point x="329.6896551724138" y="411.6896551724138" type="curve" smooth="yes"/>
      <point x="221.75862068965517" y="445.2413793103448"/>
      <point x="175.20689655172413" y="470.9655172413793"/>
      <point x="175.20689655172413" y="530.6551724137931" type="curve" smooth="yes"/>
      <point x="175.20689655172413" y="595.2068965517242"/>
      <point x="233.41379310344826" y="623.6551724137931"/>
      <point x="301.7241379310345" y="625.6551724137931" type="curve"/>
      <point x="322.9310344827586" y="625.6551724137931"/>
      <point x="416.51724137931035" y="599.551724137931"/>
      <point x="502.8965517241379" y="569.448275862069" type="curve"/>
      <point x="512.3793103448276" y="681.8620689655172" type="line"/>
      <point x="449.7241379310345" y="697.9655172413793"/>
      <point x="337.44827586206895" y="726.7931034482758"/>
      <point x="289.48275862068965" y="726.7931034482758" type="curve" smooth="yes"/>
      <point x="129.6551724137931" y="726.7931034482758"/>
      <point x="48.96551724137931" y="642.3103448275862"/>
      <point x="48.96551724137931" y="525.2758620689655" type="curve" smooth="yes"/>
      <point x="48.96551724137931" y="405.44827586206895"/>
      <point x="126.27586206896552" y="358.7586206896552"/>
      <point x="260.1034482758621" y="318.1379310344828" type="curve" smooth="yes"/>
      <point x="367.1034482758621" y="285.8965517241379"/>
      <point x="430.3448275862069" y="258.0689655172414"/>
      <point x="430.3448275862069" y="190.3793103448276" type="curve" smooth="yes"/>
      <point x="430.3448275862069" y="118.89655172413794"/>
      <point x="371.2413793103449" y="90.55172413793103"/>
      <point x="297.51724137931035" y="88.55172413793103" type="curve"/>
      <point x="259.9655172413793" y="88.55172413793103"/>
      <point x="167.51724137931035" y="112.55172413793105"/>
      <point x="69.24137931034483" y="143.55172413793105" type="curve"/>
      <point x="59.6551724137931" y="30.344827586206897" type="line"/>
      <point x="146.24137931034483" y="8.827586206896552"/>
      <point x="248.31034482758622" y="-11.689655172413794"/>
    </contour>
  </outline>
</glyph>
<glyph name="T" format="2">
  <advance width="642.7473684210527"/>
  <unicode hex="0054"/>
  <anchor x="321.87368421052633" y="0.0" name="bottom"/>
  <anchor x="321.87368421052633" y="333.1894736842105" name="center"/>
  <anchor x="321.87368421052633" y="713.0" name="top"/>
  <outline>
    <contour>
      <point x="252.96842105263156" y="0.0" type="curve"/>
      <point x="390.95789473684215" y="0.0" type="line"/>
      <point x="387.90526315789475" y="78.12631578947368"/>
      <point x="384.8526315789474" y="145.66315789473686"/>
      <point x="381.38947368421054" y="234.30526315789473" type="curve"/>
      <point x="381.38947368421054" y="456.4" type="line"/>
      <point x="384.8526315789474" y="546.6842105263158"/>
      <point x="387.90526315789475" y="615.4526315789474"/>
      <point x="390.95789473684215" y="694.8105263157895" type="curve"/>
      <point x="390.95789473684215" y="713.0" type="line"/>
      <point x="252.37894736842102" y="713.0" type="line"/>
      <point x="252.37894736842102" y="694.8105263157895" type="line"/>
      <point x="255.43157894736842" y="615.4526315789474"/>
      <point x="258.48421052631574" y="546.6842105263158"/>
      <point x="261.9473684210526" y="456.4" type="curve"/>
      <point x="261.9473684210526" y="234.30526315789473" type="line"/>
      <point x="258.48421052631574" y="145.2526315789474"/>
      <point x="256.02105263157887" y="77.71578947368421"/>
    </contour>
    <contour>
      <point x="28.842105263157894" y="595.0736842105264" type="line"/>
      <point x="83.32631578947368" y="598.5368421052632"/>
      <point x="140.81052631578947" y="603.0"/>
      <point x="219.65263157894736" y="607.6947368421053" type="curve"/>
      <point x="281.7263157894737" y="607.6947368421053" type="line"/>
      <point x="281.7263157894737" y="713.0" type="line"/>
      <point x="28.842105263157894" y="713.0" type="line"/>
    </contour>
    <contour>
      <point x="361.0210526315789" y="607.6947368421053" type="line"/>
      <point x="423.09473684210525" y="607.6947368421053" type="line"/>
      <point x="501.93684210526317" y="603.0"/>
      <point x="559.421052631579" y="598.5368421052632"/>
      <point x="613.9052631578948" y="595.0736842105264" type="curve"/>
      <point x="613.9052631578948" y="713.0" type="line"/>
      <point x="361.0210526315789" y="713.0" type="line"/>
    </contour>
  </outline>
</glyph>
<glyph name="U" format="2">
  <advance width="729.5368421052632"/>
  <unicode hex="0055"/>
  <anchor x="365.7684210526316" y="0.0" name="bottom"/>
  <anchor x="465.8315789473684" y="0.0" name="ogonek"/>
  <anchor x="365.7684210526316" y="713.0" name="top"/>
  <anchor x="700.0842105263158" y="713.0" name="topright"/>
  <outline>
    <contour>
      <point x="365.58947368421053" y="-11.873684210526315" type="curve" smooth="yes"/>
      <point x="565.9578947368421" y="-11.873684210526315"/>
      <point x="656.1684210526315" y="92.19999999999999"/>
      <point x="656.1684210526315" y="268.2631578947368" type="curve" smooth="yes"/>
      <point x="656.1684210526315" y="307.33684210526314"/>
      <point x="653.5263157894736" y="393.7473684210526"/>
      <point x="653.5263157894736" y="474.58947368421053" type="curve"/>
      <point x="657.4" y="566.1052631578948"/>
      <point x="660.0421052631579" y="633.6421052631579"/>
      <point x="663.0947368421052" y="713.0" type="curve"/>
      <point x="525.1052631578948" y="713.0" type="line"/>
      <point x="528.1578947368421" y="633.6421052631579"/>
      <point x="530.2105263157895" y="566.1052631578948"/>
      <point x="534.0842105263158" y="474.58947368421053" type="curve"/>
      <point x="534.0842105263158" y="278.2631578947368" type="line" smooth="yes"/>
      <point x="534.0842105263158" y="155.69473684210527"/>
      <point x="490.09473684210525" y="91.50526315789475"/>
      <point x="365.17894736842106" y="88.86315789473684" type="curve"/>
      <point x="241.90526315789472" y="91.50526315789475"/>
      <point x="194.86315789473684" y="156.2842105263158"/>
      <point x="194.86315789473684" y="277.6736842105263" type="curve" smooth="yes"/>
      <point x="194.86315789473684" y="474.58947368421053" type="line"/>
      <point x="198.73684210526315" y="566.1052631578948"/>
      <point x="201.37894736842105" y="633.6421052631579"/>
      <point x="204.43157894736842" y="713.0" type="curve"/>
      <point x="66.4421052631579" y="713.0" type="line"/>
      <point x="69.49473684210525" y="633.6421052631579"/>
      <point x="71.54736842105262" y="566.1052631578948"/>
      <point x="75.42105263157895" y="474.58947368421053" type="curve"/>
      <point x="75.42105263157895" y="393.7473684210526"/>
      <point x="72.77894736842104" y="308.9789473684211"/>
      <point x="72.77894736842104" y="268.6736842105263" type="curve" smooth="yes"/>
      <point x="72.77894736842104" y="94.66315789473684"/>
      <point x="158.83157894736843" y="-11.873684210526315"/>
    </contour>
  </outline>
</glyph>
<glyph name="V" format="2">
  <advance width="697.5578947368421"/>
  <unicode hex="0056"/>
  <anchor x="349.36842105263156" y="0.0" name="bottom"/>
  <anchor x="349.36842105263156" y="713.0" name="top"/>
  <outline>
    <contour>
      <point x="259.9157894736842" y="0.0" type="curve"/>
      <point x="437.9473684210526" y="0.0" type="line"/>
      <point x="460.2" y="73.58947368421053"/>
      <point x="485.04210526315785" y="155.58947368421056"/>
      <point x="506.11578947368423" y="225.41052631578947" type="curve"/>
      <point x="582.0315789473684" y="450.0" type="line"/>
      <point x="611.3894736842105" y="526.1789473684211"/>
      <point x="649.5684210526316" y="626.4105263157894"/>
      <point x="682.9263157894736" y="713.0" type="curve"/>
      <point x="531.4947368421052" y="713.0" type="line"/>
      <point x="502.6842105263158" y="613.0105263157895"/>
      <point x="471.6947368421052" y="500.5578947368421"/>
      <point x="443.4736842105263" y="402.5684210526316" type="curve"/>
      <point x="354.1894736842105" y="122.62105263157895" type="line"/>
      <point x="344.08421052631576" y="122.62105263157895" type="line"/>
      <point x="256.6736842105263" y="401.5684210526316" type="line"/>
      <point x="228.86315789473684" y="498.7894736842105"/>
      <point x="195.5157894736842" y="614.957894736842"/>
      <point x="167.29473684210524" y="713.0" type="curve"/>
      <point x="13.631578947368421" y="713.0" type="line"/>
      <point x="47.4" y="625.3578947368421"/>
      <point x="85.93684210526317" y="525.5894736842106"/>
      <point x="115.29473684210527" y="450.0" type="curve"/>
      <point x="191.56842105263158" y="226.0" type="line"/>
      <point x="212.2315789473684" y="157.58947368421053"/>
      <point x="239.25263157894736" y="69.82105263157894"/>
    </contour>
  </outline>
</glyph>
<glyph name="W" format="2">
  <advance width="1030.6105263157895"/>
  <unicode hex="0057"/>
  <anchor x="512.5473684210526" y="0.0" name="bottom"/>
  <anchor x="512.5473684210526" y="713.0" name="top"/>
  <outline>
    <contour>
      <point x="215.21052631578948" y="0.0" type="curve"/>
      <point x="375.4315789473684" y="0.0" type="line"/>
      <point x="394.75789473684205" y="88.29473684210527"/>
      <point x="419.2105263157895" y="196.61052631578946"/>
      <point x="439.12631578947367" y="285.2631578947368" type="curve"/>
      <point x="504.62105263157895" y="543.0947368421052" type="line"/>
      <point x="514.7263157894737" y="543.0947368421052" type="line"/>
      <point x="581.6315789473684" y="285.6736842105263" type="line"/>
      <point x="601.5473684210526" y="197.02105263157893"/>
      <point x="626.4105263157895" y="90.06315789473685"/>
      <point x="646.3263157894737" y="0.0" type="curve"/>
      <point x="813.9368421052632" y="0.0" type="line"/>
      <point x="830.0631578947368" y="67.82105263157894"/>
      <point x="850.9578947368421" y="154.0"/>
      <point x="868.6736842105263" y="225.58947368421053" type="curve"/>
      <point x="932.3368421052631" y="450.0" type="line"/>
      <point x="957.3368421052631" y="527.3578947368421"/>
      <point x="989.978947368421" y="626.4105263157895"/>
      <point x="1018.8" y="713.0" type="curve"/>
      <point x="864.9052631578948" y="713.0" type="line"/>
      <point x="843.8105263157895" y="618.2421052631579"/>
      <point x="819.1789473684211" y="505.94736842105266"/>
      <point x="798.4947368421052" y="413.0105263157895" type="curve"/>
      <point x="732.1052631578947" y="141.68421052631578" type="line"/>
      <point x="722.0" y="141.68421052631578" type="line"/>
      <point x="655.0947368421052" y="412.0105263157895" type="line"/>
      <point x="634.0" y="507.1263157894737"/>
      <point x="610.3157894736843" y="617.063157894737"/>
      <point x="589.221052631579" y="713.0" type="curve"/>
      <point x="439.8" y="713.0" type="line"/>
      <point x="419.4736842105263" y="618.4210526315788"/>
      <point x="395.021052631579" y="504.7684210526316"/>
      <point x="375.10526315789474" y="413.0105263157895" type="curve"/>
      <point x="309.61052631578946" y="141.68421052631578" type="line"/>
      <point x="299.5052631578947" y="141.68421052631578" type="line"/>
      <point x="233.70526315789473" y="410.8315789473684" type="line"/>
      <point x="212.43157894736842" y="506.5368421052632"/>
      <point x="187.97894736842105" y="616.8842105263159"/>
      <point x="166.70526315789476" y="713.0" type="curve"/>
      <point x="12.399999999999999" y="713.0" type="line"/>
      <point x="40.63157894736841" y="626.7684210526315"/>
      <point x="73.63157894736842" y="525.9999999999999"/>
      <point x="98.63157894736842" y="448.82105263157894" type="curve"/>
      <point x="160.8842105263158" y="225.0" type="line"/>
      <point x="177.6" y="156.41052631578947"/>
      <point x="197.90526315789472" y="71.41052631578948"/>
    </contour>
  </outline>
</glyph>
<glyph name="X" format="2">
  <advance width="699.6421052631579"/>
  <unicode hex="0058"/>
  <outline>
    <contour>
      <point x="24.757894736842108" y="0.0" type="curve"/>
      <point x="179.54736842105262" y="0.0" type="line"/>
      <point x="210.7157894736842" y="58.09473684210527"/>
      <point x="237.1684210526316" y="109.70526315789475"/>
      <point x="263.79999999999995" y="160.44210526315788" type="curve"/>
      <point x="334.65263157894736" y="282.4526315789474" type="line"/>
      <point x="344.7578947368421" y="282.4526315789474" type="line"/>
      <point x="420.55789473684206" y="161.03157894736842" type="line"/>
      <point x="449.18947368421055" y="111.06315789473685"/>
      <point x="479.8210526315789" y="57.684210526315795"/>
      <point x="513.578947368421" y="0.0" type="curve"/>
      <point x="676.1157894736842" y="0.0" type="line"/>
      <point x="622.2210526315789" y="76.0"/>
      <point x="574.9157894736842" y="142.0"/>
      <point x="520.0210526315789" y="219.41052631578947" type="curve"/>
      <point x="418.978947368421" y="375.2315789473684" type="line"/>
      <point x="418.978947368421" y="340.57894736842104" type="line"/>
      <point x="517.2526315789473" y="506.37894736842105" type="line"/>
      <point x="555.3789473684211" y="564.1999999999999"/>
      <point x="601.9157894736842" y="634.6631578947369"/>
      <point x="653.6842105263157" y="713.0" type="curve"/>
      <point x="498.30526315789473" y="713.0" type="line"/>
      <point x="466.4947368421053" y="652.8000000000001"/>
      <point x="434.9157894736842" y="593.0631578947368"/>
      <point x="406.8736842105263" y="540.5052631578948" type="curve"/>
      <point x="347.6842105263158" y="438.33684210526314" type="line"/>
      <point x="337.57894736842104" y="438.33684210526314" type="line"/>
      <point x="276.3894736842105" y="539.9157894736842" type="line"/>
      <point x="247.93684210526314" y="591.2947368421052"/>
      <point x="215.53684210526316" y="651.2631578947368"/>
      <point x="181.54736842105262" y="713.0" type="curve"/>
      <point x="24.11578947368421" y="713.0" type="line"/>
      <point x="79.01052631578948" y="631.7684210526315"/>
      <point x="123.72631578947367" y="564.9473684210526"/>
      <point x="169.03157894736842" y="498.12631578947367" type="curve"/>
      <point x="260.4842105263158" y="350.89473684210526" type="line"/>
      <point x="260.4842105263158" y="382.2631578947368" type="line"/>
      <point x="156.49473684210525" y="205.1578947368421" type="line"/>
      <point x="109.18947368421053" y="131.69473684210527"/>
      <point x="67.70526315789472" y="67.10526315789474"/>
    </contour>
  </outline>
</glyph>
<glyph name="Y" format="2">
  <advance width="664.3052631578947"/>
  <unicode hex="0059"/>
  <anchor x="333.88421052631577" y="0.0" name="bottom"/>
  <anchor x="333.88421052631577" y="713.0" name="top"/>
  <anchor x="20.0" y="713.0" name="topleft"/>
  <outline>
    <contour>
      <point x="276.59999999999997" y="267.9789473684211" type="line"/>
      <point x="390.7578947368421" y="267.9789473684211" type="line"/>
      <point x="542.6736842105263" y="538.2736842105263" type="line"/>
      <point x="577.4947368421053" y="593.7894736842104"/>
      <point x="612.8526315789474" y="650.6105263157896"/>
      <point x="651.3157894736843" y="713.0" type="curve"/>
      <point x="496.06315789473683" y="713.0" type="line"/>
      <point x="453.87368421052633" y="622.7789473684211"/>
      <point x="432.18947368421055" y="575.7578947368421"/>
      <point x="397.89473684210526" y="505.12631578947367" type="curve"/>
      <point x="339.34736842105264" y="394.42105263157896" type="line"/>
      <point x="328.42105263157896" y="394.42105263157896" type="line"/>
      <point x="268.5157894736842" y="508.4842105263158" type="line"/>
      <point x="235.98947368421054" y="576.7578947368421"/>
      <point x="214.89473684210526" y="622.3684210526316"/>
      <point x="172.70526315789473" y="713.0" type="curve"/>
      <point x="13.757894736842106" y="713.0" type="line"/>
      <point x="58.22105263157894" y="642.8421052631579"/>
      <point x="90.22105263157894" y="592.7894736842105"/>
      <point x="124.45263157894738" y="538.2736842105263" type="curve"/>
    </contour>
    <contour>
      <point x="264.9789473684211" y="0.0" type="curve"/>
      <point x="403.37894736842105" y="0.0" type="line"/>
      <point x="400.32631578947365" y="78.12631578947368"/>
      <point x="397.2736842105263" y="145.66315789473686"/>
      <point x="393.81052631578945" y="234.30526315789473" type="curve"/>
      <point x="393.81052631578945" y="368.2842105263158" type="line"/>
      <point x="273.9578947368421" y="368.2842105263158" type="line"/>
      <point x="273.9578947368421" y="234.30526315789473" type="line"/>
      <point x="270.4947368421052" y="145.2526315789474"/>
      <point x="268.0315789473685" y="77.71578947368421"/>
    </contour>
  </outline>
</glyph>
<glyph name="Z" format="2">
  <advance width="677.4736842105264"/>
  <unicode hex="005A"/>
  <anchor x="339.0315789473684" y="0.0" name="bottom"/>
  <anchor x="339.0315789473684" y="357.0" name="center"/>
  <anchor x="339.0315789473684" y="713.0" name="top"/>
  <outline>
    <contour>
      <point x="44.73684210526316" y="0.0" type="line"/>
      <point x="629.7894736842105" y="0.0" type="line"/>
      <point x="629.7894736842105" y="114.41052631578947" type="line"/>
      <point x="552.8736842105262" y="110.94736842105263"/>
      <point x="429.9894736842105" y="105.25263157894736"/>
      <point x="344.7157894736842" y="100.78947368421052" type="curve"/>
      <point x="167.81052631578947" y="100.78947368421052" type="line"/>
      <point x="180.9894736842105" y="56.72631578947368" type="line"/>
      <point x="453.06315789473683" y="406.86315789473684" type="line"/>
      <point x="512.2631578947369" y="479.4947368421053"/>
      <point x="569.2315789473683" y="550.4842105263157"/>
      <point x="625.1473684210526" y="619.8315789473685" type="curve"/>
      <point x="625.1473684210526" y="713.0" type="line"/>
      <point x="53.61052631578947" y="713.0" type="line"/>
      <point x="53.61052631578947" y="597.5368421052632" type="line"/>
      <point x="151.06315789473683" y="602.642105263158"/>
      <point x="241.10526315789474" y="607.9263157894737"/>
      <point x="321.2" y="612.2105263157895" type="curve"/>
      <point x="515.4631578947368" y="612.2105263157895" type="line"/>
      <point x="494.9263157894737" y="651.5578947368421" type="line"/>
      <point x="236.05263157894737" y="314.2842105263158" type="line"/>
      <point x="175.79999999999998" y="240.18947368421053"/>
      <point x="93.8842105263158" y="139.8947368421053"/>
      <point x="44.73684210526316" y="78.90526315789475" type="curve"/>
    </contour>
  </outline>
</glyph>
<glyph name="bracketleft" format="2">
  <advance width="386.0526315789474"/>
  <unicode hex="005B"/>
  <outline>
    <contour>
      <point x="80.26315789473685" y="-119.38947368421053" type="curve"/>
      <point x="197.95789473684212" y="-119.38947368421053" type="line"/>
      <point x="197.95789473684212" y="-101.2" type="line"/>
      <point x="194.90526315789475" y="-23.073684210526313"/>
      <point x="191.85263157894738" y="45.05263157894737"/>
      <point x="188.38947368421054" y="133.69473684210527" type="curve"/>
      <point x="188.38947368421054" y="512.8421052631579" type="line"/>
      <point x="191.85263157894738" y="603.1263157894737"/>
      <point x="194.90526315789475" y="671.8947368421053"/>
      <point x="197.95789473684212" y="751.2526315789473" type="curve"/>
      <point x="197.95789473684212" y="769.4421052631579" type="line"/>
      <point x="80.26315789473685" y="769.4421052631579" type="line"/>
      <point x="82.90526315789474" y="689.2631578947369"/>
      <point x="84.54736842105264" y="622.5473684210526"/>
      <point x="88.01052631578948" y="531.0315789473684" type="curve"/>
      <point x="88.01052631578948" y="114.91578947368421" type="line"/>
      <point x="84.9578947368421" y="26.273684210526316"/>
      <point x="82.90526315789474" y="-42.08421052631579"/>
    </contour>
    <contour>
      <point x="174.17894736842106" y="-119.38947368421053" type="line"/>
      <point x="367.2526315789474" y="-119.38947368421053" type="line"/>
      <point x="367.2526315789474" y="-24.757894736842104" type="line"/>
      <point x="320.30526315789473" y="-26.399999999999995"/>
      <point x="271.0" y="-28.631578947368418"/>
      <point x="213.64210526315787" y="-30.684210526315788" type="curve"/>
      <point x="174.17894736842106" y="-30.684210526315788" type="line"/>
    </contour>
    <contour>
      <point x="167.61052631578949" y="680.7368421052631" type="line"/>
      <point x="206.9473684210526" y="680.7368421052631" type="line"/>
      <point x="274.4842105263158" y="678.6842105263157"/>
      <point x="322.021052631579" y="676.4526315789474"/>
      <point x="365.7894736842105" y="674.8105263157894" type="curve"/>
      <point x="365.7894736842105" y="769.4421052631579" type="line"/>
      <point x="167.61052631578949" y="769.4421052631579" type="line"/>
    </contour>
  </outline>
</glyph>
<glyph name="backslash" format="2">
  <advance width="457.29473684210524"/>
  <unicode hex="005C"/>
  <outline>
    <contour>
      <point x="314.5578947368421" y="0.0" type="curve"/>
      <point x="436.53684210526313" y="0.0" type="line"/>
      <point x="403.3578947368421" y="74.6421052631579"/>
      <point x="375.5894736842105" y="137.23157894736843"/>
      <point x="334.6421052631579" y="228.0" type="curve"/>
      <point x="232.31578947368422" y="476.0" type="line"/>
      <point x="195.8842105263158" y="571.5894736842105"/>
      <point x="171.4" y="636.5894736842105"/>
      <point x="142.32631578947368" y="713.0" type="curve"/>
      <point x="20.757894736842104" y="713.0" type="line"/>
      <point x="56.526315789473685" y="632.5894736842105"/>
      <point x="84.8842105263158" y="569.0"/>
      <point x="126.83157894736843" y="474.0" type="curve"/>
      <point x="228.1578947368421" y="228.0" type="line"/>
      <point x="263.0" y="136.0"/>
      <point x="286.4842105263158" y="74.0"/>
    </contour>
  </outline>
</glyph>
<glyph name="asciicircum" format="2">
  <advance width="617.9157894736842"/>
  <unicode hex="005E"/>
  <outline>
    <contour>
      <point x="464.4736842105263" y="371.42105263157896" type="curve"/>
      <point x="563.4631578947368" y="372.8315789473684" type="line"/>
      <point x="503.85263157894735" y="477.0421052631579"/>
      <point x="444.65263157894736" y="582.2526315789473"/>
      <point x="385.0421052631579" y="686.4631578947368" type="curve"/>
      <point x="232.8736842105263" y="686.4631578947368" type="line"/>
      <point x="173.26315789473682" y="582.2526315789473"/>
      <point x="114.06315789473683" y="479.0421052631579"/>
      <point x="54.452631578947376" y="374.8315789473684" type="curve"/>
      <point x="153.85263157894735" y="374.8315789473684" type="line"/>
      <point x="203.53684210526316" y="447.2842105263158"/>
      <point x="254.22105263157894" y="520.7368421052631"/>
      <point x="303.90526315789475" y="593.1894736842105" type="curve"/>
      <point x="314.0105263157895" y="593.1894736842105" type="line"/>
      <point x="364.10526315789474" y="519.3263157894737"/>
      <point x="414.37894736842105" y="445.2842105263158"/>
    </contour>
  </outline>
</glyph>
<glyph name="a" format="2">
  <advance width="531.2413793103448"/>
  <unicode hex="0061"/>
  <anchor x="263.8965517241379" y="0.0" name="bottom"/>
  <anchor x="460.9655172413793" y="0.0" name="ogonek"/>
  <anchor x="263.8965517241379" y="497.58620689655174" name="top"/>
  <outline>
    <contour>
      <point x="193.58620689655172" y="-10.793103448275861" type="curve" smooth="yes"/>
      <point x="229.34482758620692" y="-10.793103448275861"/>
      <point x="296.96551724137936" y="17.379310344827584"/>
      <point x="357.44827586206895" y="63.27586206896553" type="curve"/>
      <point x="366.13793103448273" y="63.27586206896553" type="line"/>
      <point x="385.3448275862069" y="0.0" type="line"/>
      <point x="492.7586206896551" y="0.0" type="line"/>
      <point x="479.7586206896551" y="55.86206896551724"/>
      <point x="469.9655172413793" y="101.41379310344828"/>
      <point x="460.8620689655172" y="149.68965517241378" type="curve"/>
      <point x="460.8620689655172" y="211.0" type="line" smooth="yes"/>
      <point x="460.8620689655172" y="251.6206896551724"/>
      <point x="463.7586206896551" y="302.41379310344826"/>
      <point x="463.7586206896551" y="334.0" type="curve" smooth="yes"/>
      <point x="463.7586206896551" y="457.48275862068965"/>
      <point x="382.82758620689657" y="509.37931034482756"/>
      <point x="271.2758620689655" y="509.37931034482756" type="curve" smooth="yes"/>
      <point x="237.86206896551724" y="509.37931034482756"/>
      <point x="113.96551724137932" y="486.1724137931035"/>
      <point x="67.27586206896551" y="475.9655172413793" type="curve"/>
      <point x="72.06896551724138" y="372.7241379310345" type="line"/>
      <point x="139.89655172413794" y="393.0344827586207"/>
      <point x="230.44827586206895" y="418.2068965517241"/>
      <point x="247.9655172413793" y="418.2068965517241" type="curve" smooth="yes"/>
      <point x="307.62068965517244" y="418.2068965517241"/>
      <point x="358.8620689655172" y="397.1034482758621"/>
      <point x="355.6551724137931" y="318.2758620689655" type="curve"/>
      <point x="208.6551724137931" y="295.7241379310345" type="line" smooth="yes"/>
      <point x="129.79310344827587" y="283.51724137931035"/>
      <point x="45.275862068965516" y="247.13793103448276"/>
      <point x="45.275862068965516" y="136.86206896551724" type="curve" smooth="yes"/>
      <point x="45.275862068965516" y="42.41379310344828"/>
      <point x="108.34482758620689" y="-10.793103448275861"/>
    </contour>
    <contour>
      <point x="229.44827586206895" y="75.79310344827587" type="curve" smooth="yes"/>
      <point x="189.9310344827586" y="75.79310344827587"/>
      <point x="156.0689655172414" y="93.24137931034483"/>
      <point x="156.0689655172414" y="141.44827586206895" type="curve" smooth="yes"/>
      <point x="156.0689655172414" y="186.17241379310346"/>
      <point x="185.10344827586206" y="213.3793103448276"/>
      <point x="233.20689655172413" y="222.0" type="curve" smooth="yes"/>
      <point x="317.51724137931035" y="236.72413793103448"/>
      <point x="338.44827586206895" y="242.3448275862069"/>
      <point x="352.9655172413793" y="251.3448275862069" type="curve"/>
      <point x="352.8620689655172" y="148.10344827586206" type="line"/>
      <point x="311.4827586206897" y="110.62068965517241"/>
      <point x="248.13793103448273" y="75.79310344827587"/>
    </contour>
  </outline>
</glyph>
<glyph name="b" format="2">
  <advance width="593.2842105263157"/>
  <unicode hex="0062"/>
  <outline>
    <contour>
      <point x="341.0736842105263" y="-11.873684210526315" type="curve" smooth="yes"/>
      <point x="480.91578947368424" y="-11.873684210526315"/>
      <point x="548.5263157894736" y="110.82105263157895"/>
      <point x="548.5263157894736" y="249.82105263157894" type="curve" smooth="yes"/>
      <point x="548.5263157894736" y="397.6421052631579"/>
      <point x="473.9684210526316" y="509.7473684210526"/>
      <point x="339.4842105263158" y="509.7473684210526" type="curve" smooth="yes"/>
      <point x="294.2631578947369" y="509.7473684210526"/>
      <point x="240.77894736842106" y="476.3157894736842"/>
      <point x="196.65263157894736" y="441.4947368421052" type="curve"/>
      <point x="186.54736842105262" y="441.4947368421052" type="line"/>
      <point x="186.54736842105262" y="493.58947368421053" type="line"/>
      <point x="190.83157894736843" y="583.1052631578947"/>
      <point x="194.70526315789473" y="664.9789473684211"/>
      <point x="198.16842105263157" y="744.9263157894737" type="curve"/>
      <point x="59.82105263157895" y="730.2315789473685" type="line"/>
      <point x="66.33684210526317" y="653.7157894736843"/>
      <point x="72.4421052631579" y="576.1263157894737"/>
      <point x="77.72631578947369" y="493.58947368421053" type="curve"/>
      <point x="77.72631578947369" y="217.7157894736842" type="line"/>
      <point x="74.26315789473685" y="135.4842105263158"/>
      <point x="72.21052631578948" y="72.94736842105263"/>
      <point x="69.15789473684211" y="0.0" type="curve"/>
      <point x="163.66315789473686" y="0.0" type="line"/>
      <point x="175.2842105263158" y="63.2" type="line"/>
      <point x="184.1578947368421" y="63.2" type="line"/>
      <point x="239.49473684210528" y="17.91578947368421"/>
      <point x="298.41052631578947" y="-11.873684210526315"/>
    </contour>
    <contour>
      <point x="303.71578947368425" y="82.93684210526317" type="curve"/>
      <point x="266.36842105263156" y="85.34736842105264"/>
      <point x="219.12631578947367" y="115.38947368421053"/>
      <point x="186.54736842105262" y="149.2526315789474" type="curve"/>
      <point x="186.54736842105262" y="354.4421052631579" type="line"/>
      <point x="225.02105263157895" y="391.3263157894737"/>
      <point x="271.8526315789474" y="411.88421052631577"/>
      <point x="302.5368421052632" y="413.7052631578947" type="curve"/>
      <point x="392.0736842105264" y="410.7052631578947"/>
      <point x="437.0631578947369" y="339.1578947368421"/>
      <point x="437.0631578947369" y="249.0" type="curve" smooth="yes"/>
      <point x="437.0631578947369" y="163.02105263157895"/>
      <point x="395.43157894736845" y="85.93684210526317"/>
    </contour>
  </outline>
</glyph>
<glyph name="c" format="2">
  <advance width="490.5052631578947"/>
  <unicode hex="0063"/>
  <anchor x="283.4315789473684" y="0.0" name="bottom"/>
  <anchor x="278.12631578947367" y="497.2842105263158" name="top"/>
  <outline>
    <contour>
      <point x="299.4842105263158" y="-10.23157894736842" type="curve" smooth="yes"/>
      <point x="329.6105263157895" y="-10.23157894736842"/>
      <point x="407.64210526315793" y="5.663157894736842"/>
      <point x="449.82105263157894" y="18.789473684210527" type="curve"/>
      <point x="442.41052631578947" y="115.13684210526316" type="line"/>
      <point x="400.62105263157895" y="97.47368421052632"/>
      <point x="341.6" y="81.70526315789473"/>
      <point x="324.11578947368423" y="81.70526315789473" type="curve" smooth="yes"/>
      <point x="213.7263157894737" y="83.88421052631578"/>
      <point x="154.9894736842105" y="153.20000000000002"/>
      <point x="154.9894736842105" y="251.2842105263158" type="curve" smooth="yes"/>
      <point x="154.9894736842105" y="351.33684210526314"/>
      <point x="213.6421052631579" y="411.93684210526317"/>
      <point x="300.9263157894737" y="414.93684210526317" type="curve"/>
      <point x="316.0526315789474" y="414.93684210526317"/>
      <point x="380.6421052631579" y="397.34736842105264"/>
      <point x="440.17894736842106" y="375.57894736842104" type="curve"/>
      <point x="449.2842105263158" y="473.5684210526316" type="line"/>
      <point x="401.84210526315786" y="488.0315789473685"/>
      <point x="318.6105263157895" y="509.33684210526314"/>
      <point x="289.25263157894733" y="509.33684210526314" type="curve" smooth="yes"/>
      <point x="131.1157894736842" y="509.33684210526314"/>
      <point x="43.93684210526315" y="397.5157894736842"/>
      <point x="43.93684210526315" y="248.41052631578947" type="curve" smooth="yes"/>
      <point x="43.93684210526315" y="100.30526315789474"/>
      <point x="137.09473684210525" y="-10.23157894736842"/>
    </contour>
  </outline>
</glyph>
<glyph name="g" format="2">
  <advance width="546.7586206896551"/>
  <unicode hex="0067"/>
  <anchor x="272.27586206896547" y="-192.0" name="bottom"/>
  <anchor x="270.51724137931035" y="497.58620689655174" name="top"/>
  <outline>
    <contour>
      <point x="241.6206896551724" y="-203.79310344827587" type="curve" smooth="yes"/>
      <point x="363.7586206896552" y="-203.79310344827587"/>
      <point x="505.7931034482759" y="-150.3793103448276"/>
      <point x="505.7931034482759" y="-26.275862068965516" type="curve" smooth="yes"/>
      <point x="505.7931034482759" y="63.44827586206897"/>
      <point x="438.7586206896552" y="92.65517241379311"/>
      <point x="305.2068965517241" y="92.65517241379311" type="curve" smooth="yes"/>
      <point x="284.0" y="92.65517241379311" type="line" smooth="yes"/>
      <point x="216.82758620689657" y="92.65517241379311"/>
      <point x="189.20689655172413" y="99.27586206896552"/>
      <point x="189.20689655172413" y="123.0344827586207" type="curve" smooth="yes"/>
      <point x="189.20689655172413" y="144.89655172413794"/>
      <point x="219.93103448275863" y="153.41379310344828"/>
      <point x="284.10344827586204" y="168.0344827586207" type="curve" smooth="yes"/>
      <point x="378.9310344827586" y="189.44827586206895"/>
      <point x="446.0" y="238.93103448275863"/>
      <point x="446.0" y="339.3103448275862" type="curve" smooth="yes"/>
      <point x="446.0" y="396.41379310344826"/>
      <point x="423.37931034482756" y="442.2413793103448"/>
      <point x="371.2068965517241" y="470.3448275862069" type="curve"/>
      <point x="341.37931034482756" y="430.551724137931" type="line"/>
      <point x="403.0" y="423.06896551724134"/>
      <point x="461.9310344827586" y="417.48275862068965"/>
      <point x="526.448275862069" y="410.0" type="curve"/>
      <point x="526.448275862069" y="498.48275862068965" type="line"/>
      <point x="379.06896551724134" y="498.48275862068965" type="line" smooth="yes"/>
      <point x="318.7241379310345" y="498.48275862068965"/>
      <point x="295.2413793103448" y="509.37931034482756"/>
      <point x="244.3793103448276" y="509.37931034482756" type="curve" smooth="yes"/>
      <point x="115.89655172413794" y="509.37931034482756"/>
      <point x="42.96551724137931" y="441.3103448275862"/>
      <point x="42.96551724137931" y="346.0" type="curve" smooth="yes"/>
      <point x="42.96551724137931" y="273.96551724137925"/>
      <point x="109.34482758620689" y="225.3448275862069"/>
      <point x="159.20689655172416" y="192.68965517241378" type="curve"/>
      <point x="159.20689655172416" y="185.0" type="line"/>
      <point x="107.20689655172414" y="163.82758620689657"/>
      <point x="88.27586206896552" y="135.13793103448276"/>
      <point x="88.27586206896552" y="101.51724137931035" type="curve" smooth="yes"/>
      <point x="88.27586206896552" y="54.724137931034484"/>
      <point x="123.96551724137932" y="35.724137931034484"/>
      <point x="142.48275862068965" y="28.82758620689655" type="curve"/>
      <point x="142.48275862068965" y="20.241379310344826" type="line"/>
      <point x="101.17241379310344" y="-1.758620689655173"/>
      <point x="48.55172413793103" y="-41.275862068965516"/>
      <point x="48.55172413793103" y="-87.48275862068965" type="curve" smooth="yes"/>
      <point x="48.55172413793103" y="-145.27586206896552"/>
      <point x="93.0344827586207" y="-203.79310344827587"/>
    </contour>
    <contour>
      <point x="258.44827586206895" y="-118.89655172413794" type="curve"/>
      <point x="179.8965517241379" y="-116.89655172413794"/>
      <point x="147.68965517241378" y="-91.3448275862069"/>
      <point x="147.68965517241378" y="-62.275862068965516" type="curve" smooth="yes"/>
      <point x="147.68965517241378" y="-40.20689655172414"/>
      <point x="204.24137931034483" y="-11.137931034482758"/>
      <point x="240.51724137931035" y="4.275862068965516" type="curve"/>
      <point x="275.72413793103453" y="4.275862068965516" type="line" smooth="yes"/>
      <point x="374.75862068965523" y="4.275862068965516"/>
      <point x="403.0689655172414" y="-12.13793103448276"/>
      <point x="403.0689655172414" y="-44.41379310344828" type="curve" smooth="yes"/>
      <point x="403.0689655172414" y="-77.79310344827586"/>
      <point x="347.41379310344826" y="-112.41379310344828"/>
    </contour>
    <contour>
      <point x="236.37931034482756" y="239.44827586206895" type="curve"/>
      <point x="192.58620689655174" y="265.86206896551727"/>
      <point x="143.89655172413794" y="301.62068965517244"/>
      <point x="143.89655172413794" y="337.0344827586207" type="curve" smooth="yes"/>
      <point x="143.89655172413794" y="390.9655172413793"/>
      <point x="191.27586206896552" y="417.2068965517241"/>
      <point x="242.89655172413794" y="420.0" type="curve"/>
      <point x="293.1379310344828" y="417.0"/>
      <point x="345.06896551724134" y="392.9655172413793"/>
      <point x="345.06896551724134" y="331.2413793103448" type="curve" smooth="yes"/>
      <point x="345.06896551724134" y="269.9655172413793"/>
      <point x="281.6551724137931" y="249.86206896551724"/>
    </contour>
  </outline>
</glyph>
<glyph name="k" format="2">
  <advance width="557.4631578947368"/>
  <unicode hex="006B"/>
  <anchor x="282.77894736842103" y="0.0" name="bottom"/>
  <anchor x="282.77894736842103" y="727.1052631578947" name="top"/>
  <outline>
    <contour>
      <point x="394.30526315789473" y="0.0" type="curve"/>
      <point x="548.2421052631579" y="0.0" type="line"/>
      <point x="489.55789473684206" y="59.463157894736845"/>
      <point x="431.6421052631579" y="118.74736842105263"/>
      <point x="372.95789473684215" y="178.21052631578948" type="curve"/>
      <point x="276.91578947368424" y="284.4526315789474" type="line"/>
      <point x="281.43157894736845" y="234.25263157894736" type="line"/>
      <point x="361.18947368421055" y="320.53684210526313" type="line"/>
      <point x="418.69473684210527" y="379.58947368421053"/>
      <point x="473.84210526315786" y="437.6421052631579"/>
      <point x="532.3473684210526" y="497.2842105263158" type="curve"/>
      <point x="386.56842105263155" y="497.2842105263158" type="line"/>
      <point x="349.4526315789474" y="451.9789473684211"/>
      <point x="312.15789473684214" y="406.4947368421053"/>
      <point x="275.0421052631579" y="361.1894736842105" type="curve"/>
      <point x="209.9578947368421" y="287.34736842105264" type="line"/>
      <point x="175.85263157894738" y="287.34736842105264" type="line"/>
      <point x="175.85263157894738" y="212.54736842105262" type="line"/>
      <point x="205.83157894736843" y="212.54736842105262" type="line"/>
      <point x="282.2947368421053" y="130.98947368421054" type="line"/>
      <point x="319.76842105263165" y="87.32631578947368"/>
      <point x="357.2421052631579" y="43.66315789473684"/>
    </contour>
    <contour>
      <point x="69.15789473684211" y="0.0" type="curve"/>
      <point x="195.70526315789473" y="0.0" type="line"/>
      <point x="192.65263157894736" y="67.61052631578947"/>
      <point x="189.6" y="126.45263157894738"/>
      <point x="186.54736842105262" y="198.42105263157896" type="curve"/>
      <point x="186.54736842105262" y="493.58947368421053" type="line"/>
      <point x="190.83157894736843" y="583.1052631578947"/>
      <point x="194.70526315789473" y="664.978947368421"/>
      <point x="198.16842105263157" y="744.9263157894737" type="curve"/>
      <point x="59.82105263157895" y="730.2315789473685" type="line"/>
      <point x="66.33684210526317" y="653.7157894736841"/>
      <point x="72.4421052631579" y="576.1263157894737"/>
      <point x="77.72631578947369" y="493.58947368421053" type="curve"/>
      <point x="77.72631578947369" y="217.7157894736842" type="line"/>
      <point x="74.26315789473685" y="135.4842105263158"/>
      <point x="72.21052631578948" y="72.94736842105263"/>
    </contour>
  </outline>
</glyph>
<glyph name="m" format="2">
  <advance width="882.7473684210527"/>
  <unicode hex="006D"/>
  <anchor x="449.76842105263154" y="0.0" name="bottom"/>
  <anchor x="449.76842105263154" y="497.2842105263158" name="top"/>
  <outline>
    <contour>
      <point x="74.33684210526316" y="0.0" type="curve"/>
      <point x="200.8842105263158" y="0.0" type="line"/>
      <point x="197.83157894736843" y="72.53684210526316"/>
      <point x="194.77894736842106" y="135.4842105263158"/>
      <point x="191.7263157894737" y="212.37894736842105" type="curve"/>
      <point x="191.7263157894737" y="326.3684210526316" type="line"/>
      <point x="236.73684210526318" y="372.5578947368421"/>
      <point x="287.85263157894735" y="408.77894736842103"/>
      <point x="315.07368421052627" y="408.77894736842103" type="curve" smooth="yes"/>
      <point x="375.56842105263155" y="408.77894736842103"/>
      <point x="395.35789473684207" y="369.04210526315785"/>
      <point x="395.35789473684207" y="289.8736842105263" type="curve"/>
      <point x="395.35789473684207" y="212.37894736842105" type="line"/>
      <point x="392.7157894736842" y="135.4842105263158"/>
      <point x="390.66315789473686" y="72.53684210526316"/>
      <point x="388.0210526315789" y="0.0" type="curve"/>
      <point x="513.7473684210526" y="0.0" type="line"/>
      <point x="510.69473684210527" y="72.53684210526316"/>
      <point x="507.6421052631579" y="135.4842105263158"/>
      <point x="504.178947368421" y="217.7157894736842" type="curve"/>
      <point x="504.178947368421" y="249.0526315789474"/>
      <point x="506.82105263157894" y="288.7473684210526"/>
      <point x="506.82105263157894" y="332.15789473684214" type="curve" smooth="yes"/>
      <point x="506.82105263157894" y="354.0315789473684"/>
      <point x="505.0" y="373.90526315789475"/>
      <point x="501.17894736842106" y="392.13684210526316" type="curve"/>
      <point x="493.20000000000005" y="394.4947368421053" type="line"/>
      <point x="478.32631578947365" y="471.0315789473684"/>
      <point x="433.0947368421053" y="509.7473684210526"/>
      <point x="357.7157894736842" y="509.7473684210526" type="curve" smooth="yes"/>
      <point x="308.38947368421054" y="509.7473684210526"/>
      <point x="239.13684210526316" y="457.11578947368423"/>
      <point x="190.74736842105264" y="416.2421052631579" type="curve"/>
      <point x="180.23157894736843" y="416.2421052631579" type="line"/>
      <point x="172.5894736842105" y="503.1578947368421" type="line"/>
      <point x="65.69473684210527" y="497.2842105263158" type="line"/>
      <point x="71.97894736842106" y="433.14736842105265"/>
      <point x="78.03157894736843" y="370.29473684210524"/>
      <point x="82.90526315789475" y="309.56842105263155" type="curve"/>
      <point x="82.90526315789475" y="217.7157894736842" type="line"/>
      <point x="79.44210526315791" y="135.4842105263158"/>
      <point x="77.38947368421053" y="72.94736842105263"/>
    </contour>
    <contour>
      <point x="697.5263157894736" y="0.0" type="curve"/>
      <point x="823.2526315789473" y="0.0" type="line"/>
      <point x="820.1999999999999" y="72.53684210526316"/>
      <point x="817.1473684210525" y="135.4842105263158"/>
      <point x="813.6842105263157" y="217.7157894736842" type="curve"/>
      <point x="813.6842105263157" y="249.0526315789474"/>
      <point x="816.3263157894736" y="288.7473684210526"/>
      <point x="816.3263157894736" y="332.15789473684214" type="curve" smooth="yes"/>
      <point x="816.3263157894736" y="448.62105263157895"/>
      <point x="766.5263157894736" y="509.7473684210526"/>
      <point x="667.2210526315789" y="509.7473684210526" type="curve" smooth="yes"/>
      <point x="617.4842105263158" y="509.7473684210526"/>
      <point x="547.4105263157894" y="457.88421052631577"/>
      <point x="496.8421052631579" y="413.2421052631579" type="curve"/>
      <point x="485.5052631578947" y="413.2421052631579" type="line"/>
      <point x="500.82105263157894" y="326.3684210526316" type="line"/>
      <point x="545.8315789473685" y="372.5578947368421"/>
      <point x="597.3578947368421" y="408.77894736842103"/>
      <point x="624.578947368421" y="408.77894736842103" type="curve" smooth="yes"/>
      <point x="685.0736842105263" y="408.77894736842103"/>
      <point x="704.8631578947368" y="369.04210526315785"/>
      <point x="704.8631578947368" y="289.8736842105263" type="curve"/>
      <point x="704.8631578947368" y="212.37894736842105" type="line"/>
      <point x="702.2210526315789" y="135.4842105263158"/>
      <point x="700.1684210526315" y="72.53684210526316"/>
    </contour>
  </outline>
</glyph>
<glyph name="n" format="2">
  <advance width="585.4947368421052"/>
  <unicode hex="006E"/>
  <anchor x="296.05263157894734" y="0.0" name="bottom"/>
  <anchor x="296.05263157894734" y="497.2842105263158" name="top"/>
  <outline>
    <contour>
      <point x="74.33684210526316" y="0.0" type="curve"/>
      <point x="200.8842105263158" y="0.0" type="line"/>
      <point x="197.83157894736843" y="72.53684210526316"/>
      <point x="194.77894736842106" y="135.4842105263158"/>
      <point x="191.7263157894737" y="212.37894736842105" type="curve"/>
      <point x="191.7263157894737" y="326.3684210526316" type="line"/>
      <point x="236.73684210526318" y="372.5578947368421"/>
      <point x="294.56842105263155" y="408.77894736842103"/>
      <point x="321.9684210526316" y="408.77894736842103" type="curve" smooth="yes"/>
      <point x="386.6421052631579" y="408.77894736842103"/>
      <point x="407.61052631578946" y="369.04210526315785"/>
      <point x="407.61052631578946" y="289.8736842105263" type="curve"/>
      <point x="407.61052631578946" y="212.37894736842105" type="line"/>
      <point x="404.9684210526316" y="135.4842105263158"/>
      <point x="402.91578947368424" y="72.53684210526316"/>
      <point x="400.2736842105263" y="0.0" type="curve"/>
      <point x="526.0" y="0.0" type="line"/>
      <point x="522.9473684210526" y="72.53684210526316"/>
      <point x="519.8947368421052" y="135.4842105263158"/>
      <point x="516.4315789473684" y="217.7157894736842" type="curve"/>
      <point x="516.4315789473684" y="249.0526315789474"/>
      <point x="519.0736842105263" y="288.7473684210526"/>
      <point x="519.0736842105263" y="332.15789473684214" type="curve" smooth="yes"/>
      <point x="519.0736842105263" y="448.62105263157895"/>
      <point x="469.2736842105263" y="509.7473684210526"/>
      <point x="364.4315789473684" y="509.7473684210526" type="curve" smooth="yes"/>
      <point x="314.28421052631575" y="509.7473684210526"/>
      <point x="239.13684210526316" y="457.11578947368423"/>
      <point x="190.74736842105264" y="416.2421052631579" type="curve"/>
      <point x="180.23157894736843" y="416.2421052631579" type="line"/>
      <point x="172.5894736842105" y="503.1578947368421" type="line"/>
      <point x="65.69473684210527" y="497.2842105263158" type="line"/>
      <point x="71.97894736842106" y="433.14736842105265"/>
      <point x="78.03157894736843" y="370.29473684210524"/>
      <point x="82.90526315789475" y="309.56842105263155" type="curve"/>
      <point x="82.90526315789475" y="217.7157894736842" type="line"/>
      <point x="79.44210526315791" y="135.4842105263158"/>
      <point x="77.38947368421053" y="72.94736842105263"/>
    </contour>
  </outline>
</glyph>
<glyph name="p" format="2">
  <advance width="598.4631578947368"/>
  <unicode hex="0070"/>
  <outline>
    <contour>
      <point x="73.74736842105264" y="-195.6421052631579" type="curve"/>
      <point x="202.93684210526317" y="-192.0" type="line"/>
      <point x="199.06315789473683" y="-119.46315789473684"/>
      <point x="196.0105263157895" y="-56.51578947368421"/>
      <point x="191.7263157894737" y="20.378947368421052" type="curve"/>
      <point x="191.7263157894737" y="57.86315789473684" type="line"/>
      <point x="199.77894736842106" y="57.86315789473684" type="line"/>
      <point x="251.0105263157895" y="16.273684210526316"/>
      <point x="306.0526315789474" y="-11.873684210526315"/>
      <point x="346.25263157894733" y="-11.873684210526315" type="curve" smooth="yes"/>
      <point x="486.09473684210525" y="-11.873684210526315"/>
      <point x="553.7052631578947" y="110.82105263157895"/>
      <point x="553.7052631578947" y="249.82105263157894" type="curve" smooth="yes"/>
      <point x="553.7052631578947" y="397.6421052631579"/>
      <point x="479.1473684210526" y="509.7473684210526"/>
      <point x="344.6631578947368" y="509.7473684210526" type="curve" smooth="yes"/>
      <point x="297.8" y="509.7473684210526"/>
      <point x="239.4421052631579" y="473.2631578947369"/>
      <point x="192.44210526315788" y="434.56842105263155" type="curve"/>
      <point x="182.33684210526314" y="434.56842105263155" type="line"/>
      <point x="175.8736842105263" y="503.1578947368421" type="line"/>
      <point x="65.69473684210527" y="497.2842105263158" type="line"/>
      <point x="71.97894736842106" y="433.14736842105265"/>
      <point x="78.03157894736843" y="370.29473684210524"/>
      <point x="82.90526315789475" y="309.56842105263155" type="curve"/>
      <point x="82.90526315789475" y="25.71578947368421" type="line"/>
      <point x="79.44210526315791" y="-56.51578947368421"/>
      <point x="76.80000000000001" y="-123.10526315789474"/>
    </contour>
    <contour>
      <point x="308.89473684210526" y="82.93684210526317" type="curve"/>
      <point x="271.5473684210526" y="85.34736842105264"/>
      <point x="224.30526315789473" y="115.38947368421053"/>
      <point x="191.7263157894737" y="149.2526315789474" type="curve"/>
      <point x="191.7263157894737" y="354.4421052631579" type="line"/>
      <point x="230.2" y="391.3263157894737"/>
      <point x="277.0315789473684" y="411.88421052631577"/>
      <point x="307.7157894736842" y="413.7052631578947" type="curve"/>
      <point x="397.2526315789474" y="410.7052631578947"/>
      <point x="442.2421052631579" y="339.1578947368421"/>
      <point x="442.2421052631579" y="249.0" type="curve" smooth="yes"/>
      <point x="442.2421052631579" y="163.02105263157895"/>
      <point x="400.61052631578946" y="85.93684210526317"/>
    </contour>
  </outline>
</glyph>
<glyph name="q" format="2">
  <advance width="587.6421052631579"/>
  <unicode hex="0071"/>
  <outline>
    <contour>
      <point x="397.5789473684211" y="-195.6421052631579" type="curve"/>
      <point x="524.7157894736841" y="-192.0" type="line"/>
      <point x="521.6631578947367" y="-119.05263157894737"/>
      <point x="519.0210526315789" y="-56.51578947368421"/>
      <point x="515.5578947368421" y="25.71578947368421" type="curve"/>
      <point x="515.5578947368421" y="309.56842105263155" type="line"/>
      <point x="520.0210526315789" y="372.1157894736842"/>
      <point x="525.2526315789473" y="437.2"/>
      <point x="530.7157894736841" y="503.1578947368421" type="curve"/>
      <point x="422.5894736842105" y="497.2842105263158" type="line"/>
      <point x="416.12631578947367" y="434.56842105263155" type="line"/>
      <point x="406.021052631579" y="434.56842105263155" type="line"/>
      <point x="359.021052631579" y="473.2631578947368"/>
      <point x="300.6631578947368" y="509.7473684210526"/>
      <point x="253.8" y="509.7473684210526" type="curve" smooth="yes"/>
      <point x="119.3157894736842" y="509.7473684210526"/>
      <point x="44.757894736842104" y="397.6421052631579"/>
      <point x="44.757894736842104" y="249.82105263157894" type="curve" smooth="yes"/>
      <point x="44.757894736842104" y="110.82105263157895"/>
      <point x="112.36842105263158" y="-11.873684210526315"/>
      <point x="252.21052631578948" y="-11.873684210526315" type="curve" smooth="yes"/>
      <point x="292.41052631578947" y="-11.873684210526315"/>
      <point x="347.45263157894743" y="16.273684210526316"/>
      <point x="398.6842105263158" y="57.86315789473684" type="curve"/>
      <point x="406.7368421052632" y="57.86315789473684" type="line"/>
      <point x="406.7368421052632" y="20.378947368421052" type="line"/>
      <point x="403.68421052631584" y="-56.51578947368421"/>
      <point x="400.63157894736844" y="-123.10526315789474"/>
    </contour>
    <contour>
      <point x="289.5684210526316" y="82.93684210526317" type="curve"/>
      <point x="197.85263157894735" y="85.93684210526317"/>
      <point x="156.22105263157894" y="163.02105263157895"/>
      <point x="156.22105263157894" y="249.0" type="curve" smooth="yes"/>
      <point x="156.22105263157894" y="339.1578947368421"/>
      <point x="201.21052631578948" y="410.7052631578947"/>
      <point x="290.7473684210526" y="413.7052631578947" type="curve"/>
      <point x="321.4315789473684" y="411.88421052631577"/>
      <point x="368.2631578947369" y="391.3263157894737"/>
      <point x="406.7368421052632" y="354.4421052631579" type="curve"/>
      <point x="406.7368421052632" y="149.2526315789474" type="line"/>
      <point x="374.15789473684214" y="115.38947368421053"/>
      <point x="326.9157894736842" y="85.34736842105264"/>
    </contour>
  </outline>
</glyph>
<glyph name="r" format="2">
  <advance width="412.0631578947369"/>
  <unicode hex="0072"/>
  <anchor x="130.67368421052632" y="0.0" name="bottom"/>
  <anchor x="234.05263157894737" y="497.2842105263158" name="top"/>
  <outline>
    <contour>
      <point x="74.33684210526316" y="0.0" type="curve"/>
      <point x="200.8842105263158" y="0.0" type="line"/>
      <point x="197.83157894736843" y="72.53684210526316"/>
      <point x="194.77894736842106" y="135.4842105263158"/>
      <point x="191.7263157894737" y="212.37894736842105" type="curve"/>
      <point x="191.7263157894737" y="308.85263157894735" type="line"/>
      <point x="252.39999999999998" y="375.72631578947374"/>
      <point x="292.75789473684205" y="399.33684210526314"/>
      <point x="317.08421052631576" y="399.33684210526314" type="curve" smooth="yes"/>
      <point x="323.6736842105263" y="399.33684210526314"/>
      <point x="349.13684210526316" y="392.9263157894736"/>
      <point x="380.7052631578947" y="385.2842105263158" type="curve"/>
      <point x="390.2736842105263" y="501.5157894736842" type="line"/>
      <point x="372.6842105263158" y="505.7473684210526"/>
      <point x="345.9684210526315" y="509.7473684210526"/>
      <point x="334.9684210526315" y="509.7473684210526" type="curve" smooth="yes"/>
      <point x="302.3052631578948" y="509.7473684210526"/>
      <point x="257.2315789473684" y="483.08421052631576"/>
      <point x="188.97894736842105" y="408.57894736842104" type="curve"/>
      <point x="179.05263157894737" y="408.57894736842104" type="line"/>
      <point x="172.0" y="503.1578947368421" type="line"/>
      <point x="65.69473684210527" y="497.2842105263158" type="line"/>
      <point x="71.97894736842106" y="433.14736842105265"/>
      <point x="78.03157894736843" y="370.29473684210524"/>
      <point x="82.90526315789475" y="309.56842105263155" type="curve"/>
      <point x="82.90526315789475" y="217.7157894736842" type="line"/>
      <point x="79.44210526315791" y="135.4842105263158"/>
      <point x="77.38947368421053" y="72.94736842105263"/>
    </contour>
  </outline>
</glyph>
<glyph name="s" format="2">
  <advance width="459.44827586206895"/>
  <unicode hex="0073"/>
  <anchor x="230.9655172413793" y="0.0" name="bottom"/>
  <anchor x="230.9655172413793" y="497.58620689655174" name="top"/>
  <outline>
    <contour>
      <point x="228.10344827586206" y="-11.689655172413794" type="curve" smooth="yes"/>
      <point x="363.41379310344826" y="-11.689655172413794"/>
      <point x="420.37931034482756" y="53.310344827586206"/>
      <point x="420.37931034482756" y="146.13793103448276" type="curve" smooth="yes"/>
      <point x="420.37931034482756" y="237.6206896551724"/>
      <point x="365.0344827586207" y="261.51724137931035"/>
      <point x="263.17241379310343" y="290.41379310344826" type="curve" smooth="yes"/>
      <point x="183.0344827586207" y="312.9310344827586"/>
      <point x="164.9655172413793" y="328.6551724137931"/>
      <point x="164.9655172413793" y="361.44827586206895" type="curve" smooth="yes"/>
      <point x="164.9655172413793" y="404.2068965517241"/>
      <point x="207.27586206896552" y="416.2068965517241"/>
      <point x="243.3103448275862" y="418.2068965517241" type="curve"/>
      <point x="257.51724137931035" y="418.2068965517241"/>
      <point x="322.1034482758621" y="399.2068965517241"/>
      <point x="382.6896551724138" y="376.31034482758616" type="curve"/>
      <point x="390.2758620689655" y="476.86206896551727" type="line"/>
      <point x="342.6206896551724" y="488.8620689655172"/>
      <point x="260.55172413793105" y="509.37931034482756"/>
      <point x="223.58620689655172" y="509.37931034482756" type="curve" smooth="yes"/>
      <point x="120.93103448275862" y="509.37931034482756"/>
      <point x="53.275862068965516" y="452.7931034482759"/>
      <point x="53.275862068965516" y="356.17241379310343" type="curve" smooth="yes"/>
      <point x="53.275862068965516" y="266.1034482758621"/>
      <point x="107.62068965517241" y="233.6206896551724"/>
      <point x="190.27586206896552" y="211.6206896551724" type="curve" smooth="yes"/>
      <point x="279.7586206896552" y="187.48275862068965"/>
      <point x="309.58620689655174" y="175.6551724137931"/>
      <point x="309.58620689655174" y="141.06896551724137" type="curve" smooth="yes"/>
      <point x="309.58620689655174" y="89.0344827586207"/>
      <point x="268.51724137931035" y="81.48275862068965"/>
      <point x="220.9310344827586" y="79.48275862068965" type="curve"/>
      <point x="193.89655172413796" y="79.48275862068965"/>
      <point x="128.03448275862067" y="100.27586206896551"/>
      <point x="58.55172413793104" y="125.17241379310344" type="curve"/>
      <point x="50.862068965517246" y="21.93103448275862" type="line"/>
      <point x="115.24137931034484" y="5.517241379310345"/>
      <point x="191.20689655172413" y="-11.689655172413794"/>
    </contour>
  </outline>
</glyph>
<glyph name="u" format="2">
  <advance width="567.8842105263158"/>
  <unicode hex="0075"/>
  <anchor x="281.978947368421" y="0.0" name="bottom"/>
  <anchor x="503.4631578947368" y="0.0" name="ogonek"/>
  <anchor x="281.978947368421" y="497.2842105263158" name="top"/>
  <anchor x="541.4" y="497.2842105263158" name="topright"/>
  <outline>
    <contour>
      <point x="218.18947368421053" y="-11.873684210526315" type="curve" smooth="yes"/>
      <point x="270.7263157894737" y="-11.873684210526315"/>
      <point x="345.05263157894734" y="41.16842105263157"/>
      <point x="386.87368421052633" y="85.73684210526316" type="curve"/>
      <point x="397.38947368421054" y="85.73684210526316" type="line"/>
      <point x="403.2631578947368" y="0.0" type="line"/>
      <point x="505.9263157894737" y="0.0" type="line"/>
      <point x="502.8736842105263" y="72.94736842105263"/>
      <point x="500.2315789473684" y="135.4842105263158"/>
      <point x="496.76842105263154" y="217.7157894736842" type="curve"/>
      <point x="496.76842105263154" y="271.82105263157894" type="line"/>
      <point x="500.6421052631579" y="361.2105263157895"/>
      <point x="503.6947368421052" y="424.1578947368421"/>
      <point x="506.7473684210526" y="497.2842105263158" type="curve"/>
      <point x="379.61052631578946" y="497.2842105263158" type="line"/>
      <point x="382.66315789473686" y="424.7473684210526"/>
      <point x="385.30526315789473" y="361.2105263157895"/>
      <point x="387.9473684210526" y="284.13684210526316" type="curve"/>
      <point x="387.9473684210526" y="169.45263157894738" type="line"/>
      <point x="343.3473684210527" y="123.26315789473684"/>
      <point x="286.7473684210526" y="87.0421052631579"/>
      <point x="260.65263157894736" y="87.0421052631579" type="curve" smooth="yes"/>
      <point x="195.97894736842105" y="87.0421052631579"/>
      <point x="175.01052631578946" y="126.77894736842106"/>
      <point x="175.01052631578946" y="205.94736842105263" type="curve"/>
      <point x="175.01052631578946" y="284.13684210526316" type="line"/>
      <point x="177.65263157894736" y="361.8"/>
      <point x="180.29473684210527" y="427.8"/>
      <point x="182.93684210526317" y="500.9263157894737" type="curve"/>
      <point x="56.21052631578947" y="497.2842105263158" type="line"/>
      <point x="59.67368421052631" y="424.7473684210526"/>
      <point x="62.31578947368421" y="361.2105263157895"/>
      <point x="66.18947368421053" y="271.82105263157894" type="curve"/>
      <point x="66.18947368421053" y="238.7157894736842"/>
      <point x="64.36842105263158" y="209.1263157894737"/>
      <point x="64.36842105263158" y="165.7157894736842" type="curve" smooth="yes"/>
      <point x="64.36842105263158" y="49.252631578947366"/>
      <point x="113.34736842105262" y="-11.873684210526315"/>
    </contour>
  </outline>
</glyph>
<glyph name="v" format="2">
  <advance width="531.7157894736843"/>
  <unicode hex="0076"/>
  <outline>
    <contour>
      <point x="200.36842105263156" y="0.0" type="curve"/>
      <point x="330.57894736842104" y="0.0" type="line"/>
      <point x="352.1157894736842" y="62.410526315789475"/>
      <point x="372.65263157894736" y="123.82105263157895"/>
      <point x="393.59999999999997" y="186.6421052631579" type="curve"/>
      <point x="425.9578947368421" y="275.46315789473687" type="line"/>
      <point x="455.5473684210526" y="348.87368421052633"/>
      <point x="484.54736842105257" y="422.69473684210527"/>
      <point x="514.3157894736842" y="497.2842105263158" type="curve"/>
      <point x="386.23157894736846" y="497.2842105263158" type="line"/>
      <point x="363.5473684210526" y="422.34736842105264"/>
      <point x="341.4526315789474" y="346.12631578947367"/>
      <point x="318.17894736842106" y="267.13684210526316" type="curve"/>
      <point x="271.34736842105264" y="118.33684210526316" type="line"/>
      <point x="261.2421052631579" y="118.33684210526316" type="line"/>
      <point x="214.41052631578947" y="267.13684210526316" type="line"/>
      <point x="191.13684210526313" y="346.12631578947367"/>
      <point x="169.22105263157894" y="421.7578947368421"/>
      <point x="146.35789473684213" y="500.9263157894737" type="curve"/>
      <point x="17.4" y="497.2842105263158" type="line"/>
      <point x="46.400000000000006" y="424.46315789473687"/>
      <point x="75.4" y="349.46315789473687"/>
      <point x="104.4" y="276.6421052631579" type="curve"/>
      <point x="136.7578947368421" y="188.23157894736843" type="line"/>
      <point x="157.7052631578947" y="126.58947368421053"/>
      <point x="178.83157894736843" y="62.82105263157895"/>
    </contour>
  </outline>
</glyph>
<glyph name="x" format="2">
  <advance width="552.2842105263159"/>
  <unicode hex="0078"/>
  <outline>
    <contour>
      <point x="20.631578947368418" y="0.0" type="curve"/>
      <point x="155.3578947368421" y="0.0" type="line"/>
      <point x="178.22105263157894" y="42.43157894736842"/>
      <point x="194.77894736842103" y="72.68421052631578"/>
      <point x="217.6421052631579" y="114.70526315789473" type="curve"/>
      <point x="264.65263157894736" y="194.1578947368421" type="line"/>
      <point x="272.93684210526317" y="194.1578947368421" type="line"/>
      <point x="325.30526315789473" y="110.70526315789473" type="line"/>
      <point x="349.1684210526316" y="71.09473684210526"/>
      <point x="367.90526315789475" y="38.8421052631579"/>
      <point x="390.58947368421053" y="0.0" type="curve"/>
      <point x="533.7052631578947" y="0.0" type="line"/>
      <point x="484.57894736842104" y="65.05263157894737"/>
      <point x="454.2210526315789" y="105.69473684210526"/>
      <point x="418.2736842105263" y="153.33684210526314" type="curve"/>
      <point x="336.66315789473686" y="269.85263157894735" type="line"/>
      <point x="342.17894736842106" y="243.94736842105263" type="line"/>
      <point x="415.021052631579" y="351.0" type="line"/>
      <point x="450.5578947368421" y="401.2315789473684"/>
      <point x="473.32631578947365" y="432.05263157894734"/>
      <point x="520.0421052631579" y="497.2842105263158" type="curve"/>
      <point x="384.31578947368416" y="497.2842105263158" type="line"/>
      <point x="361.0421052631579" y="454.4421052631579"/>
      <point x="344.0736842105263" y="423.36842105263156"/>
      <point x="322.1578947368421" y="383.29473684210524" type="curve"/>
      <point x="276.6842105263158" y="307.61052631578946" type="line"/>
      <point x="268.1684210526316" y="307.61052631578946" type="line"/>
      <point x="221.8736842105263" y="383.5263157894737" type="line"/>
      <point x="199.9578947368421" y="422.7789473684211"/>
      <point x="181.57894736842104" y="456.3157894736842"/>
      <point x="156.30526315789476" y="500.9263157894737" type="curve"/>
      <point x="20.936842105263157" y="497.2842105263158" type="line"/>
      <point x="65.83157894736843" y="434.87368421052633"/>
      <point x="92.18947368421053" y="397.6421052631579"/>
      <point x="127.90526315789474" y="348.2315789473684" type="curve"/>
      <point x="198.69473684210527" y="241.58947368421053" type="line"/>
      <point x="198.10526315789474" y="268.6736842105263" type="line"/>
      <point x="126.36842105263158" y="155.1578947368421" type="line"/>
      <point x="91.65263157894738" y="104.10526315789474"/>
      <point x="66.52631578947368" y="67.28421052631579"/>
    </contour>
  </outline>
</glyph>
<glyph name="y" format="2">
  <advance width="534.0736842105263"/>
  <unicode hex="0079"/>
  <anchor x="409.11578947368423" y="0.0" name="bottom"/>
  <anchor x="268.06315789473683" y="497.2842105263158" name="top"/>
  <outline>
    <contour>
      <point x="117.97894736842106" y="-195.6421052631579" type="curve"/>
      <point x="248.5263157894737" y="-192.0" type="line"/>
      <point x="275.47368421052636" y="-120.0"/>
      <point x="305.83157894736837" y="-37.76842105263158"/>
      <point x="352.9578947368421" y="89.6421052631579" type="curve"/>
      <point x="407.7263157894737" y="229.46315789473684" type="line"/>
      <point x="458.90526315789475" y="354.87368421052633"/>
      <point x="483.4947368421053" y="416.2842105263158"/>
      <point x="516.6736842105264" y="497.2842105263158" type="curve"/>
      <point x="389.4105263157895" y="497.2842105263158" type="line"/>
      <point x="366.13684210526316" y="418.88421052631577"/>
      <point x="343.4526315789474" y="344.0736842105263"/>
      <point x="319.17894736842106" y="265.0842105263158" type="curve"/>
      <point x="269.1684210526316" y="115.05263157894737" type="line"/>
      <point x="259.06315789473683" y="115.05263157894737" type="line"/>
      <point x="213.41052631578947" y="264.90526315789475" type="line"/>
      <point x="190.7263157894737" y="345.30526315789473"/>
      <point x="168.6315789473684" y="420.5263157894737"/>
      <point x="145.94736842105263" y="500.9263157894737" type="curve"/>
      <point x="17.4" y="497.2842105263158" type="line"/>
      <point x="44.98947368421052" y="426.2842105263158"/>
      <point x="74.98947368421052" y="350.2842105263158"/>
      <point x="102.98947368421052" y="278.46315789473687" type="curve"/>
      <point x="135.34736842105264" y="188.46315789473684" type="line"/>
      <point x="157.8842105263158" y="122.46315789473684"/>
      <point x="182.42105263157896" y="51.463157894736845"/>
      <point x="204.77894736842103" y="-17.357894736842105" type="curve"/>
      <point x="210.06315789473683" y="6.2631578947368425" type="line"/>
      <point x="179.77894736842106" y="-59.43157894736842"/>
      <point x="148.26315789473685" y="-129.3578947368421"/>
    </contour>
  </outline>
</glyph>
<glyph name="z" format="2">
  <advance width="504.1684210526316"/>
  <unicode hex="007A"/>
  <anchor x="250.49473684210525" y="0.0" name="bottom"/>
  <anchor x="250.49473684210525" y="248.6421052631579" name="center"/>
  <anchor x="250.49473684210525" y="497.2842105263158" name="top"/>
  <outline>
    <contour>
      <point x="35.78947368421053" y="0.0" type="line"/>
      <point x="470.7368421052632" y="0.0" type="line"/>
      <point x="470.7368421052632" y="94.22105263157894" type="line"/>
      <point x="405.3578947368421" y="89.93684210526317"/>
      <point x="320.5473684210526" y="85.2421052631579"/>
      <point x="269.1684210526316" y="82.18947368421053" type="curve"/>
      <point x="154.6421052631579" y="82.18947368421053" type="line"/>
      <point x="166.62105263157895" y="57.589473684210525" type="line"/>
      <point x="312.9578947368421" y="248.8421052631579" type="line"/>
      <point x="359.74736842105267" y="305.8842105263157"/>
      <point x="416.89473684210526" y="375.64210526315793"/>
      <point x="455.37894736842105" y="422.6105263157895" type="curve"/>
      <point x="455.37894736842105" y="497.2842105263158" type="line"/>
      <point x="38.66315789473684" y="497.2842105263158" type="line"/>
      <point x="38.66315789473684" y="401.0105263157895" type="line"/>
      <point x="107.81052631578947" y="405.7052631578947"/>
      <point x="195.85263157894735" y="411.2210526315789"/>
      <point x="247.05263157894737" y="414.6842105263158" type="curve"/>
      <point x="351.4526315789474" y="414.6842105263158" type="line"/>
      <point x="336.2421052631579" y="447.87368421052633" type="line"/>
      <point x="186.38947368421051" y="251.05263157894737" type="line"/>
      <point x="141.3684210526316" y="195.95789473684212"/>
      <point x="89.98947368421052" y="132.73684210526318"/>
      <point x="35.78947368421053" y="66.10526315789474" type="curve"/>
    </contour>
  </outline>
</glyph>
<glyph name="braceleft" format="2">
  <advance width="420.4421052631579"/>
  <unicode hex="007B"/>
  <outline>
    <contour>
      <point x="309.63157894736844" y="-119.38947368421053" type="curve" smooth="yes"/>
      <point x="402.2315789473684" y="-119.38947368421053" type="line"/>
      <point x="402.2315789473684" y="-28.042105263157893" type="line"/>
      <point x="374.12631578947367" y="-28.863157894736837"/>
      <point x="341.82105263157894" y="-30.273684210526312"/>
      <point x="324.82105263157894" y="-30.684210526315788" type="curve"/>
      <point x="267.65263157894736" y="-28.452631578947365"/>
      <point x="240.50526315789475" y="-3.0210526315789465"/>
      <point x="239.6842105263158" y="48.71578947368421" type="curve" smooth="yes"/>
      <point x="235.81052631578947" y="234.78947368421052" type="line" smooth="yes"/>
      <point x="235.4" y="246.4842105263158"/>
      <point x="185.8842105263158" y="296.66315789473686"/>
      <point x="154.85263157894738" y="320.17894736842106" type="curve"/>
      <point x="154.85263157894738" y="329.87368421052633" type="line"/>
      <point x="185.8842105263158" y="353.2105263157895"/>
      <point x="235.4" y="402.33684210526314"/>
      <point x="235.81052631578947" y="414.6736842105263" type="curve" smooth="yes"/>
      <point x="239.6842105263158" y="601.3368421052631" type="line" smooth="yes"/>
      <point x="240.50526315789475" y="653.0736842105263"/>
      <point x="267.65263157894736" y="678.5052631578947"/>
      <point x="324.82105263157894" y="680.7368421052631" type="curve"/>
      <point x="342.41052631578947" y="680.3263157894736"/>
      <point x="374.89473684210526" y="678.9157894736841"/>
      <point x="400.17894736842106" y="678.0947368421052" type="curve"/>
      <point x="400.17894736842106" y="769.4421052631579" type="line"/>
      <point x="309.63157894736844" y="769.4421052631579" type="line" smooth="yes"/>
      <point x="202.1578947368421" y="769.4421052631579"/>
      <point x="134.02105263157895" y="715.4105263157895"/>
      <point x="134.02105263157895" y="618.9894736842106" type="curve"/>
      <point x="134.02105263157895" y="611.042105263158"/>
      <point x="137.07368421052632" y="467.9052631578947"/>
      <point x="137.07368421052632" y="459.9578947368421" type="curve"/>
      <point x="137.07368421052632" y="404.06315789473683"/>
      <point x="94.03157894736843" y="364.6842105263158"/>
      <point x="55.38947368421052" y="364.6842105263158" type="curve" smooth="yes"/>
      <point x="14.105263157894736" y="364.6842105263158" type="line"/>
      <point x="14.105263157894736" y="284.77894736842103" type="line"/>
      <point x="55.38947368421052" y="284.77894736842103" type="line" smooth="yes"/>
      <point x="94.03157894736843" y="284.77894736842103"/>
      <point x="137.07368421052632" y="245.39999999999998"/>
      <point x="137.07368421052632" y="189.50526315789475" type="curve"/>
      <point x="137.07368421052632" y="181.5578947368421"/>
      <point x="134.02105263157895" y="39.01052631578948"/>
      <point x="134.02105263157895" y="31.063157894736843" type="curve"/>
      <point x="134.02105263157895" y="-65.3578947368421"/>
      <point x="202.1578947368421" y="-119.38947368421053"/>
    </contour>
  </outline>
</glyph>
<glyph name="cent" format="2">
  <advance width="490.5052631578947"/>
  <unicode hex="00A2"/>
  <anchor x="283.4315789473684" y="0.0" name="bottom"/>
  <anchor x="278.12631578947367" y="497.2842105263158" name="top"/>
  <outline>
    <contour>
      <point x="237.6" y="-137.0" type="curve"/>
      <point x="328.4842105263158" y="-137.0" type="line"/>
      <point x="325.84210526315786" y="0.9999999999999984"/>
      <point x="322.7894736842105" y="154.0"/>
      <point x="322.37894736842105" y="192.0" type="curve"/>
      <point x="322.37894736842105" y="296.05263157894734" type="line"/>
      <point x="322.7894736842105" y="334.05263157894734"/>
      <point x="325.84210526315786" y="487.05263157894734"/>
      <point x="328.4842105263158" y="625.0526315789474" type="curve"/>
      <point x="237.6" y="625.0526315789474" type="line"/>
      <point x="240.2421052631579" y="487.05263157894734"/>
      <point x="243.29473684210527" y="334.05263157894734"/>
      <point x="243.70526315789473" y="296.05263157894734" type="curve"/>
      <point x="243.70526315789473" y="192.0" type="line"/>
      <point x="243.29473684210527" y="154.0"/>
      <point x="240.2421052631579" y="1.0"/>
    </contour>
    <contour>
      <point x="299.4842105263158" y="-10.23157894736842" type="curve" smooth="yes"/>
      <point x="329.6105263157895" y="-10.23157894736842"/>
      <point x="407.64210526315793" y="5.663157894736842"/>
      <point x="449.82105263157894" y="18.789473684210527" type="curve"/>
      <point x="442.41052631578947" y="115.13684210526316" type="line"/>
      <point x="400.62105263157895" y="97.47368421052632"/>
      <point x="341.6" y="81.70526315789473"/>
      <point x="324.11578947368423" y="81.70526315789473" type="curve" smooth="yes"/>
      <point x="213.7263157894737" y="83.88421052631578"/>
      <point x="154.9894736842105" y="153.20000000000002"/>
      <point x="154.9894736842105" y="251.2842105263158" type="curve" smooth="yes"/>
      <point x="154.9894736842105" y="351.33684210526314"/>
      <point x="213.6421052631579" y="411.93684210526317"/>
      <point x="300.9263157894737" y="414.93684210526317" type="curve"/>
      <point x="316.0526315789474" y="414.93684210526317"/>
      <point x="380.6421052631579" y="397.34736842105264"/>
      <point x="440.17894736842106" y="375.57894736842104" type="curve"/>
      <point x="449.2842105263158" y="473.5684210526316" type="line"/>
      <point x="401.84210526315786" y="488.0315789473685"/>
      <point x="318.6105263157895" y="509.33684210526314"/>
      <point x="289.25263157894733" y="509.33684210526314" type="curve" smooth="yes"/>
      <point x="131.1157894736842" y="509.33684210526314"/>
      <point x="43.93684210526315" y="397.5157894736842"/>
      <point x="43.93684210526315" y="248.41052631578947" type="curve" smooth="yes"/>
      <point x="43.93684210526315" y="100.30526315789474"/>
      <point x="137.09473684210525" y="-10.23157894736842"/>
    </contour>
  </outline>
</glyph>
<glyph name="sterling" format="2">
  <advance width="597.0631578947368"/>
  <unicode hex="00A3"/>
  <outline>
    <contour>
      <point x="58.578947368421055" y="0.0" type="line"/>
      <point x="564.1157894736842" y="0.0" type="line"/>
      <point x="564.1157894736842" y="110.17894736842105" type="line"/>
      <point x="487.40000000000003" y="107.12631578947368"/>
      <point x="368.30526315789473" y="103.25263157894736"/>
      <point x="280.53684210526313" y="99.78947368421052" type="curve"/>
      <point x="141.1578947368421" y="99.78947368421052" type="line"/>
      <point x="162.57894736842107" y="76.27368421052631" type="line"/>
      <point x="233.4" y="193.54736842105262"/>
      <point x="248.81052631578947" y="228.26315789473682"/>
      <point x="248.81052631578947" y="264.5684210526316" type="curve" smooth="yes"/>
      <point x="248.81052631578947" y="441.9894736842105" type="line" smooth="yes"/>
      <point x="248.81052631578947" y="551.5578947368421"/>
      <point x="296.13684210526316" y="599.778947368421"/>
      <point x="387.63157894736844" y="602.0105263157894" type="curve"/>
      <point x="407.2736842105263" y="602.0105263157894"/>
      <point x="464.06315789473683" y="586.8842105263158"/>
      <point x="526.0631578947368" y="562.2421052631579" type="curve"/>
      <point x="537.6315789473684" y="664.1578947368421" type="line"/>
      <point x="497.9894736842105" y="677.978947368421"/>
      <point x="424.2" y="700.1052631578947"/>
      <point x="378.8315789473684" y="700.1052631578947" type="curve" smooth="yes"/>
      <point x="218.93684210526317" y="700.1052631578947"/>
      <point x="131.8315789473684" y="614.6105263157895"/>
      <point x="131.8315789473684" y="447.22105263157897" type="curve" smooth="yes"/>
      <point x="131.8315789473684" y="375.66315789473686"/>
      <point x="134.06315789473683" y="305.10526315789474"/>
      <point x="134.06315789473683" y="233.9578947368421" type="curve"/>
      <point x="134.06315789473683" y="207.65263157894736"/>
      <point x="120.8842105263158" y="171.98947368421054"/>
      <point x="58.578947368421055" y="65.17894736842105" type="curve"/>
    </contour>
    <contour>
      <point x="56.5578947368421" y="328.82105263157894" type="line"/>
      <point x="121.53684210526316" y="330.64210526315793"/>
      <point x="192.23157894736843" y="332.46315789473687"/>
      <point x="236.26315789473685" y="333.2842105263158" type="curve"/>
      <point x="272.0105263157895" y="333.2842105263158" type="line"/>
      <point x="316.0421052631579" y="332.46315789473687"/>
      <point x="386.7368421052632" y="330.64210526315793"/>
      <point x="451.7157894736842" y="328.82105263157894" type="curve"/>
      <point x="451.7157894736842" y="415.8315789473684" type="line"/>
      <point x="386.7368421052632" y="414.01052631578943"/>
      <point x="316.0421052631579" y="412.1894736842105"/>
      <point x="272.0105263157895" y="411.36842105263156" type="curve"/>
      <point x="236.26315789473685" y="411.36842105263156" type="line"/>
      <point x="192.23157894736843" y="412.1894736842105"/>
      <point x="121.53684210526316" y="414.01052631578943"/>
      <point x="56.5578947368421" y="415.8315789473684" type="curve"/>
    </contour>
  </outline>
</glyph>
<glyph name="currency" format="2">
  <advance width="634.4842105263158"/>
  <unicode hex="00A4"/>
  <outline>
    <contour>
      <point x="315.65263157894736" y="108.2421052631579" type="curve" smooth="yes"/>
      <point x="442.9473684210526" y="108.2421052631579"/>
      <point x="534.621052631579" y="185.5263157894737"/>
      <point x="534.621052631579" y="320.82105263157894" type="curve" smooth="yes"/>
      <point x="534.621052631579" y="445.3157894736842"/>
      <point x="443.53684210526313" y="532.3473684210526"/>
      <point x="317.65263157894736" y="532.3473684210526" type="curve" smooth="yes"/>
      <point x="189.76842105263157" y="532.3473684210526"/>
      <point x="98.6842105263158" y="446.77894736842103"/>
      <point x="98.6842105263158" y="320.82105263157894" type="curve" smooth="yes"/>
      <point x="98.6842105263158" y="185.93684210526317"/>
      <point x="189.76842105263157" y="108.2421052631579"/>
    </contour>
    <contour>
      <point x="111.8421052631579" y="39.46315789473684" type="line"/>
      <point x="156.3578947368421" y="86.21052631578948"/>
      <point x="205.0" y="137.49473684210525"/>
      <point x="235.1578947368421" y="169.4736842105263" type="curve"/>
      <point x="166.1263157894737" y="238.50526315789475" type="line"/>
      <point x="134.14736842105265" y="208.34736842105264"/>
      <point x="82.86315789473684" y="159.7052631578947"/>
      <point x="36.11578947368421" y="115.18947368421053" type="curve"/>
    </contour>
    <contour>
      <point x="316.06315789473683" y="199.3578947368421" type="curve"/>
      <point x="249.3578947368421" y="203.0"/>
      <point x="197.18947368421053" y="240.32631578947368"/>
      <point x="197.18947368421053" y="320.41052631578947" type="curve" smooth="yes"/>
      <point x="197.18947368421053" y="394.4947368421053"/>
      <point x="249.94736842105263" y="438.0"/>
      <point x="317.2421052631579" y="441.6421052631579" type="curve"/>
      <point x="384.3578947368421" y="438.0"/>
      <point x="436.11578947368423" y="393.67368421052635"/>
      <point x="436.11578947368423" y="320.41052631578947" type="curve" smooth="yes"/>
      <point x="436.11578947368423" y="240.32631578947368"/>
      <point x="383.94736842105266" y="203.0"/>
    </contour>
    <contour>
      <point x="166.94736842105263" y="403.4947368421053" type="curve"/>
      <point x="234.33684210526314" y="470.88421052631577" type="line"/>
      <point x="204.17894736842103" y="502.8631578947368"/>
      <point x="155.53684210526313" y="554.1473684210526"/>
      <point x="111.02105263157895" y="600.8947368421053" type="curve"/>
      <point x="36.93684210526315" y="526.8105263157895" type="line"/>
      <point x="83.6842105263158" y="482.2947368421053"/>
      <point x="134.96842105263158" y="433.65263157894736"/>
    </contour>
    <contour>
      <point x="523.4631578947368" y="40.28421052631579" type="curve"/>
      <point x="597.5473684210526" y="114.36842105263159" type="line"/>
      <point x="550.8000000000001" y="158.88421052631577"/>
      <point x="499.5157894736842" y="207.52631578947367"/>
      <point x="467.53684210526313" y="237.68421052631578" type="curve"/>
      <point x="400.14736842105265" y="170.29473684210527" type="line"/>
      <point x="430.30526315789473" y="138.31578947368422"/>
      <point x="478.94736842105266" y="87.03157894736843"/>
    </contour>
    <contour>
      <point x="468.3578947368421" y="402.6736842105263" type="line"/>
      <point x="500.3368421052632" y="432.83157894736837"/>
      <point x="551.621052631579" y="481.47368421052636"/>
      <point x="598.3684210526316" y="525.9894736842106" type="curve"/>
      <point x="522.6421052631579" y="601.7157894736843" type="line"/>
      <point x="478.1263157894737" y="554.9684210526316"/>
      <point x="429.4842105263158" y="503.6842105263158"/>
      <point x="399.3263157894737" y="471.70526315789476" type="curve"/>
    </contour>
  </outline>
</glyph>
<glyph name="yen" format="2">
  <advance width="635.8421052631579"/>
  <unicode hex="00A5"/>
  <outline>
    <contour>
      <point x="264.01052631578943" y="260.0842105263158" type="line"/>
      <point x="373.4736842105263" y="260.0842105263158" type="line"/>
      <point x="517.2105263157895" y="518.9684210526316" type="line"/>
      <point x="550.6210526315789" y="573.4842105263158"/>
      <point x="586.8" y="631.9473684210526"/>
      <point x="620.2105263157895" y="686.4631578947368" type="curve"/>
      <point x="475.9894736842105" y="686.4631578947368" type="line"/>
      <point x="434.7473684210526" y="600.421052631579"/>
      <point x="414.2421052631579" y="560.2736842105263"/>
      <point x="382.0736842105263" y="492.53684210526313" type="curve"/>
      <point x="324.1157894736842" y="381.0105263157895" type="line"/>
      <point x="313.1894736842105" y="381.0105263157895" type="line"/>
      <point x="256.6421052631579" y="491.53684210526313" type="line"/>
      <point x="224.70526315789473" y="557.9894736842105"/>
      <point x="205.37894736842105" y="599.0105263157893"/>
      <point x="163.95789473684212" y="686.4631578947368" type="curve"/>
      <point x="14.810526315789474" y="686.4631578947368" type="line"/>
      <point x="67.0421052631579" y="602.3052631578948"/>
      <point x="89.0421052631579" y="567.2526315789473"/>
      <point x="119.45263157894738" y="518.5578947368421" type="curve"/>
    </contour>
    <contour>
      <point x="253.21052631578945" y="0.0" type="curve"/>
      <point x="385.27368421052637" y="0.0" type="line"/>
      <point x="382.22105263157897" y="75.53684210526315"/>
      <point x="379.5789473684211" y="140.07368421052632"/>
      <point x="376.11578947368423" y="224.7157894736842" type="curve"/>
      <point x="376.11578947368423" y="353.2315789473684" type="line"/>
      <point x="261.77894736842103" y="353.2315789473684" type="line"/>
      <point x="261.77894736842103" y="224.7157894736842" type="line"/>
      <point x="258.31578947368416" y="140.07368421052632"/>
      <point x="256.2631578947368" y="75.53684210526315"/>
    </contour>
    <contour>
      <point x="77.14736842105263" y="128.49473684210525" type="line"/>
      <point x="142.12631578947367" y="130.3157894736842"/>
      <point x="212.82105263157894" y="132.13684210526316"/>
      <point x="256.85263157894735" y="132.9578947368421" type="curve"/>
      <point x="380.81052631578945" y="132.9578947368421" type="line"/>
      <point x="424.8421052631579" y="132.13684210526316"/>
      <point x="495.53684210526313" y="130.3157894736842"/>
      <point x="560.5157894736842" y="128.49473684210525" type="curve"/>
      <point x="560.5157894736842" y="205.2421052631579" type="line"/>
      <point x="495.53684210526313" y="204.2421052631579"/>
      <point x="424.8421052631579" y="203.2421052631579"/>
      <point x="380.81052631578945" y="202.83157894736843" type="curve"/>
      <point x="256.85263157894735" y="202.83157894736843" type="line"/>
      <point x="212.82105263157894" y="203.2421052631579"/>
      <point x="142.12631578947367" y="204.2421052631579"/>
      <point x="77.14736842105263" y="205.2421052631579" type="curve"/>
    </contour>
    <contour>
      <point x="77.14736842105263" y="280.66315789473686" type="line"/>
      <point x="142.12631578947367" y="281.66315789473686"/>
      <point x="212.82105263157894" y="282.66315789473686"/>
      <point x="256.85263157894735" y="283.0736842105263" type="curve"/>
      <point x="380.81052631578945" y="283.0736842105263" type="line"/>
      <point x="424.8421052631579" y="282.66315789473686"/>
      <point x="495.53684210526313" y="281.66315789473686"/>
      <point x="560.5157894736842" y="280.66315789473686" type="curve"/>
      <point x="560.5157894736842" y="357.41052631578947" type="line"/>
      <point x="495.53684210526313" y="355.5894736842105"/>
      <point x="424.8421052631579" y="353.76842105263154"/>
      <point x="380.81052631578945" y="352.9473684210526" type="curve"/>
      <point x="256.85263157894735" y="352.9473684210526" type="line"/>
      <point x="212.82105263157894" y="353.76842105263154"/>
      <point x="142.12631578947367" y="355.5894736842105"/>
      <point x="77.14736842105263" y="357.41052631578947" type="curve"/>
    </contour>
  </outline>
</glyph>
<glyph name="section" format="2">
  <advance width="559.448275862069"/>
  <unicode hex="00A7"/>
  <outline>
    <contour>
      <point x="246.68965517241378" y="-127.37931034482759" type="curve" smooth="yes"/>
      <point x="402.1034482758621" y="-127.37931034482759"/>
      <point x="468.0689655172414" y="-52.86206896551724"/>
      <point x="468.0689655172414" y="45.793103448275865" type="curve" smooth="yes"/>
      <point x="468.0689655172414" y="148.89655172413794"/>
      <point x="401.62068965517244" y="183.06896551724137"/>
      <point x="278.7586206896552" y="218.86206896551724" type="curve" smooth="yes"/>
      <point x="189.89655172413794" y="244.58620689655172"/>
      <point x="154.55172413793105" y="268.8965517241379"/>
      <point x="154.55172413793105" y="321.9655172413793" type="curve" smooth="yes"/>
      <point x="154.55172413793105" y="372.2758620689655"/>
      <point x="195.6896551724138" y="405.551724137931"/>
      <point x="233.82758620689654" y="410.9655172413793" type="curve"/>
      <point x="176.31034482758622" y="478.1034482758621" type="line"/>
      <point x="90.3103448275862" y="454.2068965517241"/>
      <point x="42.758620689655174" y="387.96551724137936"/>
      <point x="42.758620689655174" y="314.0" type="curve" smooth="yes"/>
      <point x="42.758620689655174" y="226.6551724137931"/>
      <point x="102.24137931034483" y="181.10344827586206"/>
      <point x="206.86206896551724" y="148.82758620689654" type="curve" smooth="yes"/>
      <point x="319.9310344827586" y="114.10344827586206"/>
      <point x="357.17241379310343" y="99.27586206896552"/>
      <point x="357.17241379310343" y="48.0" type="curve" smooth="yes"/>
      <point x="357.17241379310343" y="-18.655172413793103"/>
      <point x="304.0" y="-36.79310344827586"/>
      <point x="240.51724137931035" y="-38.79310344827586" type="curve"/>
      <point x="205.48275862068968" y="-38.79310344827586"/>
      <point x="128.51724137931035" y="-13.999999999999996"/>
      <point x="47.13793103448276" y="14.896551724137929" type="curve"/>
      <point x="38.44827586206897" y="-84.75862068965516" type="line"/>
      <point x="116.03448275862068" y="-107.17241379310346"/>
      <point x="204.79310344827584" y="-127.37931034482759"/>
    </contour>
    <contour>
      <point x="399.7586206896552" y="126.51724137931035" type="line"/>
      <point x="486.55172413793105" y="157.41379310344828"/>
      <point x="525.2068965517242" y="218.68965517241378"/>
      <point x="525.2068965517242" y="293.0344827586207" type="curve" smooth="yes"/>
      <point x="525.2068965517242" y="384.48275862068965"/>
      <point x="458.7586206896552" y="424.9310344827586"/>
      <point x="335.8965517241379" y="460.7241379310345" type="curve" smooth="yes"/>
      <point x="247.0344827586207" y="486.44827586206895"/>
      <point x="211.68965517241378" y="510.7586206896552"/>
      <point x="211.68965517241378" y="555.7586206896551" type="curve" smooth="yes"/>
      <point x="211.68965517241378" y="623.1034482758621"/>
      <point x="275.6896551724138" y="636.2068965517242"/>
      <point x="316.0344827586207" y="638.2068965517242" type="curve"/>
      <point x="333.2413793103448" y="638.2068965517242"/>
      <point x="409.9310344827586" y="615.2068965517241"/>
      <point x="481.41379310344826" y="587.4137931034483" type="curve"/>
      <point x="489.1034482758621" y="687.2758620689655" type="line"/>
      <point x="435.34482758620686" y="700.3793103448276"/>
      <point x="339.3793103448276" y="726.7931034482758"/>
      <point x="297.3103448275862" y="726.7931034482758" type="curve" smooth="yes"/>
      <point x="173.27586206896552" y="726.7931034482758"/>
      <point x="99.0" y="659.3103448275862"/>
      <point x="99.0" y="557.6551724137931" type="curve" smooth="yes"/>
      <point x="99.0" y="462.2413793103448"/>
      <point x="167.44827586206895" y="416.6896551724138"/>
      <point x="264.0" y="389.7931034482759" type="curve" smooth="yes"/>
      <point x="376.17241379310343" y="358.6551724137931"/>
      <point x="414.3103448275862" y="335.7586206896552"/>
      <point x="414.3103448275862" y="280.8965517241379" type="curve" smooth="yes"/>
      <point x="414.3103448275862" y="233.58620689655172"/>
      <point x="382.89655172413796" y="196.79310344827587"/>
      <point x="338.0689655172414" y="186.27586206896552" type="curve"/>
    </contour>
  </outline>
</glyph>
<glyph name="copyright" format="2">
  <advance width="811.7578947368421"/>
  <unicode hex="00A9"/>
  <outline>
    <contour>
      <point x="409.37894736842105" y="-11.873684210526315" type="curve" smooth="yes"/>
      <point x="635.0526315789474" y="-11.873684210526315"/>
      <point x="766.5368421052632" y="139.94736842105263"/>
      <point x="766.5368421052632" y="344.41052631578947" type="curve" smooth="yes"/>
      <point x="766.5368421052632" y="541.6421052631579"/>
      <point x="641.4631578947368" y="700.1052631578947"/>
      <point x="405.7368421052632" y="700.1052631578947" type="curve" smooth="yes"/>
      <point x="173.6" y="700.1052631578947"/>
      <point x="45.22105263157895" y="543.8210526315789"/>
      <point x="45.22105263157895" y="344.0" type="curve" smooth="yes"/>
      <point x="45.22105263157895" y="153.05263157894737"/>
      <point x="163.65263157894736" y="-11.873684210526315"/>
    </contour>
    <contour>
      <point x="417.6105263157895" y="155.58947368421053" type="curve" smooth="yes"/>
      <point x="450.7578947368421" y="155.58947368421053"/>
      <point x="499.8421052631579" y="167.89473684210526"/>
      <point x="527.0736842105263" y="176.66315789473683" type="curve"/>
      <point x="521.0736842105263" y="250.66315789473683" type="line"/>
      <point x="491.2315789473684" y="236.58947368421056"/>
      <point x="456.82105263157894" y="226.0"/>
      <point x="435.2631578947368" y="226.0" type="curve"/>
      <point x="359.37894736842105" y="227.58947368421053"/>
      <point x="316.58947368421053" y="271.9894736842105"/>
      <point x="316.58947368421053" y="345.82105263157894" type="curve" smooth="yes"/>
      <point x="316.58947368421053" y="420.0842105263158"/>
      <point x="359.57894736842104" y="458.53684210526313"/>
      <point x="418.58947368421053" y="460.9473684210526" type="curve"/>
      <point x="433.07368421052627" y="460.9473684210526"/>
      <point x="475.7157894736842" y="450.3052631578948"/>
      <point x="519.8421052631578" y="431.0" type="curve"/>
      <point x="526.7157894736841" y="506.6421052631579" type="line"/>
      <point x="492.14736842105265" y="518.4631578947369"/>
      <point x="440.4" y="533.0"/>
      <point x="410.37894736842105" y="533.0" type="curve" smooth="yes"/>
      <point x="295.57894736842104" y="533.0"/>
      <point x="232.22105263157894" y="451.41052631578947"/>
      <point x="232.22105263157894" y="343.7684210526316" type="curve" smooth="yes"/>
      <point x="232.22105263157894" y="236.1263157894737"/>
      <point x="299.5052631578947" y="155.58947368421053"/>
    </contour>
    <contour>
      <point x="408.9684210526316" y="53.37894736842105" type="curve"/>
      <point x="217.1263157894737" y="59.02105263157895"/>
      <point x="113.7578947368421" y="169.9157894736842"/>
      <point x="113.7578947368421" y="344.0" type="curve" smooth="yes"/>
      <point x="113.7578947368421" y="519.2421052631579"/>
      <point x="221.53684210526316" y="629.2105263157895"/>
      <point x="406.14736842105265" y="634.8526315789474" type="curve"/>
      <point x="592.1684210526316" y="629.2105263157895"/>
      <point x="698.0" y="520.0105263157894"/>
      <point x="698.0" y="344.41052631578947" type="curve" smooth="yes"/>
      <point x="698.0" y="166.16842105263157"/>
      <point x="589.5263157894736" y="59.02105263157895"/>
    </contour>
  </outline>
</glyph>
<glyph name="ordfeminine" format="2">
  <advance width="398.7586206896552"/>
  <unicode hex="00AA"/>
  <outline>
    <contour>
      <point x="145.55172413793105" y="331.41379310344826" type="curve" smooth="yes"/>
      <point x="179.0689655172414" y="331.41379310344826"/>
      <point x="230.3793103448276" y="363.62068965517244"/>
      <point x="270.8965517241379" y="396.82758620689657" type="curve"/>
      <point x="278.5862068965517" y="396.82758620689657" type="line"/>
      <point x="292.6896551724138" y="339.3103448275862" type="line"/>
      <point x="372.1034482758621" y="339.3103448275862" type="line"/>
      <point x="362.2068965517242" y="384.17241379310343"/>
      <point x="355.1034482758621" y="417.9655172413793"/>
      <point x="348.1034482758621" y="453.0344827586207" type="curve"/>
      <point x="348.1034482758621" y="500.2068965517241" type="line" smooth="yes"/>
      <point x="348.1034482758621" y="530.7241379310345"/>
      <point x="350.1034482758621" y="569.5172413793103"/>
      <point x="350.1034482758621" y="593.3103448275862" type="curve" smooth="yes"/>
      <point x="350.1034482758621" y="687.0"/>
      <point x="295.62068965517244" y="726.7931034482758"/>
      <point x="209.75862068965517" y="726.7931034482758" type="curve" smooth="yes"/>
      <point x="185.44827586206895" y="726.7931034482758"/>
      <point x="90.72413793103449" y="708.7931034482758"/>
      <point x="53.931034482758626" y="698.7931034482758" type="curve"/>
      <point x="57.724137931034484" y="617.3793103448277" type="line"/>
      <point x="117.62068965517241" y="638.9655172413792"/>
      <point x="180.20689655172416" y="655.551724137931"/>
      <point x="191.6206896551724" y="655.551724137931" type="curve" smooth="yes"/>
      <point x="237.55172413793105" y="655.551724137931"/>
      <point x="275.6896551724138" y="642.3448275862069"/>
      <point x="272.58620689655174" y="586.5862068965517" type="curve"/>
      <point x="155.13793103448276" y="563.1724137931035" type="line" smooth="yes"/>
      <point x="104.44827586206897" y="553.1724137931035"/>
      <point x="36.93103448275862" y="521.7931034482758"/>
      <point x="36.93103448275862" y="435.3103448275862" type="curve" smooth="yes"/>
      <point x="36.93103448275862" y="376.1034482758621"/>
      <point x="75.34482758620689" y="331.41379310344826"/>
    </contour>
    <contour>
      <point x="178.24137931034483" y="399.0689655172414" type="curve" smooth="yes"/>
      <point x="143.27586206896552" y="399.0689655172414"/>
      <point x="116.24137931034483" y="414.6896551724138"/>
      <point x="116.24137931034483" y="452.6551724137931" type="curve" smooth="yes"/>
      <point x="116.24137931034483" y="492.82758620689657"/>
      <point x="151.89655172413794" y="508.3448275862069"/>
      <point x="187.75862068965517" y="515.6551724137931" type="curve" smooth="yes"/>
      <point x="244.6551724137931" y="528.0689655172414"/>
      <point x="259.37931034482756" y="534.2758620689655"/>
      <point x="270.7931034482759" y="541.1724137931035" type="curve"/>
      <point x="270.6896551724138" y="450.44827586206895" type="line"/>
      <point x="239.3448275862069" y="421.1034482758621"/>
      <point x="198.48275862068965" y="399.0689655172414"/>
    </contour>
  </outline>
</glyph>
<glyph name="logicalnot" format="2">
  <advance width="572.3157894736842"/>
  <unicode hex="00AC"/>
  <outline>
    <contour>
      <point x="412.0210526315789" y="56.37894736842105" type="curve"/>
      <point x="519.0947368421052" y="56.37894736842105" type="line"/>
      <point x="517.2736842105264" y="121.3578947368421"/>
      <point x="515.4526315789474" y="192.05263157894737"/>
      <point x="514.6315789473684" y="236.0842105263158" type="curve"/>
      <point x="514.6315789473684" y="353.0526315789474" type="line"/>
      <point x="449.65263157894736" y="351.2315789473684"/>
      <point x="378.95789473684215" y="349.41052631578947"/>
      <point x="334.9263157894737" y="348.58947368421053" type="curve"/>
      <point x="237.38947368421051" y="348.58947368421053" type="line"/>
      <point x="193.35789473684213" y="349.41052631578947"/>
      <point x="122.66315789473684" y="351.2315789473684"/>
      <point x="57.68421052631579" y="353.0526315789474" type="curve"/>
      <point x="57.68421052631579" y="248.4421052631579" type="line"/>
      <point x="122.66315789473684" y="250.26315789473685"/>
      <point x="193.35789473684213" y="252.08421052631581"/>
      <point x="237.38947368421051" y="252.90526315789475" type="curve"/>
      <point x="334.9263157894737" y="252.90526315789475" type="line"/>
      <point x="374.4947368421053" y="252.08421052631581"/>
      <point x="438.3157894736842" y="250.26315789473685"/>
      <point x="496.42105263157896" y="248.4421052631579" type="curve"/>
      <point x="416.4842105263158" y="320.5263157894737" type="line"/>
      <point x="416.4842105263158" y="236.0842105263158" type="line"/>
      <point x="415.66315789473686" y="192.05263157894737"/>
      <point x="413.8421052631579" y="121.3578947368421"/>
    </contour>
  </outline>
</glyph>
<glyph name="registered" format="2">
  <advance width="572.6736842105263"/>
  <unicode hex="00AE"/>
  <outline>
    <contour>
      <point x="288.7473684210526" y="249.16842105263157" type="curve" smooth="yes"/>
      <point x="448.06315789473683" y="249.16842105263157"/>
      <point x="538.8315789473684" y="355.2736842105263"/>
      <point x="538.8315789473684" y="498.0210526315789" type="curve" smooth="yes"/>
      <point x="538.8315789473684" y="635.1263157894737"/>
      <point x="453.29473684210524" y="746.0526315789474"/>
      <point x="285.69473684210527" y="746.0526315789474" type="curve" smooth="yes"/>
      <point x="120.32631578947368" y="746.0526315789474"/>
      <point x="33.8421052631579" y="636.7157894736843"/>
      <point x="33.8421052631579" y="497.61052631578946" type="curve" smooth="yes"/>
      <point x="33.8421052631579" y="365.5578947368421"/>
      <point x="114.5578947368421" y="249.16842105263157"/>
    </contour>
    <contour>
      <point x="181.25263157894736" y="362.2526315789474" type="curve"/>
      <point x="241.57894736842104" y="362.2526315789474" type="line"/>
      <point x="239.75789473684208" y="400.5578947368421"/>
      <point x="238.93684210526314" y="415.3578947368421"/>
      <point x="237.1157894736842" y="456.2526315789474" type="curve"/>
      <point x="237.1157894736842" y="548.2526315789473" type="line"/>
      <point x="238.93684210526314" y="588.9684210526316"/>
      <point x="239.75789473684208" y="604.9473684210526"/>
      <point x="241.16842105263157" y="639.1473684210526" type="curve"/>
      <point x="180.02105263157895" y="647.2526315789473" type="line"/>
      <point x="181.8421052631579" y="608.1263157894737"/>
      <point x="182.66315789473686" y="592.5578947368421"/>
      <point x="184.4842105263158" y="552.2526315789473" type="curve"/>
      <point x="184.4842105263158" y="456.2526315789474" type="line"/>
      <point x="183.07368421052632" y="414.5368421052632"/>
      <point x="182.66315789473686" y="401.7894736842105"/>
    </contour>
    <contour>
      <point x="288.33684210526314" y="291.0736842105263" type="curve"/>
      <point x="145.43157894736842" y="294.30526315789473"/>
      <point x="78.62105263157895" y="378.9263157894737"/>
      <point x="78.62105263157895" y="497.61052631578946" type="curve" smooth="yes"/>
      <point x="78.62105263157895" y="619.4526315789474"/>
      <point x="148.66315789473686" y="701.3263157894736"/>
      <point x="286.10526315789474" y="704.5578947368421" type="curve"/>
      <point x="424.36842105263156" y="701.3263157894736"/>
      <point x="493.46315789473687" y="619.4"/>
      <point x="493.46315789473687" y="498.0210526315789" type="curve" smooth="yes"/>
      <point x="493.46315789473687" y="374.3578947368421"/>
      <point x="421.0842105263158" y="294.30526315789473"/>
    </contour>
    <contour>
      <point x="348.81052631578945" y="362.2526315789474" type="curve"/>
      <point x="420.36842105263156" y="362.2526315789474" type="line"/>
      <point x="402.18947368421055" y="385.89473684210526"/>
      <point x="378.88421052631577" y="416.2526315789474"/>
      <point x="356.93684210526317" y="445.0736842105263" type="curve"/>
      <point x="315.86315789473684" y="501.89473684210526" type="line"/>
      <point x="295.1894736842105" y="481.5578947368421" type="line"/>
      <point x="366.42105263157896" y="481.5578947368421"/>
      <point x="392.1894736842105" y="519.9684210526316"/>
      <point x="392.1894736842105" y="567.2" type="curve" smooth="yes"/>
      <point x="392.1894736842105" y="624.4315789473684"/>
      <point x="353.1894736842105" y="649.0736842105263"/>
      <point x="287.7473684210526" y="649.0736842105263" type="curve"/>
      <point x="243.23157894736843" y="649.0736842105263"/>
      <point x="207.94736842105263" y="647.2526315789473"/>
      <point x="180.02105263157895" y="647.2526315789473" type="curve"/>
      <point x="220.31578947368422" y="603.8315789473684" type="line"/>
      <point x="285.5157894736842" y="603.8315789473684" type="line" smooth="yes"/>
      <point x="304.7684210526316" y="603.8315789473684"/>
      <point x="337.3263157894737" y="602.2421052631579"/>
      <point x="337.3263157894737" y="562.2736842105263" type="curve" smooth="yes"/>
      <point x="337.3263157894737" y="524.8947368421053"/>
      <point x="312.30526315789473" y="513.3578947368421"/>
      <point x="275.38947368421054" y="513.3578947368421" type="curve" smooth="yes"/>
      <point x="226.77894736842106" y="513.3578947368421" type="line"/>
      <point x="226.77894736842106" y="476.2736842105263" type="line"/>
      <point x="293.42105263157896" y="476.2736842105263" type="line"/>
      <point x="261.05263157894734" y="496.4842105263158" type="line"/>
      <point x="306.0736842105263" y="431.66315789473686" type="line"/>
      <point x="319.7894736842105" y="409.2526315789474"/>
      <point x="332.5052631578948" y="388.66315789473686"/>
    </contour>
  </outline>
</glyph>
<glyph name="plusminus" format="2">
  <advance width="572.3157894736842"/>
  <unicode hex="00B1"/>
  <outline>
    <contour>
      <point x="57.68421052631579" y="-4.463157894736842" type="line"/>
      <point x="122.66315789473684" y="-2.6421052631578945"/>
      <point x="193.35789473684213" y="-0.8210526315789474"/>
      <point x="237.38947368421051" y="0.0" type="curve"/>
      <point x="334.9263157894737" y="0.0" type="line"/>
      <point x="378.95789473684215" y="-0.8210526315789474"/>
      <point x="449.65263157894736" y="-2.6421052631578945"/>
      <point x="514.6315789473684" y="-4.463157894736842" type="curve"/>
      <point x="514.6315789473684" y="100.14736842105263" type="line"/>
      <point x="449.65263157894736" y="98.32631578947368"/>
      <point x="378.95789473684215" y="96.50526315789475"/>
      <point x="334.9263157894737" y="95.6842105263158" type="curve"/>
      <point x="237.38947368421051" y="95.6842105263158" type="line"/>
      <point x="193.35789473684213" y="96.50526315789475"/>
      <point x="122.66315789473684" y="98.32631578947368"/>
      <point x="57.68421052631579" y="100.14736842105263" type="curve"/>
    </contour>
    <contour>
      <point x="57.68421052631579" y="357.1578947368421" type="line"/>
      <point x="122.66315789473684" y="358.9789473684211"/>
      <point x="193.35789473684213" y="360.8"/>
      <point x="237.38947368421051" y="361.62105263157895" type="curve"/>
      <point x="334.9263157894737" y="361.62105263157895" type="line"/>
      <point x="378.95789473684215" y="360.8"/>
      <point x="449.65263157894736" y="358.9789473684211"/>
      <point x="514.6315789473684" y="357.1578947368421" type="curve"/>
      <point x="514.6315789473684" y="461.7684210526316" type="line"/>
      <point x="449.65263157894736" y="459.9473684210526"/>
      <point x="378.95789473684215" y="458.12631578947367"/>
      <point x="334.9263157894737" y="457.30526315789473" type="curve"/>
      <point x="237.38947368421051" y="457.30526315789473" type="line"/>
      <point x="193.35789473684213" y="458.12631578947367"/>
      <point x="122.66315789473684" y="459.9473684210526"/>
      <point x="57.68421052631579" y="461.7684210526316" type="curve"/>
    </contour>
    <contour>
      <point x="232.62105263157895" y="173.30526315789473" type="curve"/>
      <point x="339.69473684210527" y="173.30526315789473" type="line"/>
      <point x="337.8736842105263" y="238.2842105263158"/>
      <point x="336.05263157894734" y="308.978947368421"/>
      <point x="335.2315789473684" y="353.0105263157895" type="curve"/>
      <point x="335.2315789473684" y="465.9157894736842" type="line"/>
      <point x="336.05263157894734" y="509.9473684210526"/>
      <point x="337.8736842105263" y="580.6421052631579"/>
      <point x="339.69473684210527" y="645.621052631579" type="curve"/>
      <point x="232.62105263157895" y="645.621052631579" type="line"/>
      <point x="234.44210526315788" y="580.6421052631579"/>
      <point x="236.26315789473685" y="509.9473684210526"/>
      <point x="237.0842105263158" y="465.9157894736842" type="curve"/>
      <point x="237.0842105263158" y="353.0105263157895" type="line"/>
      <point x="236.26315789473685" y="308.978947368421"/>
      <point x="234.44210526315788" y="238.2842105263158"/>
    </contour>
  </outline>
</glyph>
<glyph name="micro" format="2">
  <advance width="566.2421052631579"/>
  <unicode hex="00B5"/>
  <outline>
    <contour>
      <point x="57.031578947368416" y="-195.6421052631579" type="curve"/>
      <point x="186.22105263157894" y="-192.0" type="line"/>
      <point x="182.34736842105264" y="-119.46315789473684"/>
      <point x="179.29473684210527" y="-56.51578947368421"/>
      <point x="175.01052631578946" y="20.378947368421052" type="curve" smooth="yes"/>
      <point x="175.01052631578946" y="36.68421052631579" type="line"/>
      <point x="130.9578947368421" y="36.68421052631579" type="line"/>
      <point x="152.90526315789472" y="4.021052631578947"/>
      <point x="186.56842105263158" y="-11.873684210526315"/>
      <point x="235.43157894736842" y="-11.873684210526315" type="curve" smooth="yes"/>
      <point x="283.86315789473684" y="-11.873684210526315"/>
      <point x="355.621052631579" y="41.578947368421055"/>
      <point x="393.7473684210526" y="86.55789473684212" type="curve"/>
      <point x="403.0315789473684" y="86.55789473684212" type="line"/>
      <point x="424.56842105263155" y="0.0" type="line"/>
      <point x="528.1789473684211" y="0.0" type="line"/>
      <point x="515.5894736842106" y="56.26315789473684"/>
      <point x="506.7684210526316" y="100.34736842105264"/>
      <point x="496.7684210526316" y="149.32631578947368" type="curve"/>
      <point x="497.3578947368421" y="271.82105263157894" type="line"/>
      <point x="498.17894736842106" y="360.62105263157895"/>
      <point x="499.178947368421" y="420.2315789473684"/>
      <point x="500.0" y="497.2842105263158" type="curve"/>
      <point x="379.61052631578946" y="497.2842105263158" type="line"/>
      <point x="382.66315789473686" y="424.7473684210526"/>
      <point x="385.3052631578948" y="360.38947368421054"/>
      <point x="387.94736842105266" y="284.13684210526316" type="curve"/>
      <point x="387.94736842105266" y="165.9157894736842" type="line"/>
      <point x="343.34736842105264" y="123.26315789473684"/>
      <point x="286.7473684210526" y="87.0421052631579"/>
      <point x="260.65263157894736" y="87.0421052631579" type="curve" smooth="yes"/>
      <point x="195.97894736842105" y="87.0421052631579"/>
      <point x="175.01052631578946" y="126.77894736842106"/>
      <point x="175.01052631578946" y="205.94736842105263" type="curve"/>
      <point x="175.6" y="284.13684210526316" type="line"/>
      <point x="176.42105263157893" y="356.9263157894737"/>
      <point x="177.6526315789474" y="434.5473684210526"/>
      <point x="179.06315789473683" y="500.9263157894737" type="curve"/>
      <point x="56.21052631578947" y="497.2842105263158" type="line"/>
      <point x="59.67368421052631" y="424.7473684210526"/>
      <point x="62.31578947368421" y="361.2105263157895"/>
      <point x="66.18947368421053" y="271.82105263157894" type="curve"/>
      <point x="66.18947368421053" y="25.71578947368421" type="line"/>
      <point x="62.72631578947368" y="-56.51578947368421"/>
      <point x="60.084210526315786" y="-123.10526315789474"/>
    </contour>
  </outline>
</glyph>
